<svg width="43" height="41" viewBox="0 0 43 41" fill="none" xmlns="http://www.w3.org/2000/svg">
<path d="M42.0725 0H0.689713C0.50679 0 0.331358 0.072666 0.202012 0.202012C0.0726659 0.331358 0 0.50679 0 0.689713V32.4165C0 32.5994 0.0726659 32.7749 0.202012 32.9042C0.331358 33.0336 0.50679 33.1062 0.689713 33.1062H26.5746C26.6781 33.258 26.7816 33.4028 26.8988 33.5476V39.3136C26.8988 39.4966 26.9715 39.672 27.1008 39.8013C27.2302 39.9307 27.4056 40.0034 27.5885 40.0034C27.6618 40.0133 27.736 40.0133 27.8092 40.0034L31.7268 38.6584L35.6444 40.0034C35.7176 40.0133 35.7918 40.0133 35.8651 40.0034C36.048 40.0034 36.2234 39.9307 36.3528 39.8013C36.4821 39.672 36.5548 39.4966 36.5548 39.3136V33.5476C36.672 33.4028 36.7755 33.258 36.879 33.1062H42.0725C42.2554 33.1062 42.4308 33.0336 42.5602 32.9042C42.6895 32.7749 42.7622 32.5994 42.7622 32.4165V0.689713C42.7622 0.50679 42.6895 0.331358 42.5602 0.202012C42.4308 0.072666 42.2554 0 42.0725 0ZM26.8229 25.8504C26.754 25.9401 26.685 26.0298 26.6229 26.1263L26.5402 26.2505C26.4643 26.3608 26.4022 26.4712 26.3332 26.5884L26.285 26.6712C26.1205 26.9643 25.982 27.2712 25.8711 27.5885H8.91109C8.76823 26.7404 8.36467 25.9579 7.75651 25.3497C7.14835 24.7416 6.36582 24.338 5.5177 24.1951V8.91109C6.36582 8.76823 7.14835 8.36467 7.75651 7.75651C8.36467 7.14835 8.76823 6.36582 8.91109 5.5177H33.8511C33.994 6.36582 34.3975 7.14835 35.0057 7.75651C35.6139 8.36467 36.3964 8.76823 37.2445 8.91109V24.1951C36.6696 24.2933 36.122 24.5119 35.6375 24.8366C35.4995 24.7262 35.3478 24.6159 35.196 24.5124L35.0443 24.4227C34.934 24.3538 34.8236 24.2848 34.7064 24.2227L34.4856 24.14L34.1615 23.9882L33.9546 23.9055L33.6304 23.7882L33.4166 23.7261L33.0717 23.6365L32.8579 23.5951C32.7338 23.5951 32.6027 23.5537 32.4786 23.533H32.2924C32.1061 23.533 31.913 23.533 31.7199 23.533C31.5268 23.533 31.375 23.533 31.2095 23.533H31.044C30.9336 23.533 30.8164 23.533 30.706 23.5744L30.5129 23.6158C30.4163 23.6158 30.3198 23.6158 30.2232 23.6778L30.0163 23.733L29.7404 23.8158L29.5404 23.8917L29.2852 23.9882L29.0852 24.0779L28.8369 24.202L28.6507 24.3055L28.4093 24.4503L28.2368 24.5607L28.0092 24.7262L27.8437 24.8504L27.623 25.0366L27.4782 25.1676L27.2644 25.3814L27.1333 25.5125L26.9264 25.7539L26.8229 25.8504ZM35.1754 38.3549L31.9475 37.279C31.8043 37.2306 31.6493 37.2306 31.5061 37.279L28.2782 38.3549V34.8167C28.3135 34.84 28.3504 34.8607 28.3886 34.8788C28.5748 34.996 28.7679 35.1064 28.961 35.2098L29.1128 35.2857C29.3577 35.3965 29.6087 35.4932 29.8646 35.5754L30.0439 35.6237C30.2508 35.6858 30.4646 35.7271 30.6784 35.7685H30.906C31.4501 35.8513 32.0035 35.8513 32.5476 35.7685H32.7752C32.9867 35.7308 33.1962 35.6825 33.4028 35.6237L33.589 35.5754C33.8449 35.4932 34.0959 35.3965 34.3408 35.2857L34.4856 35.1754C34.6824 35.0782 34.8736 34.97 35.0581 34.8512C35.0963 34.8332 35.1332 34.8124 35.1685 34.7891L35.1754 38.3549ZM35.8651 32.0786C35.7057 32.3527 35.521 32.6113 35.3133 32.851C34.4675 33.8103 33.2757 34.3948 31.9994 34.4763C30.7232 34.5577 29.4667 34.1295 28.5058 33.2855C28.3508 33.1512 28.2056 33.006 28.0713 32.851C27.3114 31.9609 26.8955 30.828 26.8988 29.6577C26.8974 29.2505 26.9484 28.8448 27.0505 28.4507C27.3182 27.414 27.9228 26.4958 28.7693 25.8403C29.6158 25.1848 30.6562 24.8293 31.7268 24.8297C31.8831 24.8297 32.0418 24.8297 32.2027 24.8297C33.1422 24.9252 34.0336 25.2918 34.7684 25.8849C34.8926 25.9884 35.0098 26.0918 35.1202 26.2022C35.5772 26.6537 35.9395 27.192 36.1858 27.7853C36.4322 28.3787 36.5576 29.0152 36.5548 29.6577C36.5609 30.5092 36.3343 31.3463 35.8996 32.0786H35.8651ZM41.3828 31.7268H37.5756C37.6238 31.5958 37.6652 31.4578 37.6997 31.3268C37.7342 31.1957 37.6997 31.2785 37.6997 31.2509C37.7549 31.0233 37.8032 30.7888 37.8377 30.5612V30.3888C37.939 29.589 37.8802 28.7771 37.6647 28.0003C37.4492 27.2236 37.0813 26.4974 36.5824 25.8642C36.9949 25.6327 37.4612 25.5138 37.9342 25.5194C38.1171 25.5194 38.2926 25.4467 38.4219 25.3174C38.5513 25.188 38.6239 25.0126 38.6239 24.8297V8.27656C38.6239 8.09363 38.5513 7.9182 38.4219 7.78886C38.2926 7.65951 38.1171 7.58684 37.9342 7.58684C37.2025 7.58684 36.5008 7.29618 35.9834 6.77879C35.466 6.26141 35.1754 5.55968 35.1754 4.82799C35.1754 4.64507 35.1027 4.46964 34.9733 4.34029C34.844 4.21094 34.6686 4.13828 34.4856 4.13828H8.27656C8.09363 4.13828 7.9182 4.21094 7.78885 4.34029C7.65951 4.46964 7.58684 4.64507 7.58684 4.82799C7.58684 5.55968 7.29618 6.26141 6.77879 6.77879C6.26141 7.29618 5.55968 7.58684 4.82799 7.58684C4.64507 7.58684 4.46964 7.65951 4.34029 7.78886C4.21094 7.9182 4.13828 8.09363 4.13828 8.27656V24.8297C4.13828 25.0126 4.21094 25.188 4.34029 25.3174C4.46964 25.4467 4.64507 25.5194 4.82799 25.5194C5.55968 25.5194 6.26141 25.81 6.77879 26.3274C7.29618 26.8448 7.58684 27.5465 7.58684 28.2782C7.58684 28.4612 7.65951 28.6366 7.78885 28.7659C7.9182 28.8953 8.09363 28.9679 8.27656 28.9679H25.5608C25.5332 29.1968 25.5194 29.4271 25.5194 29.6577C25.523 29.8883 25.5391 30.1185 25.5677 30.3474V30.5198C25.5677 30.7543 25.6504 30.9819 25.7056 31.2095V31.2923C25.747 31.4233 25.7815 31.5544 25.8298 31.6854H1.37943V1.37943H41.3828V31.7268Z" fill="#404040"/>
<path d="M15.8633 13.1046H26.8987C27.0816 13.1046 27.2571 13.032 27.3864 12.9026C27.5158 12.7733 27.5884 12.5978 27.5884 12.4149V8.27663C27.5884 8.0937 27.5158 7.91827 27.3864 7.78893C27.2571 7.65958 27.0816 7.58691 26.8987 7.58691H15.8633C15.6804 7.58691 15.5049 7.65958 15.3756 7.78893C15.2462 7.91827 15.1736 8.0937 15.1736 8.27663V12.4149C15.1736 12.5978 15.2462 12.7733 15.3756 12.9026C15.5049 13.032 15.6804 13.1046 15.8633 13.1046ZM16.553 8.96634H26.209V11.7252H16.553V8.96634Z" fill="#404040"/>
<path d="M14.4839 17.2428H28.2782C28.4611 17.2428 28.6365 17.1702 28.7659 17.0408C28.8952 16.9115 28.9679 16.736 28.9679 16.5531C28.9679 16.3702 28.8952 16.1948 28.7659 16.0654C28.6365 15.9361 28.4611 15.8634 28.2782 15.8634H14.4839C14.301 15.8634 14.1255 15.9361 13.9962 16.0654C13.8669 16.1948 13.7942 16.3702 13.7942 16.5531C13.7942 16.736 13.8669 16.9115 13.9962 17.0408C14.1255 17.1702 14.301 17.2428 14.4839 17.2428Z" fill="#404040"/>
<path d="M31.0371 20.6914C31.0371 20.5085 30.9644 20.3331 30.8351 20.2037C30.7057 20.0744 30.5303 20.0017 30.3473 20.0017H12.4148C12.2319 20.0017 12.0565 20.0744 11.9271 20.2037C11.7978 20.3331 11.7251 20.5085 11.7251 20.6914C11.7251 20.8743 11.7978 21.0498 11.9271 21.1791C12.0565 21.3085 12.2319 21.3811 12.4148 21.3811H30.3473C30.5303 21.3811 30.7057 21.3085 30.8351 21.1791C30.9644 21.0498 31.0371 20.8743 31.0371 20.6914Z" fill="#404040"/>
</svg>
