<svg width="49" height="48" viewBox="0 0 49 48" fill="none" xmlns="http://www.w3.org/2000/svg">
<g clip-path="url(#clip0_8_341)">
<path d="M48.8619 24.6707C48.6592 24.4479 48.0541 24.1503 47.3668 23.9377C47.343 23.743 47.2936 23.5522 47.2199 23.3704C47.1166 23.1014 46.9408 22.8662 46.7119 22.6908C46.483 22.5154 46.21 22.4066 45.923 22.3765C44.8861 22.2519 43.7566 22.74 42.9473 23.1989C41.3141 17.5095 36.5378 12.7905 30.1546 10.7939C30.6376 9.78706 30.8885 8.68506 30.889 7.56879C30.8925 6.43057 30.638 5.30631 30.1445 4.28018C29.651 3.25406 28.9313 2.35268 28.0393 1.64353C27.1473 0.934377 26.1062 0.435841 24.9938 0.185252C23.8814 -0.0653364 22.7266 -0.0614838 21.6159 0.196522C20.5052 0.454527 19.4674 0.959999 18.5802 1.67508C17.6929 2.39017 16.9793 3.29634 16.4927 4.32573C16.0061 5.35512 15.7591 6.48106 15.7702 7.61923C15.7814 8.75739 16.0504 9.87829 16.5571 10.898C14.4106 11.5947 12.3906 12.6322 10.5749 13.9706C8.56567 12.9239 6.37138 12.9445 4.88502 14.0469L4.12862 14.6098L6.62547 17.9463C5.40446 19.6174 4.50776 21.5018 3.98175 23.5023H2.92866C2.15239 23.5047 1.40861 23.8136 0.859836 24.3616C0.311067 24.9096 0.00193719 25.6521 0 26.4269L0 34.8459C0.00232457 35.6205 0.311626 36.3627 0.860353 36.9103C1.40908 37.458 2.15265 37.7668 2.92866 37.7691H7.10575C8.35866 39.3364 9.85342 40.6947 11.534 41.7931V45.7307C11.534 46.924 12.402 47.8945 13.4698 47.8945H17.0667C18.1345 47.8945 19.0025 46.924 19.0025 45.7307V44.8614C21.7869 45.4379 24.6568 45.4708 27.4536 44.9582V45.8377C27.4536 47.031 28.3217 48 29.3894 48H32.9864C34.0541 48 34.9222 47.031 34.9222 45.8377V42.1523C40.3462 38.8231 43.5642 33.4005 43.5642 27.5425C43.5609 26.4007 43.4324 25.2627 43.1809 24.1488C43.9152 23.6973 44.9668 23.2018 45.8114 23.3103C45.9266 23.319 46.037 23.3597 46.1302 23.4278C46.2234 23.496 46.2956 23.5888 46.3386 23.6958C45.7512 23.6137 45.2312 23.646 44.9478 23.882C44.749 24.0488 44.602 24.2686 44.524 24.5158C44.4459 24.763 44.4401 25.0272 44.5071 25.2776C44.654 25.8142 45.1284 26.1792 45.7996 26.2789C46.0129 26.3097 46.2305 26.2794 46.4271 26.1914C46.6238 26.1034 46.7912 25.9614 46.91 25.7819C47.1064 25.5207 47.2451 25.2209 47.3168 24.9023C47.7178 25.0357 48.0512 25.1867 48.1658 25.304C48.246 25.3989 48.3605 25.4582 48.4844 25.4692C48.6082 25.4802 48.7315 25.4419 48.8272 25.3626C48.9229 25.2833 48.9833 25.1695 48.9953 25.046C49.0073 24.9224 48.9699 24.7991 48.8913 24.703L48.8634 24.6722L48.8619 24.6707ZM23.3309 1.90871C24.3595 1.90708 25.3692 2.1849 26.2518 2.71238C27.1343 3.23986 27.8563 3.99712 28.3405 4.90297C28.8247 5.80882 29.0528 6.82912 29.0003 7.8545C28.9478 8.87987 28.6168 9.87165 28.0426 10.7235L28.0103 10.769C27.9853 10.8056 27.9559 10.8393 27.9295 10.876C27.8208 11.0226 27.7048 11.1692 27.5843 11.307C27.552 11.3451 27.5183 11.3803 27.4859 11.4169C27.3655 11.5459 27.2407 11.6676 27.1114 11.7834L27.0248 11.8626C26.6961 12.1471 26.3359 12.393 25.9511 12.5956C25.9379 12.6044 25.9247 12.6088 25.9115 12.6161C25.737 12.705 25.5581 12.7848 25.3754 12.855C25.3357 12.8712 25.2961 12.8844 25.2549 12.899C25.096 12.9561 24.9342 13.005 24.7702 13.0456L24.6234 13.0852C24.4633 13.1219 24.3003 13.1497 24.1358 13.1746C24.0835 13.1796 24.0315 13.1874 23.9801 13.1981C23.766 13.223 23.5508 13.2362 23.3353 13.2377C23.1212 13.2369 22.9074 13.2237 22.6949 13.1981C22.65 13.1945 22.6054 13.1881 22.5613 13.179C22.3894 13.1556 22.2205 13.1248 22.0516 13.0852L21.9371 13.0559C21.7585 13.0117 21.5825 12.9579 21.4098 12.8946L21.3378 12.8682C20.5236 12.5592 19.7907 12.0688 19.1949 11.4345L19.1479 11.3818C19.0128 11.2349 18.8858 11.0807 18.7675 10.92C18.7396 10.8789 18.7073 10.8393 18.6779 10.7983L18.6265 10.7294C18.054 9.87812 17.7238 8.8876 17.6714 7.86362C17.6189 6.83965 17.8461 5.82068 18.3287 4.91556C18.8113 4.01044 19.5312 3.25316 20.4114 2.72461C21.2917 2.19605 22.2992 1.91607 23.3265 1.91457L23.3309 1.90871ZM33.4872 40.8095L32.9834 41.1027L33.0304 45.8363C33.0347 45.9359 33.0041 46.0339 32.9438 46.1133L29.4379 46.1265C29.4022 46.087 29.375 46.0406 29.3578 45.9902C29.3406 45.9398 29.3339 45.8864 29.338 45.8333V42.6082L28.1807 42.8765C24.9261 43.6492 21.5308 43.6079 18.2961 42.7563L17.1123 42.447V45.7249C17.1123 45.8964 17.0388 45.9975 17.0638 46.0034L13.5197 46.0151C13.484 45.9756 13.4567 45.9292 13.4395 45.8788C13.4223 45.8284 13.4156 45.775 13.4198 45.7219V41.6451L13.5902 40.8579L13.0248 40.509C11.2064 39.3965 9.61241 37.9546 8.3248 36.2577L8.04133 35.8824H2.92866C2.79186 35.8826 2.65636 35.8558 2.52993 35.8037C2.4035 35.7515 2.28863 35.6749 2.1919 35.5784C2.09516 35.4818 2.01846 35.3672 1.9662 35.241C1.91394 35.1148 1.88713 34.9796 1.88733 34.843V26.4255C1.88733 26.1495 1.99694 25.8849 2.19215 25.6895C2.38735 25.4941 2.65221 25.3839 2.92866 25.3832H5.49308L5.6517 24.637C6.13068 22.4059 7.12216 20.3162 8.54805 18.5327L8.98867 17.9639L6.88397 15.1493C7.81662 14.9235 9.03567 15.1991 10.146 15.8984L10.7218 16.2575L11.2491 15.8353C13.1457 14.3323 15.3121 13.2038 17.6322 12.5105C17.6527 12.5355 17.6792 12.5575 17.6997 12.5824C17.8466 12.7422 17.9935 12.8976 18.1507 13.0456C18.1903 13.0837 18.2329 13.1189 18.2726 13.1556C18.4297 13.3022 18.5927 13.4312 18.7587 13.5602L18.8791 13.6496C18.9511 13.7024 19.026 13.761 19.095 13.8109C17.8638 14.1173 16.6707 14.5598 15.5378 15.1302C15.4273 15.1863 15.3291 15.2636 15.2486 15.3576C15.1681 15.4517 15.1069 15.5606 15.0686 15.6782C15.0303 15.7958 15.0155 15.9198 15.0252 16.0431C15.0349 16.1664 15.0688 16.2866 15.1251 16.3968C15.2386 16.6194 15.4361 16.7878 15.6741 16.8651C15.7919 16.9033 15.9161 16.9181 16.0397 16.9084C16.1632 16.8987 16.2836 16.8649 16.394 16.8087C18.6607 15.6841 21.1627 15.1132 23.6938 15.143C26.2249 15.1728 28.7127 15.8025 30.9522 16.9803C31.1722 17.0983 31.4303 17.1242 31.6695 17.0523C31.9087 16.9804 32.1095 16.8166 32.2278 16.5969C32.346 16.3772 32.3719 16.1197 32.2999 15.8809C32.2279 15.6422 32.0638 15.4417 31.8437 15.3237C30.5231 14.6157 29.1147 14.0848 27.6548 13.7449L27.7914 13.6423C27.8561 13.5954 27.9207 13.5484 27.9838 13.4957C28.1297 13.3803 28.2707 13.2601 28.4068 13.135C28.4656 13.0823 28.5243 13.0324 28.5816 12.9782C28.7285 12.8316 28.8754 12.685 29.012 12.5208C29.0413 12.4886 29.0722 12.4607 29.1016 12.427C36.5334 14.535 41.671 20.6716 41.671 27.5367C41.6754 32.8904 38.616 37.8512 33.4872 40.8095ZM46.1639 25.2028C46.1393 25.2427 46.1061 25.2765 46.0667 25.3019C46.0273 25.3272 45.9827 25.3435 45.9362 25.3494C45.7673 25.3245 45.4765 25.2498 45.4133 25.024C45.396 24.9525 45.3975 24.8778 45.4179 24.8071C45.4382 24.7364 45.4766 24.6722 45.5294 24.6209C45.6086 24.5914 45.6931 24.5784 45.7776 24.5827C45.9866 24.5883 46.1947 24.6139 46.3989 24.659C46.3604 24.8549 46.2802 25.0404 46.1639 25.2028ZM13.0174 24.4039C13.0177 24.7141 12.9258 25.0175 12.7534 25.2756C12.5809 25.5337 12.3357 25.735 12.0486 25.854C11.7616 25.973 11.4456 26.0043 11.1407 25.9441C10.8358 25.8838 10.5556 25.7347 10.3357 25.5156C10.1157 25.2964 9.96573 25.017 9.9048 24.7128C9.84388 24.4086 9.87471 24.0932 9.99338 23.8064C10.1121 23.5197 10.3133 23.2745 10.5715 23.1019C10.8298 22.9294 11.1336 22.8371 11.4444 22.8368C11.6508 22.8366 11.8552 22.877 12.0459 22.9556C12.2367 23.0343 12.41 23.1497 12.5561 23.2952C12.7021 23.4407 12.8181 23.6135 12.8972 23.8037C12.9764 23.994 13.0172 24.1979 13.0174 24.4039Z" fill="#404040"/>
</g>
<defs>
<clipPath id="clip0_8_341">
<rect width="49" height="48" fill="white"/>
</clipPath>
</defs>
</svg>
