<svg width="42" height="41" viewBox="0 0 42 41" fill="none" xmlns="http://www.w3.org/2000/svg">
<path d="M40.9602 21.9269C40.93 21.8384 40.8761 21.76 40.8044 21.7001L39.0047 19.8863L20.881 1.80511C20.7953 1.71522 20.6865 1.65053 20.5666 1.61805C20.4467 1.58558 20.3202 1.58656 20.2008 1.6209L5.71885 5.23431C5.59356 5.26886 5.47939 5.33534 5.38749 5.42724C5.29559 5.51914 5.22911 5.63332 5.19455 5.75861L4.47187 8.67768C4.25777 8.47874 4.0803 8.24371 3.94757 7.98333C3.49646 7.07252 3.40538 6.0251 3.6925 5.0501C3.97591 3.51971 4.28765 1.77677 0.957647 0.0479993C0.871239 0.0140857 0.778908 -0.00215764 0.686113 0.000229686C0.593319 0.00261701 0.501945 0.0235866 0.417395 0.0618984C0.332845 0.10021 0.256835 0.155086 0.19386 0.223282C0.130885 0.291478 0.0822228 0.371609 0.0507519 0.458936C-0.00896263 0.606421 -0.0162111 0.769941 0.0302197 0.922131C0.0766505 1.07432 0.173943 1.20595 0.305816 1.29498C2.70059 2.55613 2.54471 3.39218 2.30382 4.79503C1.9596 6.08367 2.09558 7.45351 2.68642 8.64934C3.00577 9.28606 3.49653 9.82099 4.10344 10.1939L1.58114 20.2406C1.5468 20.36 1.54582 20.4865 1.57829 20.6064C1.61077 20.7263 1.67546 20.835 1.76535 20.9208L19.8749 39.0445L21.6887 40.8441C21.7486 40.9159 21.827 40.9698 21.9154 41H22.4539C22.545 40.967 22.6274 40.9137 22.6948 40.8441L40.8044 22.7346C40.874 22.6671 40.9273 22.5848 40.9602 22.4937C40.9984 22.4041 41.0181 22.3077 41.0181 22.2103C41.0181 22.1129 40.9984 22.0165 40.9602 21.9269ZM5.4071 10.7465C5.81561 10.8434 6.23426 10.891 6.65408 10.8882H7.23506C7.49647 11.371 7.90283 11.7595 8.39685 11.999C8.89086 12.2384 9.44759 12.3168 9.9885 12.2229C10.5294 12.1291 11.0272 11.8677 11.4117 11.4759C11.7961 11.084 12.0478 10.5812 12.1313 10.0386C12.2148 9.49602 12.1258 8.9409 11.8769 8.45156C11.6281 7.96223 11.2318 7.56338 10.7441 7.31127C10.2565 7.05917 9.70193 6.96653 9.15878 7.04643C8.61563 7.12634 8.11128 7.37474 7.71685 7.75661C7.24443 8.20403 6.95208 8.80888 6.89498 9.45704C6.51427 9.4811 6.13211 9.44766 5.76136 9.35785L6.46987 6.5238L20.1583 3.08043L37.4744 20.4248L20.385 37.5141L3.04067 20.1981L5.4071 10.7465ZM10.0124 9.0461L9.33226 8.36593H9.5023C9.66289 8.36589 9.82186 8.39795 9.96988 8.46025C10.1179 8.52254 10.2519 8.61381 10.3642 8.72867C10.4764 8.84354 10.5645 8.97968 10.6234 9.1291C10.6822 9.27852 10.7106 9.4382 10.7068 9.59874C10.7078 9.81523 10.6497 10.0279 10.5388 10.2138C10.4279 10.3998 10.2684 10.5519 10.0775 10.654C9.88652 10.756 9.67137 10.804 9.45517 10.7929C9.23897 10.7817 9.0299 10.7118 8.85047 10.5907C9.17616 10.5049 9.49381 10.3911 9.79988 10.2506C9.8857 10.2138 9.96323 10.1601 10.0278 10.0927C10.0924 10.0253 10.1428 9.94557 10.1758 9.85827C10.2089 9.77096 10.224 9.67788 10.2203 9.58459C10.2166 9.49131 10.1941 9.39973 10.1541 9.31534C10.1157 9.26006 10.0677 9.21208 10.0124 9.17364V9.0461ZM22.1847 39.3421L21.377 38.5344L38.4946 21.4167L39.3023 22.2244L22.1847 39.3421Z" fill="#3F3F3F"/>
<path d="M20.5692 26.362H20.7676C20.858 26.3377 20.9425 26.2953 21.0161 26.2375C21.0897 26.1797 21.1508 26.1075 21.1958 26.0255C21.2408 25.9434 21.2688 25.8531 21.278 25.76C21.2872 25.6668 21.2775 25.5728 21.2494 25.4835L17.2676 11.3132C17.2429 11.219 17.1998 11.1306 17.1407 11.0531C17.0817 10.9756 17.0079 10.9106 16.9235 10.8619C16.8392 10.8131 16.746 10.7816 16.6494 10.769C16.5528 10.7565 16.4547 10.7633 16.3607 10.7889C16.175 10.845 16.0182 10.9707 15.9231 11.1397C15.828 11.3088 15.802 11.5081 15.8505 11.6958L19.8466 25.8661C19.8939 26.0178 19.9909 26.1493 20.122 26.2392C20.2531 26.3292 20.4106 26.3724 20.5692 26.362Z" fill="#3F3F3F"/>
<path d="M11.642 17.2933C11.1849 17.7513 10.8738 18.3346 10.748 18.9694C10.6222 19.6042 10.6874 20.262 10.9353 20.8598C11.1833 21.4575 11.6028 21.9684 12.141 22.3278C12.6791 22.6872 13.3117 22.879 13.9589 22.879C14.606 22.879 15.2386 22.6872 15.7768 22.3278C16.3149 21.9684 16.7345 21.4575 16.9824 20.8598C17.2304 20.262 17.2956 19.6042 17.1698 18.9694C17.044 18.3346 16.7329 17.7513 16.2757 17.2933C15.6563 16.6883 14.8247 16.3496 13.9589 16.3496C13.093 16.3496 12.2615 16.6883 11.642 17.2933ZM15.2696 20.9067C15.0984 21.0807 14.8946 21.2193 14.6699 21.3145C14.4451 21.4097 14.2038 21.4598 13.9597 21.4617C13.7156 21.4637 13.4736 21.4176 13.2473 21.326C13.021 21.2344 12.815 21.0992 12.641 20.928C12.2897 20.5822 12.09 20.111 12.086 19.6181C12.082 19.1251 12.274 18.6508 12.6198 18.2994C12.791 18.1254 12.9948 17.9868 13.2195 17.8916C13.4443 17.7964 13.6856 17.7463 13.9297 17.7444C14.1738 17.7424 14.4158 17.7885 14.6421 17.8801C14.8684 17.9717 15.0744 18.1069 15.2484 18.2781C15.4224 18.4493 15.5609 18.6531 15.6562 18.8779C15.7514 19.1026 15.8014 19.3439 15.8034 19.588C15.8054 19.8321 15.7592 20.0742 15.6677 20.3005C15.5761 20.5267 15.4408 20.7327 15.2696 20.9067Z" fill="#3F3F3F"/>
<path d="M23.1766 20.8782C23.9007 20.8523 24.5937 20.5773 25.1385 20.0995C25.6833 19.6217 26.0464 18.9705 26.1665 18.2559C26.2866 17.5414 26.1564 16.8072 25.7978 16.1776C25.4392 15.5479 24.8742 15.0614 24.1984 14.8002C23.5225 14.5389 22.7771 14.519 22.0883 14.7438C21.3994 14.9686 20.8093 15.4244 20.4176 16.034C20.026 16.6436 19.8568 17.3698 19.9386 18.0897C20.0204 18.8097 20.3483 19.4793 20.8668 19.9855C21.4901 20.574 22.3195 20.8946 23.1766 20.8782ZM21.8871 16.2587C22.2347 15.916 22.7026 15.7227 23.1907 15.7202C23.6832 15.722 24.1557 15.9151 24.5086 16.2587C24.8376 16.6113 25.0176 17.0774 25.0112 17.5596C25.0048 18.0418 24.8124 18.5029 24.4741 18.8466C24.1359 19.1904 23.6779 19.3902 23.1959 19.4044C22.7138 19.4185 22.2449 19.246 21.8871 18.9227C21.7135 18.7534 21.5762 18.5504 21.4837 18.3263C21.3911 18.1022 21.3451 17.8615 21.3486 17.619C21.3415 17.3677 21.3856 17.1174 21.4782 16.8836C21.5707 16.6497 21.7099 16.4372 21.8871 16.2587Z" fill="#3F3F3F"/>
</svg>
