<svg width="43" height="42" viewBox="0 0 43 42" fill="none" xmlns="http://www.w3.org/2000/svg">
<path d="M21.5 0L0 10.1257V16.6599H2.92488V42H4.71596V16.6599H38.2832V42H40.0751V16.6599H43V10.0445L21.5 0ZM41.2098 14.8763H1.79196V11.2551L21.5 1.97134L41.208 11.173V14.8763H41.2098Z" fill="#404040"/>
<path d="M20.5031 23.8535H12.3059V31.9013H20.5031V23.8535ZM18.7112 30.1187H14.0979V25.6371H18.7112V30.1187Z" fill="#404040"/>
<path d="M30.694 23.8535H22.4968V31.9013H30.694V23.8535ZM28.9021 30.1187H24.2879V25.6371H28.9021V30.1187Z" fill="#404040"/>
<path d="M7.30469 41.5117H15.5028V33.463H7.30469V41.5117ZM9.09665 35.2466H13.7108V39.7282H9.09665V35.2466Z" fill="#404040"/>
<path d="M17.4009 41.5117H25.5981V33.463H17.4009V41.5117ZM19.1928 35.2466H23.807V39.7282H19.1928V35.2466Z" fill="#404040"/>
<path d="M27.4971 41.5117H35.6943V33.463H27.4971V41.5117ZM29.289 35.2466H33.9032V39.7282H29.289V35.2466Z" fill="#404040"/>
<path d="M12.198 11.0822H7.92871V12.8657H12.198V11.0822Z" fill="#404040"/>
<path d="M23.6343 11.0822H19.365V12.8657H23.6343V11.0822Z" fill="#404040"/>
<path d="M35.0706 11.0822H30.8013V12.8657H35.0706V11.0822Z" fill="#404040"/>
</svg>
