<svg width="64" height="30" viewBox="0 0 64 30" fill="none" xmlns="http://www.w3.org/2000/svg">
<path d="M58.648 5.66603C58.5205 5.4835 58.351 5.33424 58.1538 5.2308C57.9566 5.12735 57.7375 5.07274 57.5148 5.07156H48.8764V1.39329C48.874 1.02452 48.7264 0.671541 48.4656 0.410775C48.2049 0.150008 47.8519 0.00243421 47.4831 0H16.1806C15.8119 0.00243421 15.4589 0.150008 15.1981 0.410775C14.9374 0.671541 14.7898 1.02452 14.7874 1.39329V23.9088C14.7898 24.2776 14.9374 24.6305 15.1981 24.8913C15.4589 25.1521 15.8119 25.2996 16.1806 25.3021H20.119C20.4762 26.5692 21.2375 27.6849 22.2871 28.4795C23.3367 29.2741 24.6172 29.7041 25.9336 29.7041C27.2501 29.7041 28.5306 29.2741 29.5802 28.4795C30.6298 27.6849 31.3911 26.5692 31.7483 25.3021H47.1859C47.5431 26.5692 48.3044 27.6849 49.354 28.4795C50.4036 29.2741 51.6841 29.7041 53.0005 29.7041C54.317 29.7041 55.5975 29.2741 56.6471 28.4795C57.6967 27.6849 58.458 26.5692 58.8152 25.3021H61.6947C62.0634 25.2996 62.4164 25.1521 62.6772 24.8913C62.9379 24.6305 63.0855 24.2776 63.0879 23.9088V12.4467C63.0901 12.1593 62.9988 11.8789 62.8279 11.6479L58.648 5.66603ZM60.3199 12.8554H54.078V7.87671H56.8089L60.3199 12.8554ZM17.5739 2.80515H46.0899V22.5341H31.8783C31.6159 21.1496 30.8783 19.9001 29.7931 19.0012C28.7078 18.1024 27.3428 17.6105 25.9336 17.6105C24.5245 17.6105 23.1595 18.1024 22.0742 19.0012C20.9889 19.9001 20.2514 21.1496 19.989 22.5341H17.5739V2.80515ZM25.9336 26.9183C25.287 26.9183 24.6548 26.7265 24.1172 26.3673C23.5795 26.008 23.1604 25.4974 22.9129 24.8999C22.6655 24.3025 22.6007 23.6451 22.7269 23.0109C22.853 22.3766 23.1644 21.794 23.6217 21.3368C24.079 20.8795 24.6615 20.5681 25.2958 20.442C25.93 20.3158 26.5874 20.3806 27.1849 20.628C27.7823 20.8755 28.2929 21.2946 28.6522 21.8322C29.0115 22.3699 29.2032 23.002 29.2032 23.6487C29.2017 24.5154 28.8568 25.3462 28.244 25.959C27.6311 26.5719 26.8003 26.9168 25.9336 26.9183ZM53.0191 26.9183C52.3725 26.9183 51.7403 26.7265 51.2026 26.3673C50.665 26.008 50.2459 25.4974 49.9984 24.8999C49.751 24.3025 49.6862 23.6451 49.8124 23.0109C49.9385 22.3766 50.2499 21.794 50.7072 21.3368C51.1644 20.8795 51.747 20.5681 52.3813 20.442C53.0155 20.3158 53.6729 20.3806 54.2703 20.628C54.8678 20.8755 55.3784 21.2946 55.7377 21.8322C56.0969 22.3699 56.2887 23.002 56.2887 23.6487C56.2872 24.5154 55.9423 25.3462 55.3294 25.959C54.7166 26.5719 53.8858 26.9168 53.0191 26.9183ZM58.9638 22.5341C58.7633 21.4678 58.2792 20.4752 57.5624 19.6606C56.8457 18.8461 55.9227 18.2397 54.8906 17.9052C53.8585 17.5706 52.7553 17.5203 51.697 17.7595C50.6387 17.9987 49.6643 18.5186 48.8764 19.2645V7.87671H51.2729V14.2487C51.2753 14.6174 51.4229 14.9704 51.6836 15.2312C51.9444 15.492 52.2974 15.6395 52.6662 15.642H60.3385V22.5341H58.9638Z" fill="#404040"/>
<path d="M1.39329 2.80513H11.3321C11.7016 2.80513 12.056 2.65833 12.3173 2.39704C12.5786 2.13575 12.7253 1.78136 12.7253 1.41184C12.7253 1.04232 12.5786 0.687928 12.3173 0.426636C12.056 0.165344 11.7016 0.0185547 11.3321 0.0185547H1.39329C1.02376 0.0185547 0.669376 0.165344 0.408084 0.426636C0.146793 0.687928 0 1.04232 0 1.41184C0 1.78136 0.146793 2.13575 0.408084 2.39704C0.669376 2.65833 1.02376 2.80513 1.39329 2.80513Z" fill="#404040"/>
<path d="M11.332 5.09009H3.6782C3.30868 5.09009 2.95429 5.23688 2.693 5.49817C2.4317 5.75946 2.28491 6.11385 2.28491 6.48337C2.28491 6.8529 2.4317 7.20729 2.693 7.46858C2.95429 7.72987 3.30868 7.87666 3.6782 7.87666H11.332C11.7015 7.87666 12.0559 7.72987 12.3172 7.46858C12.5785 7.20729 12.7253 6.8529 12.7253 6.48337C12.7253 6.11385 12.5785 5.75946 12.3172 5.49817C12.0559 5.23688 11.7015 5.09009 11.332 5.09009Z" fill="#404040"/>
<path d="M11.332 10.1617H6.50193C6.13241 10.1617 5.77802 10.3085 5.51673 10.5698C5.25544 10.8311 5.10864 11.1855 5.10864 11.555C5.10864 11.9246 5.25544 12.2789 5.51673 12.5402C5.77802 12.8015 6.13241 12.9483 6.50193 12.9483H11.332C11.7015 12.9483 12.0559 12.8015 12.3172 12.5402C12.5785 12.2789 12.7253 11.9246 12.7253 11.555C12.7253 11.1855 12.5785 10.8311 12.3172 10.5698C12.0559 10.3085 11.7015 10.1617 11.332 10.1617Z" fill="#404040"/>
<path d="M11.3321 15.2333H9.66013C9.29061 15.2333 8.93622 15.3801 8.67493 15.6414C8.41364 15.9026 8.26685 16.257 8.26685 16.6266C8.26685 16.9961 8.41364 17.3505 8.67493 17.6118C8.93622 17.8731 9.29061 18.0198 9.66013 18.0198H11.3321C11.7016 18.0198 12.056 17.8731 12.3173 17.6118C12.5786 17.3505 12.7254 16.9961 12.7254 16.6266C12.7254 16.257 12.5786 15.9026 12.3173 15.6414C12.056 15.3801 11.7016 15.2333 11.3321 15.2333Z" fill="#404040"/>
</svg>
