<svg width="39" height="39" viewBox="0 0 39 39" fill="none" xmlns="http://www.w3.org/2000/svg">
<path d="M19.5 2.4375C28.9072 2.4375 36.5625 10.0928 36.5625 19.5C36.5625 28.9072 28.9072 36.5625 19.5 36.5625C10.0928 36.5625 2.4375 28.9072 2.4375 19.5C2.4375 10.0928 10.0928 2.4375 19.5 2.4375ZM19.5 0C8.73158 0 0 8.73082 0 19.5C0 30.2692 8.73158 39 19.5 39C30.2684 39 39 30.2684 39 19.5C39 8.73158 30.2692 0 19.5 0ZM30.3713 26.0196L30.2616 25.6867C30.0049 24.9204 29.1571 24.1206 28.3763 23.9058L25.494 23.1182C24.7132 22.9064 23.5988 23.1943 23.0252 23.7656L21.9832 24.8084C20.1186 24.3023 18.419 23.3172 17.053 21.9509C15.6871 20.5845 14.7024 18.8845 14.1969 17.0198L15.2389 15.9771C15.8102 15.4058 16.0959 14.2914 15.8841 13.5083L15.0988 10.626C14.887 9.84521 14.0827 8.99742 13.3156 8.74072L12.9873 8.63103C12.2187 8.37434 11.1211 8.63104 10.5498 9.20689L8.98828 10.7684C8.70949 11.0449 8.53125 11.8348 8.53125 11.8402C8.50266 14.2908 8.96355 16.7226 9.88692 18.9928C10.8103 21.2631 12.1776 23.3261 13.9086 25.0611C15.6396 26.7961 17.6995 28.1681 19.9677 29.0967C22.2358 30.0253 24.6665 30.4917 27.1172 30.4688C27.1431 30.4688 27.9596 30.2951 28.2384 30.0163L29.8 28.4548C30.369 27.8835 30.6257 26.7866 30.3713 26.0196Z" fill="#404040"/>
</svg>
