<svg width="233" height="207" viewBox="0 0 233 207" fill="none" xmlns="http://www.w3.org/2000/svg">
<g clip-path="url(#clip0_12_1187)">
<path d="M125.072 20.7898C125.148 21.5325 125.223 22.2701 125.313 23.1182C127.024 23.5146 128.774 23.2737 130.505 23.3038C132.677 23.349 134.859 23.2235 137.026 23.339C139.664 23.4845 142.007 23.1232 144.249 21.4321C146.637 19.6306 149.672 19.4751 152.591 19.3295C153.92 19.2643 155.255 19.3295 156.885 19.3295C154.588 15.8169 153.619 12.2491 154.793 8.28981C155.519 5.87475 157.01 3.76129 159.042 2.26813C163.115 -0.858117 169.425 -0.742705 173.398 2.53911C178.168 6.46825 178.82 11.7171 175.435 19.2392C177.847 19.4951 180.26 19.2392 182.668 19.6407C185.076 20.0421 187.228 20.7446 189.063 22.2149C190.116 23.0305 191.432 23.4289 192.76 23.3339C204.879 23.3139 216.998 23.3139 229.117 23.3339C232.428 23.3339 233 23.916 233 27.2832V202.127C233 205.58 232.574 205.996 229.102 205.996C214.305 205.996 199.507 206.227 184.719 205.911C176.192 205.73 167.795 207.291 159.298 206.915C158.051 206.902 156.807 206.796 155.576 206.599C154.882 206.391 154.156 206.313 153.434 206.368C147.816 207.161 142.116 207.195 136.489 206.468C135.489 206.375 134.484 206.34 133.48 206.363C125.072 206.363 116.662 206.363 108.248 206.363C107.082 206.382 105.915 206.302 104.762 206.122C103.449 205.951 102.117 206.01 100.824 206.297C95.5498 207.167 90.1723 207.214 84.8831 206.438C81.5675 205.986 79.235 202.388 79.5309 198.816C79.8068 195.479 82.7663 192.628 86.3729 192.473C89.6284 192.337 92.8939 192.433 96.1544 192.423H99.0136V81.1972C95.3167 79.9979 92.1666 77.8652 89.0967 75.582C88.0935 74.6637 88.3844 73.4343 88.3643 72.3052C88.249 65.9072 88.249 59.5091 88.3242 53.1111C88.3744 48.7404 87.4313 44.8715 83.8097 42.0312C83.5276 41.8514 83.295 41.6038 83.1329 41.3111C82.9708 41.0184 82.8845 40.6898 82.8817 40.3552C86.2319 41.0982 89.2023 43.024 91.2486 45.7797C93.6614 49.0214 95.9738 52.3434 99.1741 55.6151V53.1061C99.1741 44.4985 99.1741 35.8925 99.1741 27.2882C99.1741 23.9361 99.7711 23.349 103.072 23.3289C105.404 23.3289 107.742 23.2788 110.094 23.2537C111.549 23.3741 111.183 24.734 111.649 25.5319C111.81 27.3133 112.301 29.1449 111.017 30.851C109.392 29.9528 110.39 27.9255 109.232 26.9269C108.354 27.0674 108.429 27.7699 108.409 28.2918C108.309 30.9614 108.354 33.641 108.379 36.3207C108.379 37.8863 109.176 38.5788 110.711 38.5889C114.554 38.624 118.396 38.5889 122.248 38.5889C124.089 38.5889 124.395 37.53 124.461 35.9945C124.631 32.0553 123.678 28.1714 123.959 24.2322C124.029 23.1533 123.864 22.0493 124.38 21.0307C124.408 20.9678 124.449 20.9113 124.499 20.8648C124.55 20.8182 124.609 20.7825 124.674 20.7599C124.739 20.7373 124.808 20.7283 124.876 20.7335C124.945 20.7386 125.012 20.7578 125.072 20.7898Z" fill="#020608"/>
<path d="M36.2819 114.171C34.1372 113.537 32.0415 112.747 30.0117 111.807C33.523 105.008 36.9641 98.2938 40.4202 91.5847C41.4535 90.556 42.5069 91.3639 43.6054 91.404C42.0655 91.0578 40.4553 90.9273 39.0909 90.009C36.2317 88.343 33.0715 87.249 30.408 85.2017C23.4656 79.9177 21.0227 73.0781 23.9973 64.994C27.3364 55.9556 33.166 48.0481 40.8114 42.1869C42.9781 40.463 45.6438 39.4861 48.4109 39.4019C51.0544 39.5976 53.7381 39.5323 55.3332 42.3625C57.1791 45.6393 57.9566 48.9763 56.7477 52.6445C55.9534 54.9309 54.7273 57.0434 53.1361 58.8669C50.4994 61.8876 48.0343 65.0539 45.7523 68.351C48.3507 70.0221 51.1046 70.3081 53.7782 70.7346C55.4106 71.0641 57.0657 71.2688 58.7291 71.3468C60.6954 71.3468 61.4529 73.354 63.048 74.0114C63.0754 74.1418 63.0665 74.2772 63.0223 74.4028C62.9781 74.5285 62.9002 74.6395 62.7972 74.724C61.2322 75.4114 60.7055 76.6459 60.6152 78.3119C60.4296 81.6389 60.2289 84.9759 59.7424 88.2778C59.4514 90.2248 60.244 91.0628 62.11 91.2535C64.1165 91.4542 66.1229 91.0277 68.0842 91.6348C68.307 91.7354 68.4853 91.9138 68.5859 92.1366C68.3049 93.5066 66.8452 92.7288 66.1179 93.5417C66.2182 94.5453 67.1211 94.8263 67.9137 95.1926C72.7643 95.5188 77.6099 95.1926 82.4605 95.3633C83.5089 95.3984 84.8833 94.8614 85.4451 96.417L82.6862 96.6127C79.8521 100.246 76.8073 103.638 72.3379 105.304C68.4454 106.739 64.4826 107.898 59.9581 107.196C58.7391 109.053 58.5435 111.421 57.8362 113.589C57.3748 114.994 57.3748 116.6 56.0806 117.638L55.1325 121.046C53.728 121.186 52.6796 120.208 51.4356 119.932C50.6983 119.771 49.9308 118.993 49.2887 120.092C49.1998 120.164 49.0892 120.202 48.9752 120.202C48.8613 120.202 48.7507 120.164 48.6617 120.092C46.6854 118.256 44.0318 117.894 41.6742 116.891C40.671 116.464 39.6427 116.128 38.6645 115.661C38.3686 115.526 38.0776 115.375 37.7767 115.245C37.5759 115.174 37.3799 115.09 37.1898 114.994C36.7985 114.843 36.6531 114.387 36.2819 114.171Z" fill="#020608"/>
<path d="M77.4945 26.2646C76.3558 27.7951 76.4912 29.5464 76.6417 31.2826C76.9026 34.0074 75.8341 36.5967 75.9043 39.3115C76.1111 39.4482 76.2625 39.654 76.3315 39.8921C76.4004 40.1302 76.3824 40.3852 76.2806 40.6112C76.2303 40.7157 76.155 40.8061 76.0614 40.8744C75.9677 40.9427 75.8586 40.9867 75.7438 41.0026C75.6658 41.0029 75.59 40.976 75.5296 40.9266C75.4692 40.8772 75.4279 40.8082 75.4128 40.7316C75.403 40.6832 75.3879 40.6361 75.3676 40.5911C74.6553 42.9195 72.7341 43.8127 70.5722 44.455C70.9785 45.9604 72.8244 46.2615 73.015 47.772C72.3328 48.7756 71.2293 47.7418 70.3966 48.3641C70.0856 48.6895 69.8579 49.0854 69.733 49.5179C69.6081 49.9505 69.5897 50.4068 69.6793 50.848C70.2712 55.6503 70.3916 60.5028 71.1842 65.28C71.4099 66.6198 71.9466 67.6585 73.5668 67.5481C73.8327 67.9098 74.0006 68.3342 74.0542 68.78C74.1079 69.2257 74.0454 69.6778 73.8728 70.0923C73.7709 70.3024 73.6084 70.4772 73.4063 70.5941C72.684 70.4887 71.9767 70.4737 71.4299 71.0959C71.3239 71.1133 71.2153 71.1089 71.111 71.083C71.0067 71.0572 70.9087 71.0103 70.823 70.9454C70.1057 70.3532 70.8631 69.0686 69.7445 68.6822C69.3031 69.0937 69.0372 69.6858 68.4052 69.8815C65.8319 70.1776 65.7416 72.3203 65.225 74.1519C64.5578 74.8845 64.0963 74.4329 63.6499 73.8859C62.9527 70.2629 64.1164 66.7753 64.4826 63.2326C64.9039 59.1579 65.4858 55.0983 66.0978 51.0538C66.3887 49.1971 65.2952 48.0881 64.4525 46.8938C64.2468 45.4486 65.7166 44.8866 65.8971 43.5467C64.9993 42.1768 63.8907 40.8119 62.8573 39.4219C60.9261 36.8878 60.8509 35.3071 62.4661 32.5522C63.2988 31.8045 62.8523 30.8561 62.8925 30.0181C58.8043 26.5556 58.097 22.5411 60.4797 18.0048C57.8512 15.6463 57.2995 14.0456 58.3579 11.8226C59.1103 10.2469 61.0415 9.09777 62.5815 9.31354C64.9491 9.63972 66.0928 10.9996 66.7047 14.3316C69.2128 14.2563 71.4751 15.4306 73.948 15.7467C75.8291 15.9926 77.2035 17.8493 77.5898 19.711C77.8556 20.9655 77.3691 21.7182 76.4361 22.3454C74.9312 22.3003 73.4866 20.9504 71.9215 22.1146C71.4752 22.2513 71.0045 22.289 70.5421 22.225C69.3081 22.1748 68.1193 20.8701 66.8402 22.0945C66.474 22.8623 65.0494 22.8774 65.4056 24.157C65.7015 25.291 65.4958 26.4853 65.847 27.8503C66.7649 26.2344 68.0741 25.9936 69.574 26.2846C70.31 26.5152 71.0966 26.5309 71.8413 26.3298C72.172 26.2672 72.5079 26.2369 72.8445 26.2395C73.062 26.2447 73.2786 26.2699 73.4916 26.3147C73.6841 26.3653 73.8707 26.4359 74.0484 26.5255C75.0767 26.2094 74.9463 24.5183 76.3307 24.6136C76.9979 24.8645 76.8323 25.6774 77.2888 26.0538C77.3691 26.1291 77.4293 26.1993 77.4945 26.2646Z" fill="#020608"/>
<path d="M62.4811 32.5522C62.5157 33.3014 62.3891 34.0492 62.1099 34.7451C61.9006 35.2549 61.8367 35.8127 61.9253 36.3566C62.0138 36.9005 62.2514 37.4092 62.6115 37.8262C64.2919 39.6578 65.1196 42.1869 67.5474 43.5117L64.628 46.5677C66.9304 47.7319 67.101 49.5233 66.7448 51.8718C65.6312 59.1981 64.7936 66.5697 63.8505 73.9211C63.803 73.9903 63.7416 74.0488 63.6701 74.0928C63.5987 74.1368 63.5189 74.1654 63.4357 74.1768C63.3526 74.1881 63.268 74.1819 63.1874 74.1587C63.1068 74.1354 63.032 74.0955 62.9677 74.0416L60.8759 73.8007C60.2539 73.3892 60.575 72.7569 60.1436 72.21C54.9669 71.5325 49.5395 71.2415 44.5283 68.7877C47.0866 65.1445 49.8856 61.8376 52.6495 58.4956C55.3181 55.259 57.2392 51.7764 56.557 47.3103C55.8247 42.5532 53.8634 40.4507 49.1231 39.698C48.8848 39.6311 48.6569 39.5315 48.4459 39.4019H56.3815C57.1339 40.4055 57.0486 41.7704 57.8863 42.7289C58.2625 43.2708 58.5886 43.8479 58.9798 44.3798C59.6215 45.3903 60.4778 46.2469 61.4879 46.8888C61.7387 47.1598 62.1952 47.2 62.3306 47.6767C62.2504 47.1749 61.7738 47.1749 61.523 46.9089C60.4857 46.2325 59.6008 45.3472 58.9247 44.3096C58.5384 43.7325 58.1722 43.1353 57.7509 42.5833C57.2493 41.5045 56.6022 40.4707 56.843 39.1962C56.9483 35.4677 59.3209 33.6763 62.4811 32.5522Z" fill="#DF8644"/>
<path d="M56.1057 117.654C57.1089 113.89 58.1573 110.126 59.1957 106.318C60.6253 105.941 61.7037 106.433 62.7471 107.382C63.8858 106.323 65.4207 106.378 66.8453 106.157C72.5938 105.359 77.2187 102.74 80.6547 98.0279C81.1564 97.3404 81.4523 96.2515 82.7114 96.6278L80.9858 121.532C78.558 121.563 76.3709 120.584 74.0685 120.72C73.8366 120.853 73.5777 120.931 73.3111 120.95C69.3885 120.644 65.5461 119.801 61.6736 119.164C61.172 119.099 60.856 118.632 60.3494 118.592C59.0201 117.899 57.5153 118.075 56.1057 117.654Z" fill="#DF8644"/>
<path d="M75.9345 40.7969L75.9044 39.2915C77.8005 39.437 79.7568 38.9954 81.5827 39.8736C81.9757 40.0591 82.3834 40.2119 82.8016 40.3302H82.8869C87.5017 43.3411 89.2624 47.5713 89.0969 53.041C88.8711 60.538 89.0969 68.05 89.0969 75.557C89.0969 79.456 89.0969 83.3601 89.0266 87.2591C89.0266 88.1373 89.3176 89.0907 88.6153 89.8685C87.6121 89.0456 87.8579 87.8964 87.8528 86.8577C87.8177 82.1859 87.8528 77.5141 87.8528 72.8422C87.9431 71.1461 87.2459 70.002 85.5404 69.5604C84.8222 69.361 84.1917 68.9263 83.7496 68.326C83.4437 68.055 82.9872 67.5482 82.7113 67.9195C81.2065 69.9619 79.8471 69.1339 78.6984 67.7589C77.64 67.8443 77.5447 68.9231 76.6618 69.1189C75.6335 69.2443 75.3526 68.04 74.54 67.6887C74.3343 67.6435 74.1337 67.5833 73.933 67.5231L73.6271 67.4529C72.5536 67.3073 73.4966 69.1088 71.9868 68.6973C70.9384 67.4428 70.4819 65.7467 70.3515 63.8298C70.0154 59.6197 69.4887 55.4195 69.0273 51.2194C68.8417 49.5584 68.9671 48.048 70.6625 47.1347C71.4852 46.6329 72.1072 48.8559 73.0502 47.3304C73.0502 47.2451 73.0853 47.1648 73.1004 47.0795C73.1758 46.9236 73.2613 46.7728 73.3562 46.6279L73.4866 46.3971C73.607 46.1412 73.7123 45.8953 73.8177 45.6243C73.923 45.3533 73.9832 45.2429 74.0735 45.0572C74.8159 43.7024 74.9814 42.0765 75.9345 40.7969Z" fill="#DF8644"/>
<path d="M31.4011 167.919C30.6186 171.552 28.9733 174.889 27.7443 178.367C25.5121 184.675 23.0341 190.912 20.6465 197.144C20.4955 197.437 20.3139 197.713 20.1047 197.967C18.8406 197.967 17.8876 197.3 16.7489 196.713C16.9195 195.483 17.075 194.149 15.6102 193.536C13.985 192.849 12.9266 193.742 12.1491 195.197L0 190.631C1.50484 186.536 3.63169 185.232 9.73132 185.899C10.5138 185.036 10.263 183.611 11.3315 182.888C11.3779 182.853 11.4315 182.829 11.4883 182.817C11.5451 182.806 11.6038 182.807 11.6603 182.82C11.7167 182.833 11.7696 182.859 11.815 182.895C11.8605 182.931 11.8975 182.977 11.9234 183.029C11.5773 186.827 11.0205 187.304 7.35367 187.083C6.46581 187.028 5.54284 186.857 4.48443 187.555C9.43537 189.527 14.2659 191.288 19.0965 193.075C20.0696 193.436 20.6966 192.974 21.0327 192.041C21.424 190.937 21.8955 189.863 22.2918 188.764C24.6142 182.326 27.1925 175.978 29.515 169.234C26.5053 167.729 23.4053 166.755 20.3856 165.656C20.2293 165.588 20.0606 165.554 19.8902 165.554C19.7198 165.555 19.5514 165.591 19.3957 165.661C19.2401 165.73 19.1005 165.831 18.986 165.957C18.8714 166.083 18.7843 166.232 18.7303 166.394C17.367 169.537 16.1846 172.755 15.1889 176.033C15.0183 176.616 15.3594 177.178 15.54 177.73C15.851 178.708 16.1119 179.687 15.2039 180.515C14.9929 180.608 14.7594 180.637 14.5318 180.6C13.9549 180.344 14.1305 178.829 12.9116 179.626C12.8028 179.632 12.6941 179.613 12.5934 179.572C12.4928 179.53 12.4027 179.466 12.3297 179.386C14.2258 173.986 16.167 168.602 18.3842 163.328C18.5892 163.195 18.834 163.138 19.0764 163.167C22.2215 164.171 25.2663 165.425 28.3513 166.584C29.2127 166.863 30.106 167.032 31.0098 167.086C31.376 167.262 31.682 167.453 31.4011 167.919Z" fill="#333332"/>
<path d="M18.8908 163.328H18.3892C22.4489 152.405 26.507 141.479 30.5633 130.55C32.3541 125.732 34.1248 120.91 35.9457 116.103C36.2531 115.512 36.3722 114.841 36.2868 114.181L37.5057 114.728C37.1746 118.185 35.4992 121.221 34.3405 124.393C29.826 136.582 25.3114 148.785 20.7066 160.934C20.3354 161.878 20.2752 163.122 18.8908 163.328Z" fill="#414140"/>
<path d="M31.401 167.919L30.9697 167.337C30.3677 166.389 30.9697 165.556 31.2807 164.743C36.5777 150.462 41.9651 136.21 47.2471 121.914C47.533 121.136 47.6483 120.027 48.9375 120.127C49.0554 120.074 49.1879 120.061 49.3137 120.092C46.7655 127.077 44.2474 134.068 41.6591 141.038C38.8049 148.71 35.8755 156.353 33.0012 164.02C32.5648 165.358 32.03 166.661 31.401 167.919V167.919Z" fill="#404140"/>
<path d="M61.0767 204.461C60.1487 202.755 58.6187 203.648 57.465 203.497C56.4618 203.999 56.6875 205.048 56.1659 205.645C55.0523 205.951 54.029 205.545 53.0308 205.535V196C54.2898 196.226 53.9186 197.31 54.1393 198.083C54.2196 201.711 54.2246 201.821 57.7861 201.701C62.6216 201.535 67.4171 202.78 72.2576 202.042C72.5055 201.924 72.769 201.841 73.0402 201.796C73.6772 202.564 74.7156 203.176 74.0434 204.446C73.8371 204.627 73.575 204.731 73.301 204.742C69.4687 204.963 65.6714 203.487 61.8191 204.511C61.7001 204.562 61.5708 204.583 61.4419 204.575C61.3129 204.566 61.1878 204.527 61.0767 204.461Z" fill="#1B1B1A"/>
<path d="M110.957 18.6471C111.885 17.6435 112.843 17.9396 113.967 18.6471C114.78 17.9948 115.703 17.1417 116.896 18.0299C117.398 18.4113 117.804 18.2356 118.226 17.9044C119.304 17.0514 120.232 17.6586 121.145 18.2356C121.421 18.6622 121.837 19.0084 121.928 19.5504C121.772 20.6794 122.108 21.939 121.075 22.8422C119.485 22.3404 120.498 20.544 119.369 19.6156C118.075 22.0444 119.695 24.9398 118.015 27.4488C115.973 25.1706 117.062 22.23 115.888 19.5755C114.614 22.225 116.194 25.0251 114.524 27.3535C112.773 26.2043 113.049 24.458 112.974 22.8372C112.909 21.4271 113.144 19.9217 111.469 19.1841C111.254 19.0536 111.077 18.8683 110.957 18.6471V18.6471Z" fill="#333333"/>
<path d="M68.049 176.962C67.6811 184.121 67.3183 191.284 66.9605 198.449C67.1711 198.69 67.141 198.891 66.8601 199.051C65.6914 198.906 65.7315 198.048 65.7766 197.19C65.832 196.114 65.7917 195.036 65.6562 193.968C65.7064 192.152 66.2482 190.345 65.8117 188.514C66.6645 184.865 66.0826 181.102 66.7347 177.434C66.7691 177.06 66.7287 176.684 66.6158 176.326C66.503 175.969 66.32 175.637 66.0776 175.351C65.4757 174.348 66.208 174.036 66.9354 173.73C67.1678 173.661 67.4102 173.63 67.6527 173.64C67.8278 173.684 67.9865 173.777 68.1101 173.909C68.2337 174.041 68.317 174.205 68.3499 174.383C68.39 174.45 68.4135 174.526 68.4188 174.605C68.424 174.683 68.4107 174.762 68.38 174.834C68.049 175.507 68.4001 176.29 68.049 176.962Z" fill="#232321"/>
<path d="M53.3417 190.812C53.442 184.474 53.8433 178.151 54.5105 171.849C54.6054 171.782 54.7183 171.747 54.834 171.747C54.9497 171.747 55.0626 171.782 55.1576 171.849C55.8347 172.897 57.46 172.39 58.0469 173.595C57.771 174.302 57.0436 174.378 56.5119 174.704C55.0773 176.841 55.2729 179.34 55.2478 181.674C55.2027 185.101 54.5958 188.478 54.6258 191.896C54.6635 192.271 54.6218 192.65 54.5034 193.008C54.385 193.366 54.1926 193.695 53.9386 193.973C52.4488 193.17 53.422 191.896 53.3417 190.812Z" fill="#272725"/>
<path d="M85.4701 96.4321C82.8366 95.8851 80.173 96.2263 77.5245 96.1661C74.7706 96.1009 72.0067 96.1661 69.2579 96.136C68.4704 96.136 67.5624 96.4572 66.9404 95.6342C67.8484 94.6306 69.0773 94.8413 70.211 94.8313C74.4546 94.7912 78.6983 94.7811 82.9369 94.8313C84.6976 94.8564 86.2275 94.5051 87.3963 93.1001C87.8979 92.809 88.244 93.0348 88.4647 93.5116C88.1587 95.1826 87.301 96.3217 85.4701 96.4321Z" fill="#525252"/>
<path d="M55.3381 161.777C55.4812 156.038 55.9973 150.313 56.8831 144.641C57.0687 144.681 57.2423 144.765 57.3903 144.884C57.5382 145.003 57.6565 145.155 57.7359 145.328C57.9047 145.812 57.9325 146.334 57.8161 146.834C57.6567 147.475 57.5991 148.137 57.6456 148.796C57.1439 153.086 57.5603 157.492 56.1407 161.677C56.0446 161.792 55.9083 161.867 55.7592 161.886C55.6102 161.904 55.4597 161.866 55.3381 161.777V161.777Z" fill="#2D2D2B"/>
<path d="M88.4647 93.4964L88.0183 92.9946C87.7603 92.7218 87.563 92.3974 87.4394 92.0428C87.3157 91.6882 87.2686 91.3114 87.301 90.9372C87.2257 85.2116 87.2057 79.486 87.301 73.7604C87.3107 73.2598 87.4324 72.7677 87.6571 72.3202C87.7207 72.1699 87.8387 72.0491 87.9876 71.9821C88.1364 71.9151 88.305 71.9068 88.4597 71.9589L88.6102 89.8835L88.4647 93.4964Z" fill="#040708"/>
<path d="M61.0767 204.461C61.2179 204.438 61.3618 204.438 61.503 204.461C65.546 204.797 69.5891 205.028 73.6321 204.461C73.7752 204.441 73.9204 204.441 74.0635 204.461C74.5651 204.812 74.4848 205.299 74.3092 205.931H61.5532C60.9663 205.464 61.1369 204.927 61.0767 204.461Z" fill="#262624"/>
<path d="M76.4109 24.6888C75.2522 25.4164 74.7706 26.5203 74.9462 28.2717C74.4947 27.5641 74.3242 27.268 74.1486 27.0121C73.9731 26.7562 73.9731 26.4401 73.8878 26.149C73.6871 25.321 74.1486 24.7741 74.6854 24.2622C74.802 24.17 74.8945 24.0508 74.9546 23.9147C75.0147 23.7787 75.0407 23.63 75.0303 23.4817C75.0199 23.3333 74.9735 23.1897 74.895 23.0634C74.8165 22.9371 74.7084 22.8318 74.58 22.7568C73.8778 22.255 73.0752 22.4457 72.3177 22.4457L71.9917 22.3503C71.9385 22.3021 71.8975 22.2419 71.8722 22.1747C71.8469 22.1075 71.838 22.0353 71.8462 21.9639C71.8462 21.8234 71.8863 21.7532 71.9164 21.7532C73.9731 20.5288 74.3693 20.579 76.431 22.3353C76.5104 22.4774 76.547 22.6395 76.5363 22.802C76.7331 23.1034 76.8552 23.4475 76.8925 23.8056C76.9007 23.9828 76.8602 24.1589 76.7753 24.3146C76.6904 24.4704 76.5643 24.5998 76.4109 24.6888V24.6888Z" fill="#A46341"/>
<path d="M55.338 161.777H55.8647C56.0975 161.948 56.2816 162.177 56.3986 162.441C56.5156 162.705 56.5616 162.995 56.5319 163.283C56.3212 165.651 56.2108 168.02 56.0654 170.388C56.0252 171.016 55.8748 171.723 55.017 171.839H54.5154C54.8264 168.497 54.6608 165.099 55.338 161.777Z" fill="#363635"/>
<path d="M73.4313 125.151L71.8813 135.688C71.3345 135.724 71.169 135.332 71.0034 134.931C70.7639 131.455 71.2631 127.968 72.4682 124.699C73.0049 124.393 73.2356 124.739 73.4313 125.151Z" fill="#484948"/>
<path d="M71.405 135.046L71.8815 135.673C71.3397 138.85 71.4451 142.112 70.5071 145.208C70.4492 145.251 70.3827 145.281 70.3121 145.296C70.2414 145.311 70.1684 145.311 70.0979 145.295C70.0274 145.28 69.9611 145.249 69.9036 145.205C69.8461 145.161 69.7987 145.106 69.7647 145.042C69.3283 141.906 70.0857 138.875 70.5622 135.819C70.6074 135.62 70.7122 135.439 70.8628 135.301C71.0134 135.163 71.2026 135.074 71.405 135.046V135.046Z" fill="#505050"/>
<path d="M69.91 151.761C69.7328 154.414 69.5656 157.072 69.4084 159.735C68.4052 159.675 68.5306 158.827 68.35 158.189C68.238 156.551 68.2817 154.906 68.4804 153.277C68.5931 152.748 68.8461 152.259 69.2128 151.862C69.2996 151.767 69.4165 151.705 69.5435 151.687C69.6706 151.669 69.8001 151.695 69.91 151.761V151.761Z" fill="#212120"/>
<path d="M111.063 25.3012C110.355 24.7994 111.063 23.6151 110.084 23.2387C110.4 21.7333 109.367 19.9318 110.957 18.6472C111.022 18.6596 111.082 18.691 111.13 18.7375C111.177 18.7839 111.209 18.8433 111.223 18.9082C112.136 21.0509 112.367 23.2036 111.063 25.3012Z" fill="#575757"/>
<path d="M58.0417 134.213C58.423 132.206 58.2574 130.118 58.9898 128.191C59.047 128.155 59.111 128.131 59.1777 128.121C59.2445 128.11 59.3128 128.113 59.3784 128.129C59.4439 128.146 59.5056 128.175 59.5595 128.216C59.6134 128.257 59.6585 128.308 59.6921 128.367C60.1413 130.503 59.8843 132.728 58.9597 134.705C58.4481 134.921 58.2073 134.64 58.0417 134.213Z" fill="#1E1E1D"/>
<path d="M66.9355 199.137L66.9707 198.449C68.7313 198.951 70.6124 199.192 72.062 200.487C72.4784 200.858 73.0151 201.139 73.0402 201.801L72.985 202.474C70.9384 201.42 68.8116 200.512 66.9355 199.137Z" fill="#3D3D3D"/>
<path d="M53.3417 190.812C53.7379 191.815 53.131 192.954 53.8433 193.893C54.8465 195.363 55.2929 196.778 53.4871 198.003C53.1109 197.39 53.5724 196.588 53.0407 195.995C52.8855 194.262 52.9869 192.515 53.3417 190.812V190.812Z" fill="#626262"/>
<path d="M14.4215 180.384C14.567 180.384 14.7074 180.384 14.8529 180.384C15.1288 182.928 13.0571 182.467 11.6676 182.893C11.5557 182.886 11.4435 182.886 11.3316 182.893C11.2363 181.594 11.7479 180.47 12.3348 179.381H12.8364C13.1725 180.038 13.4935 180.695 14.4215 180.384Z" fill="#2E2E2D"/>
<path d="M39.116 90.0089C40.9017 89.9537 42.3765 91.0376 44.6337 91.1881C42.858 91.8354 41.624 91.4892 40.4101 91.5845C39.9587 91.0627 39.2514 90.8017 39.116 90.0089Z" fill="#C67743"/>
<path d="M60.3493 118.592C60.595 118.311 60.8208 118.301 61.0214 118.642C61.829 120.494 61.3625 122.155 60.3192 123.77C60.1898 123.824 60.0486 123.844 59.9095 123.826C59.7705 123.808 59.6385 123.755 59.5266 123.67C59.7975 121.979 60.0734 120.283 60.3493 118.592Z" fill="#413E3A"/>
<path d="M57.3445 145.228L56.8831 144.641C56.9733 143.135 56.7627 141.63 57.4248 140.215C57.4818 140.17 57.5479 140.138 57.6184 140.121C57.6888 140.105 57.7621 140.103 57.8332 140.118C57.9042 140.132 57.9713 140.162 58.0298 140.204C58.0883 140.247 58.1369 140.302 58.1722 140.365C58.4803 141.176 58.566 142.054 58.4204 142.909C58.2749 143.764 57.9034 144.565 57.3445 145.228V145.228Z" fill="#1A1A1A"/>
<path d="M68.9219 165.28C69.0071 166.509 69.1677 167.739 68.5406 168.893C68.3439 168.854 68.1592 168.769 68.0014 168.645C67.8436 168.521 67.7173 168.362 67.6327 168.18C67.3117 166.996 67.0759 165.822 68.019 164.783C68.5156 164.592 68.7313 164.919 68.9219 165.28Z" fill="#696868"/>
<path d="M58.0418 134.213L58.4681 134.75C58.8978 135.316 59.1303 136.007 59.1303 136.717C59.1303 137.428 58.8978 138.119 58.4681 138.684C57.9665 138.97 57.7007 138.684 57.5452 138.223C57.7157 136.883 57.8813 135.548 58.0418 134.213Z" fill="#121212"/>
<path d="M73.4314 125.15L72.9298 124.523C72.0519 123.083 72.2576 121.788 73.4314 120.629L74.0534 120.719C73.8527 122.195 73.642 123.675 73.4314 125.15Z" fill="#3D3D3C"/>
<path d="M68.9167 158.219C69.1776 158.691 68.8866 159.339 69.3882 159.725C69.4635 160.453 69.5989 161.19 69.0221 161.802C68.9625 161.845 68.895 161.875 68.8235 161.891C68.7521 161.907 68.6781 161.909 68.6061 161.896C68.534 161.883 68.4654 161.855 68.4041 161.815C68.3429 161.775 68.2903 161.723 68.2496 161.662C67.8232 160.397 67.2514 159.093 68.9167 158.219Z" fill="#666666"/>
<path d="M59.5216 123.67H60.0232C60.8057 124.91 60.8459 126.109 59.8426 127.258C59.7124 127.319 59.5683 127.343 59.4254 127.329C59.2824 127.315 59.1459 127.263 59.03 127.178L59.5216 123.67Z" fill="#21211F"/>
<path d="M70.4266 147.717C70.5119 148.615 70.5871 149.513 70.0404 150.321C69.8516 150.286 69.6738 150.206 69.5213 150.09C69.3688 149.973 69.2459 149.822 69.1626 149.649C68.8817 148.755 68.7563 147.887 69.5789 147.18C70.0554 147.034 70.241 147.38 70.4266 147.717Z" fill="#646363"/>
<path d="M56.8328 39.1809L58.0216 42.6936L57.7909 42.9093C56.7877 41.9509 56.4817 40.7164 56.3713 39.3967L56.8328 39.1809Z" fill="#6F4736"/>
<path d="M125.073 20.7899H124.546C123.693 20.8201 123.217 20.0824 122.539 19.7863C122.345 19.663 122.175 19.5048 122.038 19.3196C122.011 19.2727 121.995 19.2205 121.99 19.1666C121.985 19.1127 121.992 19.0585 122.01 19.0075C122.028 18.9566 122.057 18.9101 122.095 18.8713C122.132 18.8325 122.178 18.8023 122.228 18.7827C123.808 18.5419 124.731 19.2544 125.073 20.7899Z" fill="#444545"/>
<path d="M68.36 174.383L67.5624 173.881C66.81 173.203 66.8902 172.511 67.5173 171.803C68.0189 171.608 68.2245 171.934 68.4151 172.305C68.5634 172.992 68.5445 173.705 68.36 174.383V174.383Z" fill="#605F5F"/>
<path d="M68.4152 172.31L67.9136 171.808C67.0759 170.639 67.0508 169.49 68.0089 168.376L68.5105 168.908C68.4905 170.029 68.4587 171.163 68.4152 172.31Z" fill="#121313"/>
<path d="M68.5206 161.827H69.0223C68.9922 162.982 68.957 164.141 68.9219 165.295L68.4203 164.793C67.6779 163.759 67.6579 162.781 68.5206 161.827Z" fill="#101111"/>
<path d="M76.5765 23.8256C76.5765 23.4894 76.5765 23.1582 76.5364 22.822C77.2437 23.3238 77.8356 23.8708 77.9008 24.7991C77.8318 24.873 77.7477 24.931 77.6542 24.9691C77.5606 25.0072 77.4599 25.0246 77.359 25.0199C76.7019 24.8945 76.8624 24.2221 76.5765 23.8256Z" fill="#424342"/>
<path d="M70.4268 147.717L69.9251 147.215C69.7962 147.086 69.6958 146.931 69.6306 146.76C69.5655 146.59 69.5369 146.408 69.5469 146.225C69.5568 146.043 69.605 145.865 69.6883 145.703C69.7716 145.54 69.8882 145.397 70.0305 145.283C70.1848 145.259 70.3408 145.247 70.497 145.248C70.4819 146.056 70.4518 146.884 70.4268 147.717Z" fill="#131414"/>
<path d="M68.049 176.962C67.9437 176.219 67.753 175.456 68.3801 174.834C68.4743 175.193 68.4936 175.566 68.4366 175.933C68.3797 176.299 68.2477 176.649 68.049 176.962V176.962Z" fill="#605F5F"/>
<path d="M57.5552 138.222L57.9565 138.724C58.0577 138.821 58.1364 138.94 58.1872 139.07C58.238 139.201 58.2596 139.341 58.2505 139.482C58.2415 139.622 58.2019 139.758 58.1347 139.881C58.0674 140.004 57.9741 140.111 57.8612 140.195H57.4248L57.5552 138.222Z" fill="#121212"/>
<path d="M69.5539 149.784L70.0555 150.321L69.9251 151.761H69.5388C69.3856 151.644 69.2625 151.491 69.1797 151.317C69.0968 151.142 69.0566 150.951 69.0623 150.758C69.0598 150.568 69.1032 150.38 69.1888 150.211C69.2744 150.041 69.3996 149.895 69.5539 149.784Z" fill="#151516"/>
<path d="M122.224 18.7775C122.183 18.923 122.138 19.0685 122.093 19.209C122.075 19.2479 122.05 19.2828 122.019 19.3116C121.987 19.3404 121.95 19.3625 121.91 19.3766C121.869 19.3906 121.827 19.3964 121.784 19.3935C121.741 19.3906 121.7 19.379 121.662 19.3596C121.16 19.1438 121.235 18.6571 121.125 18.2556L122.224 18.7775Z" fill="#FEFEFE"/>
<path d="M77.5295 24.769C77.6564 24.8064 77.7897 24.8167 77.9208 24.7992C77.9208 25.3311 78.302 25.9734 77.4944 26.2644L77.5295 26.2945C77.4236 26.1977 77.3391 26.0798 77.2813 25.9485C77.2235 25.8172 77.1936 25.6753 77.1936 25.5318C77.1936 25.3883 77.2235 25.2464 77.2813 25.115C77.3391 24.9837 77.4236 24.8659 77.5295 24.769V24.769Z" fill="#020608"/>
<path d="M59.0452 127.178C59.1787 127.188 59.3129 127.188 59.4465 127.178C59.515 127.245 59.5681 127.326 59.602 127.416C59.6358 127.505 59.6497 127.601 59.6425 127.697C59.6353 127.793 59.6073 127.886 59.5605 127.969C59.5136 128.053 59.449 128.125 59.3712 128.181H58.99L59.0452 127.178Z" fill="#151616"/>
<path d="M82.8014 40.3401C82.34 40.3401 81.8383 40.4355 81.5825 39.8835C81.8068 39.8022 82.0527 39.8035 82.2761 39.8872C82.4994 39.9709 82.6857 40.1315 82.8014 40.3401Z" fill="#5A453B"/>
<path d="M155.265 192.422C155.265 188.503 155.265 184.835 155.265 181.172C155.235 176.067 155.191 170.967 155.134 165.872C155.109 163.433 154.437 161.3 152.421 159.705C151.367 158.867 151.417 158.781 151.744 156.443L155.034 156.277C155.701 156.167 155.119 155.239 155.942 154.727H216.201C216.627 153.854 216.492 153.126 216.362 152.097H155.46V142.433H112.873V156.122C114.032 156.624 115.321 156.122 116.51 156.458C115.276 157.201 110.28 157.401 105.274 156.89V82.1205C109.36 81.9973 113.28 80.4718 116.375 77.7999C119.575 75.1052 121.456 71.4722 123.101 67.5932H216.05C216.803 66.7451 216.321 65.9272 216.552 64.9687H123.934C124.987 61.0816 125.726 57.1164 126.146 53.1111H216.025C216.753 52.1827 216.336 51.3798 216.497 50.3913H126.738C126.738 47.3804 126.768 44.5553 126.738 41.7452C126.738 40.867 127.4 39.7379 125.895 39.2361C125.549 39.1257 125.665 38.4834 125.665 38.0719C125.665 35.9092 125.665 33.7464 125.665 31.4531H136.605C136.976 33.3148 136.103 35.2167 136.63 37.2239H195.389C195.78 35.307 195.269 33.4804 195.449 31.4933H226.74V178.618C226.74 180.876 226.675 183.134 225.967 185.307C224.116 191.027 218.724 195.373 212.705 195.448C200.415 195.609 188.126 195.514 175.836 195.559C175.426 195.56 175.02 195.471 174.648 195.297C174.276 195.124 173.947 194.871 173.684 194.555C172.961 193.817 172.086 193.243 171.121 192.872C170.156 192.501 169.123 192.343 168.091 192.407C163.918 192.473 159.744 192.422 155.265 192.422Z" fill="white"/>
<path d="M121.802 171.859H154.081V192.739C149.25 192.117 144.375 192.588 139.534 192.403C138.454 192.34 137.373 192.523 136.373 192.938C135.373 193.352 134.48 193.988 133.76 194.796C133.416 195.202 132.981 195.521 132.49 195.728C132 195.934 131.467 196.022 130.936 195.985C127.927 195.92 124.947 195.985 121.807 195.985L121.802 171.859Z" fill="white"/>
<path d="M113.696 155.284V143.421H154.417V155.284H113.696Z" fill="white"/>
<path d="M100.283 197.571V177.293H120.543V197.571H100.283Z" fill="#FEFEFE"/>
<path d="M118.13 164.246H122.063V159.911C122.68 159.143 123.312 159.369 123.864 159.369C131.639 159.369 139.414 159.369 147.189 159.369C151.929 159.369 154.046 161.491 154.131 166.218C154.156 167.628 154.131 169.043 154.131 170.634H121.446C120.859 169.244 120.177 167.834 118.732 166.981C117.679 166.359 118.301 165.355 118.13 164.246Z" fill="#FEFEFE"/>
<path d="M122.951 19.2695L124.546 20.7749C124.596 26.8517 125.243 32.9186 124.997 39.2664C119.279 39.3818 113.656 39.3869 107.631 39.0406C107.631 36.4814 107.631 34.0226 107.631 31.5486C107.631 30.1285 107.661 28.7084 107.591 27.2883C107.541 26.1442 108.093 25.6022 109.196 25.3714C111.614 26.5055 110.019 28.9844 110.957 30.8612C111.414 28.8539 111.067 27.0826 111.062 25.3012C111.409 23.1785 110.641 21.0258 111.223 18.9082C113.495 18.7727 113.52 18.7827 113.606 20.8853C113.691 22.9878 113.671 25.1255 114.353 27.469C115.381 24.3176 113.571 21.1562 115.261 18.4013C116.766 18.5619 117.097 19.3196 117.157 20.4788C117.275 22.6892 117.521 24.8908 117.894 27.0725C118.396 25.251 118.125 23.4294 118.135 21.6179C118.135 20.9505 118.135 20.2881 118.135 19.6107C118.135 18.8429 118.547 18.301 119.324 18.2909C120.102 18.2809 120.478 18.7626 120.714 19.4852C121.08 20.5992 120.317 21.8236 121.095 22.8774C121.747 23.7757 121.21 24.8094 121.381 25.5169C122.223 23.6653 119.846 20.815 122.951 19.2695Z" fill="#FEFEFE"/>
<path d="M120.653 176.209H100.589C100.304 174.398 100.326 172.553 100.654 170.749C101.07 168.652 103.363 166.931 105.881 166.85C108.971 166.75 112.071 166.715 115.156 166.85C118.241 166.986 120.413 169.209 120.628 172.3C120.719 173.534 120.653 174.779 120.653 176.209Z" fill="#FEFEFE"/>
<path d="M145.017 193.501C147.575 193.602 149.872 193.25 152.19 193.873C155.36 194.726 157.146 197.159 156.78 200.527C156.514 202.95 153.92 205.65 151.157 205.545C149.15 205.454 147.144 205.545 145.017 205.545V193.501Z" fill="#FDFDFD"/>
<path d="M92.3774 205.495C90.2556 205.495 88.184 205.58 86.1173 205.495C84.6984 205.381 83.3656 204.769 82.3554 203.766C81.3452 202.762 80.7231 201.434 80.5995 200.015C80.3387 197.11 82.4605 194.56 85.4853 193.848C87.7225 193.346 89.9496 193.617 92.3674 193.517L92.3774 205.495Z" fill="#FEFEFE"/>
<path d="M162.879 205.54V193.496C166.009 193.687 169.24 192.739 172.154 194.811C173.167 195.46 173.936 196.426 174.34 197.558C174.745 198.69 174.763 199.925 174.391 201.069C173.624 203.778 171.758 205.359 169.13 205.515C168.798 205.515 168.462 205.515 168.126 205.515L162.879 205.54Z" fill="#FEFEFE"/>
<path d="M120.428 198.73C120.854 202.599 118.888 205.058 114.91 205.304C111.997 205.477 109.075 205.477 106.162 205.304C102.299 205.078 100.479 202.86 100.614 198.725L120.428 198.73Z" fill="#FBFBFB"/>
<path d="M100.152 163.002V158.36H120.979V163.002H100.152Z" fill="#FAFAFA"/>
<path d="M134.362 205.274H119.063C119.806 203.849 120.939 202.88 121.366 201.45C121.792 200.02 121.481 198.645 121.777 197.104H132.211C130.957 200.196 132.221 202.705 134.362 205.274Z" fill="#FBFBFB"/>
<path d="M150.545 156.538C150.675 157.331 150.815 157.984 150.429 158.681C148.819 158.249 147.169 158.375 145.518 158.375C138.591 158.375 131.664 158.375 124.732 158.375C123.728 158.375 122.349 159.007 121.867 157.296C121.827 157.146 121.11 157.181 120.709 157.125C119.826 157.015 118.888 157.381 118.015 156.854C119.47 156.192 145.564 155.951 150.545 156.538Z" fill="#EEEDEE"/>
<path d="M117.052 164.427C117.132 165.009 117.242 165.506 116.966 165.972C112.688 165.636 108.404 165.922 104.215 165.817C103.714 165.405 103.98 164.969 103.884 164.427H117.052Z" fill="#FEFEFE"/>
<path d="M105.168 38.8047V31.654C105.67 31.112 106.247 31.378 106.999 31.4533C107.157 33.9012 107.157 36.3568 106.999 38.8047C106.733 38.997 106.413 39.1005 106.084 39.1005C105.755 39.1005 105.435 38.997 105.168 38.8047V38.8047Z" fill="#F8F8F8"/>
<path d="M105.168 38.8047H107.019C106.969 39.728 105.981 39.0004 105.479 39.5474V44.2643H105.199C105.048 42.4479 105.038 40.6226 105.168 38.8047V38.8047Z" fill="#BCBCBC"/>
<path d="M105.209 44.2642C105.302 44.2492 105.397 44.2492 105.49 44.2642C105.691 45.3665 105.643 46.4999 105.349 47.5812C105.06 46.4992 105.012 45.3668 105.209 44.2642Z" fill="#686768"/>
<path d="M48.9375 120.142C47.4878 121.733 47.2119 123.866 46.4996 125.763C41.4835 139.066 36.6128 152.419 31.692 165.757C31.4913 166.299 31.1904 166.81 30.9696 167.337C30.7941 167.618 30.5884 167.97 30.2172 167.839C26.43 166.369 22.4623 165.33 18.8857 163.323C20.5962 160.091 21.5995 156.574 22.8987 153.176C27.6372 140.558 32.3558 127.929 37.0542 115.29C37.1345 115.069 37.3652 114.904 37.5207 114.713H37.7515C38.0173 114.713 38.1929 114.929 38.4186 115.024C41.4734 116.178 44.5183 117.372 47.5982 118.471C48.4409 118.788 49.093 119.084 48.9375 120.142Z" fill="white"/>
<path d="M88.0284 71.9539C88.0284 78.9792 88.0284 85.9961 88.0284 93.0047C87.4916 94.6355 86.5686 95.7646 84.6625 95.7445C78.7585 95.6793 72.8545 95.9051 66.9505 95.6191C66.4027 95.3858 65.9363 94.9953 65.6104 94.4969C65.2845 93.9985 65.1137 93.4145 65.1196 92.819C66.2232 92.3172 67.402 92.8491 68.5005 92.5631C70.5069 92.0613 72.5435 92.4778 74.57 92.3774C75.794 92.3172 77.0179 92.3523 78.1516 91.8053C79.5912 90.9573 78.1516 88.8246 79.8069 88.0719C79.9323 87.9063 80.0577 87.7407 80.168 87.5701C80.7148 86.5916 79.6062 85.7937 79.8671 84.8453C80.7499 83.2245 79.5611 81.4832 80.1881 79.7871C80.4088 79.1899 79.526 78.7483 78.7986 78.6881C77.1985 78.4322 75.4629 79.1398 73.9882 78.0107C73.5568 77.2781 74.0684 76.2594 73.2558 75.6422C71.3346 74.8092 69.2429 75.1404 67.2364 74.6636C66.4589 74.483 65.5711 74.6636 65.0193 73.8658C65.1898 70.4033 65.6814 69.771 68.4202 69.5001C69.3633 70.0872 69.6943 71.974 71.4299 70.9202C71.6958 70.4184 71.2343 69.49 72.3027 69.4599C73.0401 69.4599 72.9598 70.0119 73.0852 70.4635C73.2523 70.6903 73.4598 70.8842 73.6972 71.0356C73.8133 71.1084 73.9431 71.1566 74.0785 71.1774C74.214 71.1981 74.3522 71.1908 74.4848 71.156C75.5181 70.7747 75.4478 68.8126 77.0982 69.3395C77.8606 69.7158 77.7503 72.1145 79.4307 70.3431C80.8753 67.7638 81.693 69.8062 82.6611 70.7696C82.8129 70.8308 82.9791 70.8473 83.14 70.817C83.3008 70.7868 83.4497 70.7112 83.569 70.599C85.7861 68.5266 87.2157 68.9682 88.0284 71.9539Z" fill="#FEFEFE"/>
<path d="M68.4453 92.1114C65.3252 91.9458 62.1751 92.1616 58.8394 91.3487C59.341 85.7736 59.8426 80.2086 60.3041 74.7539C61.3073 74.2521 62.16 74.6536 62.9526 74.4177C65.872 74.4177 68.7763 74.6586 71.6907 74.7088C72.5736 74.7088 73.321 74.8593 73.7373 75.7124C73.9318 76.1172 73.9588 76.5824 73.8126 77.007C72.6488 78.6881 71.0687 78.3318 69.4686 77.9003V78.2164C72.709 78.116 75.9896 78.2164 79.23 78.2415C81.2365 79.9326 81.2365 80.058 79.1798 81.6939C76.8072 81.729 74.4396 81.6939 72.5585 81.6939C74.4195 81.7592 76.7771 81.6939 79.1347 81.724C79.4889 81.8436 79.8118 82.0408 80.08 82.3012C80.3482 82.5617 80.5548 82.8788 80.6847 83.2294C80.7098 84.2331 79.9724 84.6696 79.3303 85.1865C77.2085 85.1865 75.0867 85.2567 72.9648 85.1865C74.6904 85.2367 76.426 85.1112 78.1415 85.2618C79.7065 85.3972 81.2064 85.8238 80.469 88.0167L80.5191 87.9514C78.0713 89.9035 75.187 88.1823 72.9698 88.9551C74.2891 89.1909 76.0096 88.4532 77.7101 89.0153C79.2852 89.5171 79.4959 90.2698 78.4525 91.9057C75.1418 92.9043 71.8011 92.7537 68.4453 92.1114Z" fill="white"/>
<path d="M68.4454 92.1114C70.6755 91.9734 72.9119 91.9734 75.142 92.1114C76.3057 92.1465 77.4645 92.1917 78.5178 91.5645C78.7185 91.6949 78.9944 91.7551 79.0195 92.0663C77.7102 93.1702 76.1502 93.1401 74.5802 93.0398C72.5386 92.9143 70.4569 93.3609 68.4705 92.5831C68.4293 92.4294 68.4207 92.2687 68.4454 92.1114V92.1114Z" fill="#535353"/>
<path d="M73.5669 75.9283C72.99 74.8494 71.9567 75.015 70.9936 74.9698C68.31 74.8494 65.5962 75.1505 62.9678 74.4179C62.9678 74.2924 62.9678 74.167 62.9678 74.0415L63.8506 73.9211C64.2469 73.9461 64.6733 74.5784 65.0294 73.8608C67.2566 74.0315 69.4787 74.2171 71.7059 74.3626C72.6339 74.4229 73.5218 74.4981 74.0284 75.4365C74.2491 75.9634 73.9983 76.0286 73.5669 75.9283Z" fill="#212120"/>
<path d="M38.3986 115.034C38.2686 115.073 38.1287 115.063 38.0056 115.006C37.8825 114.948 37.7849 114.848 37.7314 114.723C37.7954 114.697 37.8641 114.684 37.9332 114.686C38.0023 114.687 38.0703 114.703 38.133 114.733C38.1956 114.762 38.2515 114.804 38.2972 114.855C38.343 114.907 38.3775 114.968 38.3986 115.034V115.034Z" fill="#414140"/>
<path d="M73.01 47.3354C71.0587 47.1246 70.537 45.1324 68.9971 44.179C71.8061 43.7826 74.0935 42.7639 75.2372 39.7932L75.5632 40.7968C75.508 42.6385 74.56 44.2041 73.9831 45.8701V45.8299C73.6671 46.111 73.7424 46.5927 73.4514 46.8837L73.4865 46.8386C73.3009 47.0192 73.1053 47.1848 72.9398 47.3805L73.01 47.3354Z" fill="#DC8444"/>
<path d="M76.9327 69.5052C76.431 69.435 76.0448 69.435 75.9294 70.1375C75.7589 71.1411 75.2121 71.9139 74.0383 71.939C73.89 71.7956 73.7209 71.6755 73.5367 71.5827C73.326 71.2264 72.9398 70.9404 73.0953 70.4436H73.4815C74.9613 69.726 74.2992 68.6421 73.9832 67.6134C73.9224 67.5218 73.8935 67.4127 73.9007 67.303C73.908 67.1933 73.951 67.089 74.0233 67.0062C75.7137 66.384 75.6937 68.1202 76.4561 68.888C77.5045 68.4966 77.1182 66.7854 78.598 66.7955C80.0778 66.8055 79.8972 68.3009 80.6045 68.9231C81.8786 68.5618 81.4472 66.5044 83.1125 66.8456C83.3965 66.8709 83.6646 66.9878 83.8763 67.1788C84.088 67.3698 84.2319 67.6245 84.2863 67.9044C84.1412 68.076 83.9468 68.1986 83.7295 68.2557C82.0742 68.6973 82.9219 69.9819 82.8266 70.9504C82.809 71.1795 82.7134 71.3956 82.5558 71.5626C81.2315 71.4522 81.8334 70.0572 81.2766 69.5303C79.9072 69.2342 80.2283 70.3031 80.0075 70.9153C79.9725 70.9571 79.9293 70.9914 79.8806 71.0159C79.8319 71.0405 79.7786 71.0548 79.7242 71.0581C79.6697 71.0614 79.6152 71.0536 79.5638 71.035C79.5125 71.0165 79.4655 70.9877 79.4257 70.9504C78.6983 70.3783 79.4909 69.0486 78.3171 68.7073C77.8004 68.9482 77.7202 69.8314 76.9327 69.5052Z" fill="#251A0E"/>
<path d="M66.504 21.8337C67.7982 20.0121 69.0924 21.2666 70.3865 21.8337C70.833 22.3355 71.5102 21.9892 72.0218 22.2552H71.9867C72.2556 22.4936 72.4329 22.8184 72.4883 23.1735C72.5302 23.5084 72.5132 23.8481 72.4382 24.1771C72.2886 24.4408 72.2042 24.7363 72.1919 25.0392C72.1797 25.3421 72.2401 25.6436 72.3679 25.9184C72.3711 26.0832 72.3408 26.2469 72.2787 26.3996C72.2166 26.5523 72.1241 26.6908 72.0068 26.8066C71.3346 27.3084 70.6524 27.6145 69.91 26.932C69.8268 26.825 69.7661 26.7023 69.7317 26.5712C69.6972 26.4401 69.6896 26.3034 69.7094 26.1693C69.8298 26.079 69.8498 25.9786 69.7495 25.8983C69.7215 25.9643 69.6797 26.0235 69.6269 26.072C69.5742 26.1205 69.5116 26.1571 69.4435 26.1793C67.2916 26.4854 67.0257 26.3349 67.3066 25.0001C67.9086 24.6037 68.8115 24.8295 69.2328 24.0617C69.3103 23.7756 69.3257 23.4761 69.278 23.1835C68.661 21.7935 67.3718 22.7972 66.479 22.3857C66.3435 22.2552 66.3034 22.1298 66.3536 22.0143C66.4037 21.8989 66.4539 21.8337 66.504 21.8337Z" fill="#DD8847"/>
<path d="M71.5002 30.8158C70.9534 30.9513 70.5672 30.3592 69.885 30.6653C67.7982 31.6137 66.9706 30.9764 67.116 28.7032C67.1345 28.4847 67.1996 28.2726 67.3069 28.0813C67.4142 27.89 67.5612 27.7239 67.738 27.5943C69.0422 27.3383 70.1558 28.4523 71.4851 28.3118C72.6789 29.1398 72.1472 29.9778 71.5002 30.8158Z" fill="#EFEEEE"/>
<path d="M69.9754 25.7678L69.9051 26.9269C66.765 26.5707 66.765 26.5707 66.2484 29.2302C64.2419 27.6847 65.1097 25.5921 64.9592 23.7606C65.6364 23.1835 66.0878 23.9462 66.6547 24.0416C67.1563 24.2222 67.6077 24.4731 67.4773 25.1405C67.1463 25.2961 66.9205 25.4516 67.382 25.7527C68.2498 26.3147 69.1276 25.4968 69.9904 25.7879L69.9754 25.7678Z" fill="#ECDBC8"/>
<path d="M72.0619 23.2236L72.0017 22.2199C72.9197 21.8185 73.8376 21.1912 74.7506 22.2199C75.6284 23.0228 75.3926 23.901 74.9211 24.7992C74.4195 25.1756 74.1436 25.6072 74.5299 26.2294C74.254 26.5154 73.8426 26.4703 73.5266 26.6308H73.025C72.6631 26.3748 72.3271 26.0841 72.0218 25.7627C71.48 25.2157 71.9516 24.7591 72.1372 24.2573C72.403 23.901 72.4983 23.5598 72.0619 23.2236Z" fill="#E5D3BE"/>
<path d="M63.1382 23.4092C63.421 24.7149 63.3848 26.0696 63.0329 27.3584C61.8741 27.0473 61.3224 26.43 61.3123 25.4214C61.2973 24.3174 61.7989 23.5597 63.1382 23.4092Z" fill="#C6C4C4"/>
<path d="M69.4033 67.9095C70.3163 67.0163 70.853 67.3726 70.9633 68.4765C70.9991 69.2983 70.9773 70.1216 70.8981 70.9404C69.6993 71.6128 69.1525 71.0408 69.1274 69.8816C69.092 69.2126 69.1857 68.543 69.4033 67.9095V67.9095Z" fill="#F6F5F6"/>
<path d="M73.9931 67.3825C76.13 68.085 74.9964 69.6256 74.9964 70.8349C74.249 71.2665 73.8326 70.9252 73.4614 70.4485C73.5066 69.4449 73.5467 68.4413 73.5919 67.4377L73.5266 67.4778C73.5469 67.4366 73.5764 67.4005 73.6128 67.3724C73.6491 67.3443 73.6915 67.3249 73.7365 67.3157C73.7815 67.3065 73.8281 67.3077 73.8726 67.3193C73.9171 67.3309 73.9583 67.3525 73.9931 67.3825V67.3825Z" fill="#FBFBFB"/>
<path d="M69.4033 67.9094C69.4836 68.8879 69.298 69.8916 69.6742 70.8149C70.0548 70.9992 70.4881 71.0436 70.8981 70.9403L71.3997 70.9152C71.3659 71.0973 71.2936 71.2701 71.1878 71.4221C71.082 71.5741 70.9451 71.7018 70.7861 71.7967C70.6271 71.8916 70.4498 71.9516 70.2659 71.9727C70.0819 71.9938 69.8956 71.9754 69.7193 71.9189C68.6358 71.5776 68.4001 70.564 68.4051 69.5152C69.2027 69.2492 68.686 68.2205 69.4033 67.9094Z" fill="#5D5D5D"/>
<path d="M73.9883 45.8701C74.1638 44.0686 74.8912 42.4428 75.5684 40.7969C75.6891 40.8219 75.8138 40.8219 75.9345 40.7969C75.779 42.6786 75.3677 44.4601 73.9883 45.8701Z" fill="#603E2F"/>
<path d="M66.5442 24.2674C66.3636 24.5584 66.1429 24.7692 65.9924 24.2674C65.8169 23.6802 65.4206 23.6501 64.9391 23.7656L63.8154 23.3139C64.7434 22.5763 66.0727 22.9476 66.484 21.8386L66.5593 22.4207C66.7832 22.677 66.9054 23.0065 66.9026 23.3469C66.8998 23.6873 66.7723 24.0148 66.5442 24.2674V24.2674Z" fill="#C27847"/>
<path d="M72.0068 27.7951L73.617 27.6597C73.1154 28.7737 74.53 30.3192 72.4884 30.8411C71.7109 29.9228 72.2877 28.7887 72.0068 27.7951Z" fill="#DAD9D9"/>
<path d="M72.0067 27.7951C72.4738 28.7377 72.6485 29.7984 72.5083 30.8411L72.5585 30.7909C72.4119 30.9311 72.217 31.0093 72.0142 31.0093C71.8115 31.0093 71.6165 30.9311 71.47 30.7909L71.5201 30.826V28.317C71.47 27.9507 71.6556 27.7851 72.0067 27.7951Z" fill="#3E3F3E"/>
<path d="M77.5295 24.7691V26.2745L76.5714 26.686L76.4109 24.6788L76.5965 23.8157L77.5295 24.7691Z" fill="#D4D3D3"/>
<path d="M63.2486 38.1121C62.9025 36.7572 62.0498 36.0346 62.7119 34.9055C63.6198 35.6984 63.5596 36.6066 63.2486 38.1121Z" fill="#AAA9A8"/>
<path d="M72.0217 22.2552C71.3847 22.4609 70.6022 23.2588 70.3865 21.8337L71.9164 21.7734C71.9861 21.9244 72.022 22.0888 72.0217 22.2552V22.2552Z" fill="#FAE7D4"/>
<path d="M72.0168 25.7827C72.5887 25.7827 72.98 26.0136 73.0201 26.6508L72.0168 26.8014V25.7827Z" fill="#E6DFD9"/>
<path d="M71.45 30.7808H72.5385C72.1622 31.8346 71.8061 31.3528 71.45 30.7808Z" fill="#DAD9D9"/>
<path d="M73.5017 26.6558C73.7525 26.3046 74.1388 26.2996 74.5049 26.2544C74.6705 26.6408 74.4598 26.8515 74.1388 27.0121L73.5017 26.6558Z" fill="#E6DFD9"/>
<path d="M61.3674 46.9691C60.7845 46.7568 60.2591 46.4113 59.8333 45.96C59.4074 45.5087 59.0928 44.9641 58.9146 44.3697L58.9898 44.2944C59.9944 44.9517 60.856 45.8051 61.523 46.8035L61.3674 46.9691Z" fill="#452B19"/>
<path d="M61.5281 46.7983C62.3256 46.9439 63.0028 47.4808 63.9709 47.4156C62.757 48.0127 62.757 48.0127 61.3726 46.969L61.5281 46.7983Z" fill="#4D3120"/>
<path d="M58.9146 44.3697C58.621 44.2401 58.3643 44.039 58.1681 43.7848C57.9719 43.5307 57.8423 43.2315 57.791 42.9145C57.844 42.8998 57.8927 42.8725 57.9329 42.8349C57.973 42.7974 58.0035 42.7506 58.0218 42.6987C58.3003 42.8664 58.5339 43.0992 58.7025 43.3772C58.8712 43.6551 58.9698 43.9699 58.9899 44.2945L58.9146 44.3697Z" fill="#4F3425"/>
<path d="M59.3711 128.171L59.4463 127.168C60.1035 126.079 59.948 124.859 60.0382 123.655C60.6853 122.044 60.7154 120.308 61.0415 118.637C65.2225 119.034 69.373 119.705 73.4665 120.644C73.2909 121.944 72.8094 123.198 72.9649 124.538C72.1974 128.006 71.5052 131.488 71.46 135.076C70.6173 138.428 70.5019 141.881 70.0956 145.293L69.9903 147.225C69.4335 148.023 69.4887 148.911 69.594 149.814L69.4285 150.818C69.1175 151.515 69.4285 152.323 69.0924 152.996L68.972 158.26C68.355 159.409 68.5206 160.643 68.5757 161.868L68.4854 164.803C67.8283 165.942 68.0139 167.177 68.0842 168.401C68.0541 169.545 68.0189 170.689 67.9888 171.833C67.5223 172.471 67.6176 173.208 67.6176 173.931L67.5775 173.991C66.4138 174.092 65.3152 174.578 64.1364 174.573C62.9883 174.622 61.8381 174.565 60.7004 174.403C59.8025 174.036 58.724 174.192 57.9415 173.479L55.4635 173.284C54.8867 172.862 55.2378 172.325 55.0723 171.904C55.7494 168.582 55.604 165.189 55.92 161.837L57.1239 148.289C57.3546 147.787 57.159 147.165 57.4449 146.658L57.3998 145.288L57.9014 140.27C57.9315 139.768 57.9666 139.266 57.9967 138.8C58.5735 137.52 58.4983 136.16 58.4983 134.785C59.1203 132.602 59.1805 130.379 59.3711 128.171Z" fill="white"/>
<path d="M73.0652 108.516C73.0687 108.596 73.0546 108.677 73.0239 108.751C72.9933 108.826 72.9467 108.893 72.8876 108.948C72.8284 109.003 72.758 109.044 72.6813 109.069C72.6046 109.094 72.5234 109.102 72.4432 109.093C72.2802 109.079 72.1272 109.008 72.0115 108.892C71.8958 108.776 71.8249 108.623 71.8112 108.46C71.8046 108.36 71.8216 108.26 71.8608 108.167C71.9 108.075 71.9603 107.993 72.0369 107.928C72.1134 107.863 72.2042 107.817 72.3017 107.794C72.3993 107.77 72.501 107.77 72.5987 107.793C72.9749 107.863 73.0151 108.194 73.0652 108.516Z" fill="#3C220C"/>
<path d="M66.2884 114.572C65.7868 114.627 65.5661 114.462 65.4808 114.096C65.4294 113.94 65.4411 113.77 65.5133 113.623C65.5855 113.476 65.7125 113.362 65.867 113.308C66.3686 113.107 66.6546 113.513 66.7298 113.895C66.749 114.042 66.715 114.191 66.6341 114.315C66.5532 114.439 66.4306 114.53 66.2884 114.572V114.572Z" fill="#51301D"/>
<path d="M77.7653 102.173C78.5629 102.454 78.7686 102.91 78.3773 103.327C77.8757 103.869 77.5396 103.427 77.4443 102.895C77.4092 102.71 77.6199 102.479 77.7653 102.173Z" fill="#321C05"/>
<path d="M75.0715 115.39C75.5732 114.848 76.0045 115.004 76.4159 115.425C76.3256 116.048 75.9945 116.193 75.5481 116.108C75.1016 116.022 75.0715 115.741 75.0715 115.39Z" fill="#2D1B0F"/>
<path d="M73.7876 63.4786C73.4152 63.2053 73.1107 62.85 72.8976 62.4402C72.6845 62.0303 72.5685 61.5769 72.5587 61.1151C72.388 58.5522 72.4215 55.9799 72.659 53.4224C76.5866 53.4224 80.3839 53.2618 84.1961 53.5528C84.3015 53.5528 84.3968 53.7887 84.4921 53.9192C84.3288 54.3172 84.0204 54.6383 83.6293 54.8174C81.2617 55.3694 78.8539 55.0432 76.4662 55.0884C74.9213 55.1185 74.2541 55.7106 74.1939 57.2963C74.1137 59.3738 74.5099 61.4011 74.5651 63.4585C74.4603 63.5562 74.3234 63.6122 74.1802 63.6159C74.037 63.6196 73.8973 63.5707 73.7876 63.4786V63.4786Z" fill="#84523E"/>
<path d="M83.6494 67.9345L84.2363 67.9094C84.3875 68.1885 84.6028 68.4277 84.8644 68.6074C85.126 68.7871 85.4264 68.9022 85.7411 68.9431C87.3413 69.2292 88.3846 70.2177 88.4699 71.954H88.2492L88.0285 71.9289C87.3663 70.5941 86.6992 69.2743 84.8332 69.5252C83.9453 71.5676 83.9453 71.5676 82.5057 71.5325C82.4656 71.3761 82.4656 71.2121 82.5057 71.0557C82.9672 70.0672 82.5558 68.7223 83.6494 67.9345Z" fill="#3A2F27"/>
<path d="M73.7876 63.4784L74.5751 63.3731C77.0832 63.3731 79.5913 63.1974 82.0993 63.5387C82.2196 63.5889 82.3271 63.6655 82.4139 63.7628C82.5007 63.86 82.5646 63.9755 82.601 64.1007C81.2144 64.8093 79.6609 65.1259 78.1077 65.0162C76.5546 64.9066 75.0609 64.3749 73.7876 63.4784Z" fill="#724836"/>
<path d="M83.9301 54.4609C83.9581 54.3252 84.0261 54.201 84.1254 54.1044C84.2246 54.0078 84.3506 53.9432 84.4869 53.9189C84.517 56.1721 84.5822 58.4352 84.5521 60.6732C84.5521 62.1435 84.191 63.4984 82.5908 64.1006C82.5943 64.0755 82.5928 64.05 82.5864 64.0255C82.5799 64.001 82.5687 63.9781 82.5533 63.958C82.5379 63.9379 82.5186 63.9211 82.4966 63.9085C82.4747 63.896 82.4504 63.8879 82.4253 63.8848C83.7245 60.874 82.7664 57.4968 83.9301 54.4609Z" fill="#3D281C"/>
<path d="M73.4815 46.8836C73.4815 46.437 73.4012 45.9603 74.0132 45.8298C74.0383 46.2865 74.0684 46.7331 73.4815 46.8836Z" fill="#392923"/>
<path d="M72.97 47.3806C73.0101 47.0594 73.1556 46.8386 73.5167 46.8386C73.4766 47.1447 73.3361 47.3856 72.97 47.3806Z" fill="#131112"/>
<path d="M73.9933 67.3825C73.9701 67.4213 73.9395 67.455 73.9031 67.4819C73.8668 67.5087 73.8255 67.528 73.7816 67.5388C73.7378 67.5495 73.6922 67.5514 73.6476 67.5444C73.603 67.5374 73.5602 67.5216 73.5218 67.4979C73.3964 67.0714 73.6422 66.9961 73.9833 66.9961C73.9785 67.125 73.9818 67.254 73.9933 67.3825V67.3825Z" fill="#020608"/>
<path d="M11.6675 182.878C11.8363 182.603 12.07 182.374 12.3481 182.21C12.6262 182.046 12.9402 181.954 13.2626 181.94C13.6745 181.923 14.0661 181.756 14.3635 181.47C14.661 181.185 14.8439 180.8 14.8778 180.389C16.182 178.884 14.7925 177.825 14.1906 176.475C15.6603 172.571 17.1652 168.562 18.7503 164.356L30.488 168.692L20.8972 194.405L3.03467 187.761C4.82543 186.155 5.4374 186.08 9.93689 186.867C11.0103 185.784 11.1959 184.268 11.6675 182.878Z" fill="white"/>
<path d="M13.6239 192.478C12.8313 193.125 12.119 193.552 11.7629 194.294L0.917969 190.235C1.29418 188.609 2.02654 188.087 3.722 188.784C6.93233 190.109 10.2279 191.228 13.6239 192.478Z" fill="#F8F8F9"/>
<path d="M17.8273 196.502L17.4712 194.043C18.5196 194.365 19.4776 194.545 20.2702 195.152C20.5511 195.845 20.1899 196.387 19.7686 197.004C19.0563 197.185 18.4644 196.798 17.8273 196.502Z" fill="#ECEBEC"/>
<path d="M14.4214 180.384C13.9198 180.886 13.4684 181.488 12.5504 181.328C12.124 180.62 13.1624 180.083 12.8514 179.386C13.353 178.969 13.2677 178.131 13.9951 177.88C15.0836 178.553 14.7174 179.471 14.4214 180.384Z" fill="#D7D6D6"/>
<path d="M53.5023 198.003C54.1193 196.678 53.9287 195.283 53.8584 193.893C54.2397 187.279 54.6209 180.659 55.0021 174.031L56.3816 173.916C57.5955 174.453 58.8144 173.56 60.0283 173.916C61.1017 174.252 62.2103 174.006 63.2938 174.112C64.1716 174.488 65.225 174.112 66.0477 174.739L67.5023 174.93C67.2967 179.15 67.0609 183.375 66.9104 187.6C66.8854 188.368 65.9524 188.227 65.9373 188.875C65.9072 188.965 65.8721 189.055 65.837 189.146C65.7066 189.402 65.546 189.648 65.4006 189.893C65.2551 190.139 65.2451 190.245 65.1799 190.425C65.012 190.997 65.012 191.605 65.1799 192.177C65.4357 192.764 65.7617 193.311 66.0727 193.868C66.9506 194.947 66.2333 196.151 66.3235 197.295C66.3787 197.973 65.9825 198.801 66.9606 199.117C69.2429 199.749 71.5303 200.366 73.0101 202.454C72.6339 203.327 71.8764 202.9 71.2895 202.92C65.4507 203.161 59.6571 201.977 53.733 202.509C53.1813 200.963 53.6829 199.458 53.5023 198.003Z" fill="white"/>
<path d="M73.632 204.461C73.632 205.153 73.3511 205.495 72.5886 205.465C69.3432 205.399 66.0977 205.339 62.8523 205.364C62.0798 205.364 61.9945 204.677 61.5029 204.441C61.5431 204.14 61.4026 203.588 61.6986 203.578C65.698 203.319 69.7141 203.616 73.632 204.461Z" fill="#F2F2F2"/>
<path d="M53.4319 204.933C53.4319 204.165 53.2965 203.668 53.7128 203.041L56.1908 203.242C56.2309 205.485 54.8365 205.018 53.4319 204.933Z" fill="#DBDADA"/>
<path d="M122.951 19.2694C121.912 20.0171 121.591 21.0157 121.617 22.2802C121.647 23.7505 121.983 25.2359 121.541 27.1176C120.949 25.4617 121.165 24.1419 121.09 22.8573C121.396 21.7032 120.924 20.4235 121.662 19.3447C121.781 19.2416 121.935 19.1877 122.093 19.1941L122.951 19.2694Z" fill="#101111"/>
<path d="M66.0426 193.888C65.6538 193.841 65.2909 193.668 65.0086 193.397C64.7264 193.125 64.54 192.769 64.4775 192.382C65.0594 191.62 64.3822 190.616 64.9792 189.873L64.924 189.934C65.2311 189.539 65.5848 189.184 65.9774 188.875L65.9172 188.91C66.7749 189.08 66.8652 189.658 66.7348 190.39C66.5442 191.549 66.6094 192.784 66.0426 193.888Z" fill="#C1BEBF"/>
<path d="M66.0425 174.759C65.1544 174.918 64.2388 174.796 63.4241 174.408C63.4642 174.102 63.7702 174.071 63.9257 173.906C65.1296 173.615 66.3234 174.011 67.5223 173.946C67.2915 174.724 66.3585 174.182 66.0425 174.759Z" fill="#605F5F"/>
<path d="M59.9831 174.292C58.7491 174.398 57.5152 174.538 56.3564 173.916C56.8581 173.67 57.4951 173.971 57.8864 173.414C58.7792 173.414 59.7022 173.148 60.4998 173.775C60.4597 174.102 60.1587 174.132 59.9831 174.292Z" fill="#656565"/>
<path d="M57.3898 146.598C57.3898 147.165 57.6155 147.772 57.0688 148.229C57.0053 147.949 57.0011 147.66 57.0564 147.379C57.1117 147.098 57.2253 146.832 57.3898 146.598Z" fill="white"/>
<path d="M74.9061 24.8244C74.5851 23.9814 75.2222 23.0731 74.7356 22.2451C76.2605 23.0028 75.9044 23.891 74.9061 24.8244Z" fill="#0D0C0D"/>
<path d="M69.0523 152.955C69.0824 152.218 68.7112 151.415 69.3884 150.778L69.5389 151.781L69.0523 152.955Z" fill="white"/>
<path d="M216.427 108.671V110.944H115.738V108.671H216.427Z" fill="#020608"/>
<path d="M216.366 79.6064C216.562 80.3746 216.543 81.1818 216.311 81.9398H115.818C115.584 81.1829 115.558 80.3769 115.742 79.6064H216.366Z" fill="#020608"/>
<path d="M115.758 96.4322C115.561 95.6661 115.578 94.8606 115.808 94.1038H216.306C216.54 94.859 216.566 95.6634 216.382 96.4322H115.758Z" fill="#020608"/>
<path d="M115.737 125.532C115.557 124.749 115.585 123.932 115.818 123.163H216.311C216.538 123.934 216.562 124.749 216.381 125.532H115.737Z" fill="#080A0B"/>
<path d="M115.738 140.049V137.68H216.276C216.622 138.458 216.497 139.186 216.377 140.049H115.738Z" fill="#0A0B0C"/>
<path d="M216.362 173.379C216.558 174.165 216.543 174.989 216.316 175.768H169.461C169.059 175.01 169.185 174.262 169.38 173.379H216.362Z" fill="#040708"/>
<path d="M79.0394 92.0462C78.9171 92.0182 78.8051 91.9563 78.7164 91.8675C78.6277 91.7788 78.5658 91.6668 78.5378 91.5444C79.3454 90.4655 78.7936 89.8232 77.7653 89.5372C76.8021 89.2566 75.7935 89.1663 74.7957 89.2712C73.7925 89.4017 72.6789 89.6476 71.7158 88.4533C73.4564 88.4533 75.2271 88.383 76.9426 88.4784C78.1686 88.532 79.3942 88.362 80.5593 87.9766C80.6797 88.8698 79.8119 88.8397 79.3705 89.2512C79.3354 90.1895 80.0878 91.2283 79.0394 92.0462Z" fill="#373736"/>
<path d="M79.4908 78.7284C75.8841 78.1613 72.2274 78.7786 68.3298 78.332C70.1256 77.2932 72.2725 78.8739 73.5516 77.0172C73.988 76.9018 74.2389 76.9721 74.0131 77.519C74.8057 78.4072 75.839 77.8402 76.757 77.9606C77.6749 78.0811 78.5828 77.8603 79.4757 78.1563C79.5375 78.1985 79.5846 78.2588 79.6107 78.3289C79.6368 78.399 79.6404 78.4754 79.6212 78.5477C79.5861 78.6581 79.5359 78.7284 79.4908 78.7284Z" fill="#0C0D0D"/>
<path d="M80.4891 88.0569C80.77 86.2052 79.6062 85.7235 78.1265 85.6632C76.6467 85.603 75.1168 85.6632 73.6119 85.6632C72.9849 85.6632 72.3127 85.8188 71.6055 85.1614C74.3443 84.8302 76.9226 85.0862 79.4858 84.9758C79.5317 84.9265 79.588 84.8883 79.6507 84.8639C79.7134 84.8395 79.7808 84.8296 79.8478 84.8349C79.9148 84.8402 79.9798 84.8606 80.0379 84.8946C80.0959 84.9285 80.1456 84.9751 80.1831 85.031C80.3235 86.0396 82.024 86.8776 80.4891 88.0569Z" fill="#121313"/>
<path d="M80.173 85.036L79.4758 84.9808C80.4288 84.0624 80.6545 83.1441 79.4758 82.2258C79.4171 82.1767 79.3704 82.1147 79.3393 82.0447C79.3082 81.9747 79.2936 81.8986 79.2965 81.822C79.2994 81.7455 79.3198 81.6707 79.3561 81.6032C79.3924 81.5358 79.4436 81.4775 79.5058 81.433C80.3134 80.5297 80.6144 79.6265 79.5058 78.7283V78.1311C81.412 79.4559 81.4421 79.5713 80.2382 81.6889C80.7599 82.7728 81.9788 83.937 80.173 85.036Z" fill="#373737"/>
<path d="M76.9326 69.5052C77.8155 69.3095 77.0781 68.1202 77.9358 67.8994C78.9993 68.627 78.4023 70.1726 79.4106 70.9102H79.9724C79.9365 71.0923 79.8627 71.2648 79.7557 71.4164C79.6486 71.5679 79.5109 71.6952 79.3513 71.7899C79.1918 71.8846 79.0141 71.9446 78.8299 71.966C78.6456 71.9873 78.4589 71.9696 78.282 71.9139C77.1784 71.5676 76.9426 70.554 76.9326 69.5052Z" fill="#626262"/>
<path d="M74.0132 77.4939C73.8828 77.3133 73.8728 76.9921 73.5518 76.9921V75.9032L74.0032 75.4014C74.7506 76.129 74.7105 76.8114 74.0132 77.4939Z" fill="#6A6A6A"/>
<path d="M73.5117 71.5827C73.623 71.578 73.7327 71.6104 73.8235 71.6749C73.9143 71.7394 73.9811 71.8323 74.0133 71.939L73.5117 71.5827Z" fill="#FBFBFB"/>
<path d="M79.5009 81.433L79.4708 82.2258C76.9327 81.7843 74.3393 82.3262 71.7961 81.9298V81.428L79.5009 81.433Z" fill="#0D0E0E"/>
<path d="M79.3956 70.9303C78.5329 71.0959 77.936 70.9303 77.951 69.8664C77.951 69.2091 77.951 68.5517 77.9209 67.8994C78.8639 66.9961 79.3656 67.4327 79.4709 68.5015C79.5058 69.3119 79.4806 70.1237 79.3956 70.9303Z" fill="#FDFDFD"/>
<path d="M83.6493 67.9344C83.3433 69.0133 84.6525 70.6693 82.5207 71.0908C81.7783 70.2327 81.9388 69.1839 82.1143 68.2506C82.2899 67.3172 82.927 67.0161 83.6493 67.9344Z" fill="#FDFDFD"/>
<path d="M66.5441 24.2674C66.2682 23.6501 66.4638 23.0329 66.5441 22.4157C68.701 21.2515 69.308 21.4121 70.0002 23.4595C69.624 23.5548 69.2779 23.329 68.8766 23.3641C69.1069 23.4377 69.3172 23.5633 69.4912 23.7313C69.6651 23.8992 69.7981 24.105 69.8798 24.3326C69.4033 25.6122 68.4602 25.4767 67.452 25.1405C67.2673 24.7474 66.944 24.4365 66.5441 24.2674Z" fill="#F8F5F2"/>
<path d="M69.905 24.3327C69.2128 23.6502 68.4002 23.9212 67.4622 24.2925C68.1444 22.7068 69.0122 22.757 70.0354 23.4595L69.905 24.3327Z" fill="#585858"/>
<path d="M72.062 23.2235C72.5034 23.1382 73.1355 22.8321 73.2609 23.4794C73.4164 24.2673 72.7593 24.3124 72.1473 24.2723C72.1021 23.921 72.062 23.5597 72.062 23.2235Z" fill="#464646"/>
<path d="M69.9902 25.7878C69.9902 25.5921 70.0404 25.5068 70.1909 25.5419C70.1909 25.5419 70.1909 25.6623 70.1909 25.6874C70.1297 25.7231 70.0639 25.7502 69.9953 25.7677L69.9902 25.7878Z" fill="#ECDBC8"/>
<path d="M59.9832 174.292L60.4848 173.791L63.9108 173.901L63.4092 174.403L59.9832 174.292Z" fill="#121313"/>
<path d="M83.9302 54.4609C83.9653 56.1972 83.9302 57.9334 84.0506 59.6597C84.1168 60.441 84.0049 61.2273 83.7234 61.9591C83.4419 62.691 82.9981 63.3494 82.4253 63.8849C80.3386 63.8146 78.2519 64.2763 76.1552 63.8849C75.5993 63.8294 75.0611 63.6585 74.5751 63.383C74.2135 63.0444 73.9284 62.6324 73.739 62.1746C73.5495 61.7168 73.46 61.2237 73.4765 60.7285C73.5117 58.7514 73.4765 56.7743 73.4765 54.471L83.9302 54.4609Z" fill="#DF8644"/>
<path d="M64.9742 189.858C64.5378 190.651 65.6012 191.73 64.4726 192.367C64.5829 191.534 63.9509 190.536 64.9742 189.858Z" fill="#0E0F0F"/>
<path d="M65.9724 188.86C65.9374 189.128 65.8152 189.376 65.6249 189.568C65.4345 189.759 65.1864 189.882 64.919 189.919C64.8437 189.156 65.1698 188.764 65.9724 188.86Z" fill="#212220"/>
</g>
<defs>
<clipPath id="clip0_12_1187">
<rect width="233" height="207" fill="white"/>
</clipPath>
</defs>
</svg>
