<svg width="412" height="360" viewBox="0 0 412 360" fill="none" xmlns="http://www.w3.org/2000/svg">
<path d="M372.586 287.189C373.949 288.378 373.024 289.955 373.288 291.317C374.444 298.613 375.377 305.918 373.717 313.273C373.696 313.686 373.819 314.095 374.064 314.428L371.025 317.92C370.314 318.745 369.604 319.571 368.349 319.389C366.036 321.296 363.137 318.201 360.849 320.289C359.207 321.036 357.416 321.399 355.612 321.348C353.808 321.298 352.04 320.837 350.442 320C348.319 318.795 347.849 316.632 347.138 314.536C342.141 299.323 337.896 283.896 333.576 268.485C333.458 268.052 333.373 267.611 333.32 267.165C331.577 259.216 329.372 251.374 328.364 243.277C328.216 234.197 326.514 225.274 325.589 216.277C324.293 203.648 322.054 191.127 321.641 178.407C321.641 177.854 321.203 178.308 321.344 178.473C322.005 179.224 321.468 180.297 321.798 181.197C321.137 184.878 319.618 188.279 318.139 191.655C311.953 205.761 306.782 220.231 302 234.849C300.042 240.595 299.691 246.765 300.984 252.695C303.958 266.372 306.766 280.099 308.599 293.966C309.425 300.454 310.326 307.024 309.004 313.611C308.046 318.399 306.163 320.429 301.744 321.255C299.498 321.321 297.367 320.999 295.64 319.381C294.459 318.556 293.79 317.194 292.923 316.079C294.913 318.556 290.792 319.001 291.37 320.949C289.264 321.643 287.373 320.784 285.44 320.173C280.616 318.176 278.832 313.826 277.569 309.369C275.689 302.941 274.529 296.324 274.108 289.641C274.108 289.344 273.621 289.071 273.364 288.816C271.225 285.076 271.812 280.842 271.316 276.822C270.218 267.99 270.54 259.059 269.747 250.186C268.78 239.29 270.713 228.593 272.844 217.994C275.421 203.723 277.957 189.435 281.104 175.279C283.554 164.465 284.803 153.415 284.829 142.328C285.18 140.713 285.412 139.074 285.522 137.425C286.447 127.437 288.108 117.548 289.404 107.61C290.296 100.825 290.676 100.503 297.474 102.146C314.224 106.215 331.057 107.924 348.063 103.69C349.242 103.277 350.523 103.257 351.714 103.632C353.754 105.159 353.713 107.412 353.713 109.608C353.717 112.898 354.244 116.166 355.274 119.29C357.397 126.859 357.917 134.726 359.602 142.402C360.681 146.532 360.578 150.882 359.305 154.957C358.313 157.961 358.768 161.222 358.883 164.358C359.271 174.882 359.817 185.407 360.205 195.931C360.733 210.557 362.113 225.175 361.08 239.827C360.354 241.879 360.437 244.131 361.312 246.125C362.963 250.252 363.789 254.684 365.945 258.63C367.118 261.395 368.266 264.168 368.34 267.239C368.15 268.419 367.25 269.624 368.481 270.747C369.125 272.571 370.133 274.288 369.951 276.335C371.248 279.827 371.322 283.657 372.586 287.189Z" fill="#DEA4B0"/>
<path d="M226.302 269.022H86.8569V135.303H78.011C75.6735 135.303 73.3278 135.345 70.9904 135.303C67.0671 135.204 65.2087 133.397 65.2087 129.616C65.2087 104.584 65.2087 79.546 65.2087 54.5027C65.2087 50.4333 66.9763 48.6834 71.1886 48.6339C76.4169 48.5678 81.6451 48.5761 86.8816 48.5596C87.4776 47.9814 88.2461 47.6134 89.0704 47.5113C90.9885 47.281 92.9225 47.2119 94.8521 47.305C126.789 47.305 158.725 47.305 190.662 47.305C192.315 47.2567 193.969 47.2953 195.618 47.4205C200.144 47.891 202.572 50.1362 203.398 54.5934C203.658 56.3638 203.758 58.154 203.696 59.9422C203.696 81.2601 203.696 102.578 203.696 123.896C203.696 134.816 201.879 136.607 190.993 136.616C159.342 136.616 127.681 136.616 96.0084 136.616C93.9683 136.616 91.8786 136.294 89.9542 137.35C88.3023 138.721 88.7153 140.611 88.7153 142.361C88.7153 182.113 88.7153 221.868 88.7153 261.626C88.7153 266.579 89.1447 267 94.183 267C135.893 267 177.604 267 219.314 267C221.495 267 223.733 266.645 225.831 267.61C225.96 267.666 226.076 267.749 226.171 267.852C226.266 267.955 226.338 268.078 226.382 268.211C226.426 268.344 226.442 268.485 226.428 268.625C226.415 268.765 226.372 268.9 226.302 269.022Z" fill="#E2E2E2"/>
<path d="M288.983 14.1395C293.361 7.57736 299.547 4.53979 307.377 4.96076C309.542 5.12211 311.681 5.52919 313.753 6.17413C314.81 6.43158 315.896 6.54815 316.983 6.52081C318.337 5.44776 316.9 3.57404 318.156 2.35242C320.865 2.65782 320.815 5.57983 322.484 6.96654C324.05 6.67055 325.584 6.22838 327.068 5.64586L327.002 5.68713C331.197 5.19188 335.401 4.53979 339.539 6.05857C341.142 6.69415 342.843 7.09861 344.264 8.1634C346.378 9.40979 347.898 11.267 349.434 13.1159V13.0747C350.021 14.3211 351.218 15.1382 351.755 16.4259C353.564 19.579 353.548 23.4502 355.662 26.4878C357.906 28.0313 360.398 29.1787 363.029 29.8803C367.985 31.5724 373.23 32.0512 378.144 33.8506C380.936 35.3611 384.281 36.3268 384.752 40.2146C384.652 41.3409 384.214 42.4109 383.496 43.2852C382.852 43.951 382.034 44.4228 381.134 44.6471C374.461 46.5456 367.58 46.6364 360.989 46.5373C364.929 47.0904 369.133 45.7119 373.337 46.9583C374.857 47.5634 376.255 48.4356 377.467 49.5336C379.119 51.234 379.78 52.9839 377.17 54.4862C374.986 55.2676 372.674 55.6316 370.356 55.5592C363.269 55.5592 356.174 55.4932 349.087 55.5592C345.948 55.6777 342.82 55.1145 339.919 53.9083C338.314 53.3651 336.987 52.2114 336.227 50.6974C333.82 45.8549 332.15 40.6802 331.272 35.3446C330.347 27.4866 330.347 27.5113 322.062 27.404C318.494 27.3545 314.827 27.404 312.589 23.7969C312.3 23.3264 312.052 23.0623 312.424 23.4667C312.316 23.5583 312.229 23.6721 312.169 23.8003C312.109 23.9285 312.077 24.0681 312.077 24.2096C311.755 25.3592 311.035 26.3569 310.045 27.0243C306.419 29.2695 304.329 34.6512 305.386 39.1415C305.799 40.8666 306.576 42.501 306.559 44.3334C305.213 51.853 302.33 54.676 294.781 55.7655C286.315 56.9954 277.808 56.3599 269.317 56.236C267.107 56.168 264.946 55.5707 263.015 54.4944C262.395 54.1562 261.871 53.6645 261.495 53.0664C260.38 48.0726 264.626 47.5774 267.492 45.9348C269.193 46.1989 270.837 46.917 272.348 46.5538C269.763 46.6529 266.93 45.522 264.089 46.3722C261.758 46.3434 259.472 45.7303 257.44 44.5893C253.385 42.3359 253.087 39.2076 256.573 36.137C259.877 33.2067 264.139 32.5464 268.202 31.4651C271.728 30.9091 275.192 30.0107 278.543 28.7825C281.979 27.4205 284.325 25.3074 284.944 21.4527C285.305 19.5598 285.975 17.7389 286.926 16.0627C287.093 15.7294 287.289 15.4118 287.513 15.1135C287.922 14.6808 288.425 14.3476 288.983 14.1395Z" fill="#E1B366"/>
<path d="M61.938 341.502C56.9823 338.803 52.0266 336.071 47.0709 333.413C42.7946 331.087 38.6853 328.467 34.7726 325.572C33.6556 324.777 32.6834 323.797 31.8983 322.674C31.2127 321.667 30.1225 320.652 31.0723 319.042C31.7331 317.945 32.0552 317.458 33.608 317.392C34.9956 317.293 36.2675 315.468 37.589 314.412C39.7861 311.936 37.8203 310.062 36.3914 308.469C34.1481 305.923 31.7511 303.516 29.2139 301.263C29.1268 301.226 29.0487 301.17 28.9846 301.101C28.9205 301.031 28.872 300.948 28.8422 300.858C27.7355 298.275 24.952 296.038 27.1903 292.761C28.6357 292.332 29.1313 290.285 30.9401 290.491C35.359 288.956 35.7141 288.238 33.7566 284.713L33.8062 284.763C31.9148 283.17 30.1472 281.387 27.6942 280.636C22.9284 279.067 14.479 274.23 12.0011 271.671C9.2342 268.807 9.15161 266.513 11.7864 263.467C12.6784 262.427 13.7687 261.552 14.6689 260.52C16.0978 258.869 15.9822 257.73 14.1569 256.442C13.1443 255.754 12.0293 255.231 10.8531 254.891C8.78819 254.255 6.84721 253.198 4.77408 252.612C3.74617 252.246 2.79838 251.686 1.98237 250.962C-0.255953 249.311 -0.495478 247.899 0.751705 245.39C2.8331 241.263 9.83714 237.136 15.784 238.844C20.6652 240.39 25.1654 242.946 28.9909 246.347C29.9077 247.123 30.5272 248.32 31.8074 248.485C33.2445 248.213 33.8805 247.033 34.8634 246.323C37.7625 244.234 43.891 244.317 46.4267 248.461C49.2563 253.247 51.1694 258.517 52.0679 264.003C55.0992 264.292 57.4696 260.941 60.7156 262.427C65.2749 264.837 64.2589 269.17 64.4324 273.099C64.0596 276.875 63.4667 280.626 62.6566 284.333C62.7227 284.895 63.4825 284.416 62.9622 284.515C62.7557 284.515 62.7227 284.441 62.7062 284.185C62.6153 282.914 63.3504 281.849 63.3669 280.693C63.8938 280.326 64.5208 280.129 65.1634 280.129C65.8059 280.129 66.4329 280.326 66.9598 280.693C68.7191 281.717 70.0406 283.046 70.2636 285.192C70.3954 285.428 70.4874 285.685 70.5362 285.951C71.2299 294.098 71.2299 294.098 64.0855 296.616C63.6312 297.103 63.1439 297.548 62.6566 297.994C60.1788 301.197 61.7398 304.49 62.4832 307.726C62.7805 309.038 63.5486 310.202 63.7634 311.597C63.9451 312.736 63.9864 313.875 62.5327 314.181C61.079 314.486 60.2861 314.04 59.8566 312.48C58.4195 307.247 57.1145 301.964 54.9753 296.946C54.2221 295.499 53.5788 293.998 53.0508 292.456C51.7293 289.567 50.573 286.603 48.7559 283.962C46.579 279.941 44.0937 276.094 41.3223 272.456C40.199 270.466 38.1755 269.22 37.0357 267.255C35.2929 264.779 32.9059 262.897 30.8493 260.751C32.9637 262.93 35.3177 264.878 37.1017 267.354C38.2415 269.336 40.2734 270.574 41.4049 272.555C44.1024 276.261 46.5844 280.119 48.8385 284.111C50.5399 286.793 51.6797 289.756 53.1169 292.579C56.0242 299.752 58.7333 306.983 60.1375 314.635C60.1181 315.067 60.0403 315.494 59.9062 315.906C58.6342 319.529 60.3687 322.625 61.7728 325.704C64.1537 330.683 64.6011 336.369 63.0283 341.659C62.9568 341.742 62.8653 341.806 62.7625 341.845C62.6597 341.884 62.5488 341.896 62.44 341.88C62.3313 341.864 62.2283 341.821 62.1405 341.755C62.0528 341.689 61.9831 341.602 61.938 341.502Z" fill="#81B59A"/>
<path d="M226.302 269.022C226.302 268.791 226.302 268.56 226.302 268.329C226.161 267.561 225.971 266.793 225.897 266.009C225.732 252.546 225.79 239.084 225.839 225.621C225.839 218.935 227.442 217.425 234.206 217.367C246.447 217.293 258.679 217.367 270.911 217.317C272.012 217.203 273.124 217.383 274.133 217.837C273.307 223.252 272.299 228.642 271.556 234.082C270.814 239.051 270.642 244.088 271.044 249.096C271.613 255.345 271.3 261.601 271.869 267.8C272.216 271.581 272.018 275.427 272.695 279.1C273.298 282.361 273.224 285.563 273.406 288.791C259.513 288.791 245.621 288.791 231.728 288.791C228.012 288.791 227.144 287.908 227.12 284.218C227.12 279.827 227.12 275.427 227.12 271.011C227.12 270.285 227.417 269.344 226.302 269.022Z" fill="#EEEDED"/>
<path d="M62.2601 297.045C62.3653 297.005 62.4614 296.945 62.5424 296.866C62.6233 296.788 62.6875 296.695 62.7309 296.591C64.7544 294.049 67.637 295.427 70.1148 294.94C71.4364 295.386 72.8735 295.691 73.0883 297.276C72.5762 295.881 73.972 294.527 73.5756 292.984C74.5915 289.624 75.4092 286.215 77.1602 283.079C80.1997 277.664 84.9241 275.848 90.5571 278.316C92.2771 279.115 93.8781 280.149 95.3146 281.387C97.6272 283.326 97.9328 285.514 96.8013 288.37C96.0198 290.247 94.8454 291.936 93.357 293.322C91.3252 295.303 89.3347 297.326 86.9725 299.694C89.7559 300.619 91.8621 299.62 93.6874 299.092C96.4709 298.266 98.1476 299.761 100.006 300.982C101.237 301.808 101.179 304.036 100.064 305.39C98.4051 307.198 96.4215 308.679 94.216 309.756C91.4904 311.283 88.773 312.827 86.0309 314.313C85.2049 314.767 84.379 315.138 84.379 316.195C85.3453 317.301 85.9235 315.873 86.6751 316.079C89.0043 317.458 92.0025 316.673 94.216 318.423L94.1747 318.382C96.7434 320.503 96.4791 322.947 95.0007 325.522C95.026 325.685 95.0126 325.852 94.9613 326.008C94.9101 326.165 94.8226 326.308 94.7059 326.424C94.5892 326.541 94.4466 326.628 94.2898 326.679C94.1329 326.731 93.9661 326.744 93.8031 326.719C88.8969 329.847 83.4291 331.919 78.4817 334.973C76.1856 336.764 73.526 338.11 72.0145 340.801C70.883 338.052 71.7254 335.179 71.4611 332.381C71.8824 319.373 77.7549 299.257 82.1985 292.175C76.6481 302.608 72.5927 316.855 71.3951 331.952C71.3951 334.428 71.3951 336.905 71.3951 339.381C69.2641 341.122 68.4547 339.125 67.3562 337.945C65.5886 333.38 62.673 329.385 60.8147 324.862C59.5344 321.742 57.9651 318.663 59.4849 315.163L59.4353 315.212C60.9055 313.751 62.7391 313.793 64.6636 314.131C63.1438 310.755 61.5745 307.437 60.9798 303.797C60.5916 301.469 60.0052 298.968 62.2601 297.045Z" fill="#81B59A"/>
<path d="M367.63 341.511L346.155 341.676C340.448 342.567 339.845 342.196 339.069 337.293C339.564 335.196 341.505 334.907 343.05 334.189C348.485 331.655 353.928 329.154 357.223 323.739C361.188 323.005 365.07 321.345 369.199 322.732C371.081 325.885 372.718 329.177 374.097 332.579C371.165 335.023 369.72 338.498 367.63 341.511Z" fill="#82B59B"/>
<path d="M266.765 337.549C270.185 335.832 273.678 334.247 277.015 332.357C280.872 330.194 284.672 327.899 287.397 324.267C291.279 322.262 295.285 322.955 299.299 323.673C301.38 326.295 302.456 329.574 302.331 332.918C300.323 334.965 298.201 336.888 297.251 339.785C296.681 341.585 295.227 342.113 293.352 342.088C286.076 342.014 278.791 341.956 271.523 342.088C268.161 342.179 267.376 340.074 266.765 337.549Z" fill="#81B59A"/>
<path d="M266.765 337.549C267.632 337.549 268.235 337.606 268.475 338.737C269.061 341.544 269.144 341.585 271.779 341.593C279.576 341.593 287.381 341.593 295.318 341.593C297.028 338.06 297.656 333.785 302.165 332.604C302.302 332.736 302.401 332.902 302.454 333.084C302.506 333.267 302.509 333.46 302.463 333.644C301.852 335.048 300.555 335.914 299.704 337.128C298.184 339.315 298.333 340.669 301.43 340.512C311.49 340.272 321.534 340.371 331.569 340.429C332.907 340.528 334.262 340.57 335.625 340.57C337.574 340.57 338.243 339.497 338.102 337.714C338.301 337.119 338.548 336.591 339.341 336.839C340.415 337.978 340.233 339.53 340.39 340.735C342.34 342.064 344.314 341.172 346.081 341.667C346.012 341.932 345.854 342.164 345.632 342.324C345.41 342.483 345.14 342.561 344.867 342.542C343.901 342.542 342.943 342.542 341.976 342.542L89.9295 342.427C88.8309 342.427 87.7407 342.353 86.6257 342.311C86.3861 342.171 86.3035 342.031 86.3944 341.899C86.4852 341.766 86.5596 341.7 86.6422 341.7C88.1454 341.643 89.6569 341.552 91.1601 341.552H256.35C257.853 341.552 259.365 341.494 260.876 341.461C262.842 340.182 266.41 341.238 266.658 337.499L266.765 337.549Z" fill="#454645"/>
<path d="M368.539 270.689C366.887 269.864 367.638 268.312 367.514 267.033C369.241 265.902 371.206 266.059 373.123 266.05C381.233 266.05 389.353 266.05 397.463 266.05C403.047 266.05 403.344 265.761 403.361 260.272C403.402 246.942 403.361 233.611 403.361 220.272C403.361 165.294 403.361 110.312 403.361 55.3281C403.361 52.8518 403.072 50.3755 403.889 47.957C404.098 47.4612 404.476 47.0549 404.955 46.8097C406.053 47.0903 405.971 47.8332 405.673 48.6587C405.673 50.1692 405.566 51.6797 405.566 53.182C405.566 123.249 405.566 193.314 405.566 263.376V268.246H368.398C368.456 269.344 368.497 270.004 368.539 270.689Z" fill="#2F2F2F"/>
<path d="M288.983 14.1396C288.946 14.3303 288.843 14.502 288.692 14.6243C288.541 14.7466 288.352 14.8117 288.157 14.8082C286.134 16.5085 283.697 15.9307 281.417 15.9307C220.077 15.9637 158.731 15.9637 97.3795 15.9307C96.0084 15.9307 94.629 15.9803 93.2497 15.9307C90.1772 15.8152 88.5996 17.1276 88.7318 20.322C88.8887 23.8878 88.4675 27.4701 89.0208 31.0525C89.1777 31.5557 89.3019 32.0685 89.3925 32.5878C89.3925 37.953 90.8049 43.4173 88.4014 48.6422L86.9395 48.5845V14.61C87.8315 13.8342 88.6822 14.0818 89.4669 14.0818H287.364C287.885 14.0735 288.43 14.1148 288.983 14.1396Z" fill="#6C6C6C"/>
<path d="M86.6915 341.733C86.6915 341.932 86.6915 342.138 86.6915 342.344C80.7943 342.394 74.897 342.476 68.9997 342.476C54.3254 342.476 39.6455 342.476 24.9601 342.476C23.6221 342.476 22.218 342.848 20.2026 341.651L61.9544 341.519L62.7803 341.643C63.2676 341.09 63.6889 340.429 64.5726 340.47C66.7036 340.652 68.8345 340.958 70.9159 340.14L71.1802 331.812C71.3867 331.407 71.6014 331.399 71.8162 331.812L72.0475 340.891C72.3944 342.064 73.369 341.552 74.0628 341.568C78.2421 341.643 82.4627 341.676 86.6915 341.733Z" fill="#07090A"/>
<path d="M351.062 14.0157L372.454 13.8836C373.117 13.3652 373.92 13.0561 374.76 12.9959C375.6 12.9356 376.439 13.1268 377.17 13.5452C377.356 13.6725 377.505 13.8479 377.599 14.0529C377.694 14.2579 377.731 14.4847 377.707 14.7091C377.302 16.2196 375.188 16.3599 374.998 18.1181C375.361 19.6781 376.939 19.868 377.963 20.6686C379.392 21.7747 380.3 23.1449 379.169 24.8453C378.037 26.5456 376.426 26.3806 374.824 25.6212C373.886 25.2134 373.08 24.5526 372.496 23.7129C371.913 22.8731 371.575 21.8876 371.52 20.8667C371.38 19.4057 371.652 17.8292 370.496 16.6158C365.54 15.1218 360.428 16.3599 355.414 15.9059C353.771 15.7574 351.673 16.525 351.062 14.0157Z" fill="#D5A3B6"/>
<path d="M270.994 359.686L238.856 359.802C229.523 359.802 220.182 359.901 210.848 359.909C209.51 359.909 208.114 360.264 206.834 359.563C206.876 358.737 207.487 358.787 207.933 358.787C228.945 358.853 249.954 358.933 270.961 359.026C271.209 359.158 271.3 359.307 271.225 359.455C271.151 359.604 271.035 359.686 270.994 359.686Z" fill="#545554"/>
<path d="M369.158 322.732C365.107 323.542 361.011 324.11 356.893 324.432C356.433 324.194 356.072 323.8 355.876 323.321C355.679 322.842 355.659 322.308 355.819 321.816C357.578 320.924 359.569 320.536 361.196 319.34C362.071 319.034 362.377 317.92 363.674 317.747C364.731 319.274 366.457 319.612 368.365 319.397C368.084 320.644 369.505 321.486 369.158 322.732Z" fill="#ECD1B7"/>
<path d="M299.72 324.466L287.397 324.267L287.529 321.676C289.099 320.454 291.337 321.395 292.848 320.025C293.584 319.109 294.244 318.06 295.698 318.564C297.54 319.389 299.192 320.908 301.48 320.264C301.525 321.052 301.39 321.84 301.085 322.568C300.78 323.295 300.313 323.945 299.72 324.466Z" fill="#EED1B7"/>
<path d="M377.426 14.742C377.426 14.4944 377.426 14.2468 377.426 13.9991C377.723 13.248 378.136 12.7032 379.078 13.1737C379.098 13.3858 379.191 13.5843 379.342 13.7349C379.493 13.8856 379.691 13.979 379.904 13.9991C380.374 14.3871 380.969 14.577 381.456 14.9484C381.905 15.4051 382.219 15.9762 382.365 16.5992C382.448 19.6203 383.191 22.1873 386.173 23.7804C386.496 23.9142 386.788 24.115 387.028 24.3696C387.269 24.6242 387.452 24.9269 387.567 25.2576C387.682 25.5883 387.725 25.9396 387.694 26.2882C387.663 26.6368 387.558 26.9749 387.387 27.2802C386.495 28.931 384.967 28.865 383.414 28.4441C381.861 28.0231 379.961 27.1564 379.813 25.456C379.524 21.7169 377.905 18.4152 377.426 14.742Z" fill="#CDA5BD"/>
<path d="M374.147 333.405C376.203 338.357 374.477 341.065 369.067 341.494C368.671 337.441 370.108 335.171 374.147 333.405Z" fill="#84B69B"/>
<path d="M405.698 48.6422C405.591 48.1304 405.475 47.6104 405.368 47.0986C403.716 42.8807 404.137 38.6215 405.046 34.3458L405.607 33.8093C406.681 34.2055 406.309 35.13 406.318 35.8811C406.318 38.8527 406.318 41.8242 406.318 45.1011C407.469 45.0439 408.612 45.3135 409.617 45.8788C410.621 46.4441 411.444 47.282 411.992 48.2955C409.993 50.7305 407.804 48.9558 405.698 48.6422Z" fill="#DDA4B4"/>
<path d="M379.078 13.1738L377.426 13.9992L372.47 13.8836C372.528 12.0347 372.586 10.1857 372.652 7.88281C375.477 9.39334 376.922 11.7375 379.078 13.1738Z" fill="#EED3DB"/>
<path d="M351.061 14.0157C351.681 15.1548 352.763 14.6348 353.622 14.643C358.941 14.6925 364.252 14.643 369.571 14.6925C370.537 14.6925 371.801 14.1065 372.404 15.518C371.016 16.946 369.191 16.8304 367.448 16.8386C362.418 16.8386 357.396 16.8386 352.366 16.8964C351.858 16.8918 351.364 16.7272 350.954 16.4259C350.031 15.5459 349.479 14.3475 349.41 13.0747L351.061 14.0157Z" fill="#475165"/>
<path d="M380.787 14.8081C380.568 14.8081 380.358 14.7211 380.203 14.5663C380.048 14.4115 379.961 14.2015 379.961 13.9826C387.651 13.9826 395.349 13.9826 403.088 13.9826C403.914 13.9826 405.062 13.4048 405.566 14.709C405.174 15.0652 404.735 15.3652 404.261 15.6005C397.488 16.3268 390.691 15.8481 383.901 15.8728C382.789 15.79 381.717 15.4234 380.787 14.8081Z" fill="#D5A3B6"/>
<path d="M374.097 314.445C372.619 313.983 373.337 312.794 373.494 312.059C374.473 307.111 374.473 302.018 373.494 297.07C373.147 295.213 373.379 293.248 373.337 291.292C374.617 293.999 374.874 296.946 374.989 299.843C375.146 304.754 375.452 309.657 374.097 314.445Z" fill="#594C50"/>
<path d="M266.782 337.524C267.197 338.087 267.46 338.747 267.545 339.441C267.63 340.135 267.535 340.839 267.269 341.486H260.959C261.809 338.564 264.535 338.399 266.782 337.524Z" fill="#81B59A"/>
<path d="M327.068 5.64589C325.672 7.06562 323.847 7.29674 321.823 7.49484C320.584 6.05035 320.435 3.7144 318.478 2.68262C317.008 3.61535 319.428 6.02558 316.983 6.52084C317.586 4.37474 316.339 2.39373 316.24 0C319.238 1.47751 321.393 3.30169 322.327 6.60338C323.783 5.83919 325.428 5.50697 327.068 5.64589Z" fill="#514632"/>
<path d="M63.6806 273.198C63.6806 271.853 63.5402 270.499 63.631 269.154C63.7974 267.842 63.5727 266.51 62.985 265.325C62.3973 264.14 61.4728 263.155 60.3272 262.493C60.0464 262.328 59.9555 262.154 60.0464 261.981C60.1372 261.808 60.2198 261.717 60.3107 261.717C62.706 262.179 63.9284 263.846 64.4404 266.025C65.2664 269.228 66.018 272.472 64.5148 275.708C63.5897 275.122 64.3909 273.884 63.6806 273.198Z" fill="#5D6B64"/>
<path d="M29.2634 301.23C33.3074 303.558 36.6202 306.968 38.8279 311.077C39.5713 312.439 39.6539 313.867 37.6385 314.379C38.5141 311.795 37.2834 309.963 35.6067 308.172C33.4592 305.885 30.841 304.012 29.2634 301.23Z" fill="#4E5350"/>
<path d="M78.4651 335.047C78.7542 333.586 80.117 333.397 81.1494 332.844C84.8001 330.846 88.7399 329.393 92.2089 327.066C92.6053 326.793 93.2578 326.909 93.7864 326.843C92.7336 328.058 91.4287 329.03 89.9623 329.69C86.0556 331.251 82.5948 333.884 78.4651 335.047Z" fill="#414B45"/>
<path d="M70.9161 295.501C68.1492 295.567 65.2914 294.998 62.731 296.591C62.9787 294.858 64.2342 294.569 65.6631 294.552C67.092 294.536 68.3557 294.552 69.9167 294.552C70.6023 291.358 69.9167 288.246 70.2306 285.192C71.8081 287.033 70.9244 289.236 71.1061 291.275C71.2382 292.687 70.7922 294.206 72.0229 295.402C71.9687 295.497 71.8925 295.577 71.8006 295.636C71.7088 295.695 71.6041 295.731 71.4954 295.741C71.3867 295.75 71.2773 295.734 71.1764 295.692C71.0756 295.65 70.9863 295.585 70.9161 295.501Z" fill="#2D3C35"/>
<path d="M63.6806 273.198C65.093 273.661 64.1184 274.907 64.5066 275.675V278.572C64.87 280.223 66.877 279.084 66.9844 280.652H63.9449C63.4328 282.22 63.5567 284.094 62.0122 285.605C62.0287 281.271 63.8128 277.35 63.6806 273.198Z" fill="#22362D"/>
<path d="M404.699 14.7834L405.525 14.7008L405.624 33.8093L405.417 33.7103C405.319 33.7735 405.209 33.8152 405.094 33.8327C404.978 33.8503 404.861 33.8432 404.748 33.812C404.636 33.7808 404.531 33.7262 404.442 33.6518C404.352 33.5773 404.279 33.4848 404.228 33.3801C403.884 32.7394 403.678 32.0335 403.625 31.3083C403.625 26.2155 403.113 21.1061 403.914 16.0215C404.125 15.5788 404.388 15.1631 404.699 14.7834Z" fill="#23272D"/>
<path d="M374.147 333.405C371.305 335.378 368.943 337.664 369.067 341.494H367.622C368.001 338.244 369.652 335.277 372.214 333.24C372.459 333.007 372.748 332.826 373.065 332.707C373.381 332.587 373.718 332.533 374.056 332.546C374.081 332.901 374.114 333.132 374.147 333.405Z" fill="#46574E"/>
<path d="M339.548 6.03385C335.418 5.20843 331.181 5.95957 327.01 5.66242C328.563 3.87125 330.826 4.83698 332.709 4.41602C334.592 3.99505 336.979 4.7627 339.126 5.0516C339.713 5.1589 339.473 5.69543 339.548 6.03385Z" fill="#514632"/>
<path d="M372.586 287.189C370.868 286.719 371.661 285.142 371.372 284.119C370.645 281.568 369.778 279.009 369.976 276.277C372.123 279.62 372.123 283.458 372.586 287.189Z" fill="#67565C"/>
<path d="M94.2409 318.514C92.399 318.44 90.7471 317.375 88.8226 317.614C88.3524 317.681 87.8743 317.57 87.4817 317.303C87.0892 317.035 86.8104 316.632 86.7 316.17C89.4173 316.236 92.2421 315.988 94.2409 318.514Z" fill="#424D48"/>
<path d="M293.22 320.206C291.568 321.717 289.619 321.932 287.529 321.676C287.125 320.85 285.688 321.362 285.498 320.198H292.204C292.341 320.067 292.524 319.994 292.714 319.995C292.904 319.997 293.085 320.073 293.22 320.206Z" fill="#735F5E"/>
<path d="M27.2151 292.728C26.8186 294.973 26.6865 297.144 28.5696 298.91C28.7784 299.178 28.9172 299.493 28.9735 299.827C29.0297 300.162 29.0016 300.505 28.8917 300.825C27.5093 299.701 26.4847 298.198 25.9431 296.5C25.2989 294.792 25.687 293.603 27.2151 292.728Z" fill="#46564E"/>
<path d="M60.2613 261.717C60.282 261.975 60.282 262.234 60.2613 262.493C57.8345 262.615 55.4773 263.345 53.4059 264.614C52.6626 265.019 52.1422 264.977 52.0266 264.003C54.6779 262.856 57.131 261.089 60.2613 261.717Z" fill="#35423C"/>
<path d="M270.994 359.686C270.994 359.472 270.994 359.249 270.994 359.026H281.442C278.013 359.775 274.49 359.998 270.994 359.686Z" fill="#0D0D0E"/>
<path d="M33.7813 284.721C36.0527 286.727 36.1601 287.85 34.3678 289.542C33.9219 289.966 33.3771 290.272 32.7828 290.432C32.1884 290.592 31.5635 290.601 30.9648 290.458C31.7908 289.187 33.7153 289.237 34.2686 287.982C35.1194 286.562 33.5418 285.852 33.7813 284.721Z" fill="#3C4A43"/>
<path d="M70.916 295.501L72.0228 295.353C72.9561 294.849 72.8487 293.644 73.5756 293.017C74.0051 293.149 74.4015 293.496 74.2776 293.842C73.6891 295.628 73.3744 297.493 73.3443 299.373C72.2706 298.118 73.0139 295.98 70.916 295.501Z" fill="#3D4C45"/>
<path d="M27.7188 280.619C30.5931 280.784 32.501 282.353 33.8308 284.746C31.5271 283.813 29.4449 282.407 27.7188 280.619Z" fill="#424E48"/>
<path d="M94.9842 325.613C95.711 321.585 95.711 321.585 94.1582 318.473C97.3794 320.429 97.5446 322.096 94.9842 325.613Z" fill="#3B4741"/>
<path d="M349.459 13.116C347.328 11.8861 345.808 10.0289 344.289 8.16345C347.105 8.65045 348.476 10.6645 349.459 13.116Z" fill="#5E5543"/>
<path d="M88.3682 48.6339C88.4233 43.1311 88.4783 37.6283 88.5334 32.1255C90.0696 30.5737 92.0767 30.7883 93.9681 30.7883C150.325 30.7498 206.685 30.7498 263.048 30.7883C264.931 30.7883 266.947 30.5737 268.458 32.1668C267.079 33.3801 265.229 33.215 263.618 33.6608C259.53 34.7916 256.143 36.624 254.458 40.8585C255.528 42.3215 256.944 43.4957 258.581 44.2753C260.217 45.0548 262.022 45.4152 263.833 45.324C264.907 46.2567 266.691 44.9195 267.566 46.4879C266.699 47.5444 265.427 47.9901 264.262 48.6422C262.676 49.5584 261.52 50.714 261.735 52.7693C258.803 55.2951 257.556 51.4569 255.392 51.1185C253.872 49.9216 251.939 49.8226 250.213 49.1705C248.222 48.0149 246.612 46.2567 243.985 45.2415C244.902 47.0244 246.678 47.8003 247.025 49.5749C247.025 51.1102 245.464 51.2258 244.547 51.9026C243.962 52.408 243.485 53.0255 243.143 53.7185C242.673 54.4582 241.956 55.0078 241.119 55.2703C233.587 56.0958 226.029 55.4684 218.488 55.6335C213.689 55.7408 213.425 55.9472 213.4 60.8337C213.4 66.3228 213.326 71.8118 213.4 77.3009C213.466 81.4775 214.028 82.0636 218.216 82.1049C227.301 82.2039 236.337 82.1049 245.398 82.1544C251.501 82.1544 252.493 82.8312 254.095 88.6587C255.857 94.7239 258.266 100.582 261.281 106.133C262.511 108.502 264.089 109.336 266.914 108.948C271.787 108.271 276.941 107.495 280.178 112.802C280.345 113.233 280.404 113.698 280.351 114.157C280.298 114.615 280.133 115.054 279.873 115.435C279.251 116.353 278.429 117.118 277.469 117.672C277.079 117.868 276.669 118.022 276.247 118.135C274.116 118.836 271.894 118.671 269.705 118.96C265.187 119.571 260.62 119.348 256.118 119.274C252.815 119.224 251.303 120.437 251.419 123.83C251.534 126.983 251.551 130.153 251.369 133.306C251.121 137.639 249.899 138.919 245.538 139.084C238.402 139.307 231.257 139.084 224.113 139.199C223.275 139.176 222.448 139.397 221.734 139.835C223.386 141.156 225.112 140.718 226.69 140.726C244.274 140.726 261.859 140.726 279.443 140.776C281.591 140.776 283.895 140.314 285.712 142.039C285.712 145.464 285.58 148.898 285.712 152.315C285.952 157.788 284.581 163.046 283.623 168.312C282.747 173.182 281.665 178.003 280.699 182.856C279.765 187.577 278.882 192.315 277.965 197.037C276.957 202.154 275.817 207.256 274.991 212.398C274.686 214.255 273.769 216.013 274.033 217.961C272.753 219.051 271.209 218.787 269.73 218.787H233.165C232.48 218.787 231.794 218.787 231.109 218.787C228.309 218.886 227.177 219.951 227.144 222.749C227.086 227 227.144 231.251 227.144 235.51C227.144 246.218 227.125 256.921 227.086 267.619C226.012 267.918 224.89 268.005 223.783 267.875C179.776 267.875 135.769 267.875 91.7628 267.875C90.6808 267.875 89.5658 268.089 88.5251 267.586C87.6166 266.669 87.9635 265.514 87.9635 264.457C87.9635 222.399 87.9635 180.344 87.9635 138.291C87.8372 137.334 87.9419 136.361 88.2691 135.452C123.51 135.452 158.75 135.452 193.991 135.452C201.523 135.452 202.2 134.181 202.25 127.264C202.498 103.888 202.341 80.5035 202.366 57.1028C202.316 55.6245 202.061 54.1604 201.606 52.7528C200.862 50.0702 198.905 49.1952 196.543 48.799C195.581 48.7246 194.614 48.7246 193.652 48.799L88.3682 48.6339Z" fill="white"/>
<path d="M404.583 32.1502L404.831 33.7102C405.256 38.1566 405.273 42.6326 404.88 47.0821C404.823 48.7329 404.715 50.3838 404.715 52.0346C404.715 122.19 404.715 192.351 404.715 262.517V266.867C403.534 267.751 402.394 267.371 401.345 267.379C391.434 267.412 381.523 267.412 371.611 267.379C370.24 267.379 368.852 267.569 367.481 267.057C367.283 264.3 365.896 261.841 365.441 259.15C363.36 253.207 360.486 247.511 359.974 241.089C359.974 232.447 360.527 223.756 359.866 215.171C359.42 209.311 359.866 203.425 359.123 197.647C358.223 190.689 359.123 183.69 358.239 176.83C357.372 170.128 357.95 163.475 357.62 156.814C357.472 155.339 357.843 153.86 358.669 152.629C360.048 150.541 359.494 147.841 358.892 145.514C358.588 144.339 358.449 143.128 358.479 141.915C360.486 140.264 362.906 140.883 365.185 140.718C367.465 140.553 369.827 141.147 372.396 140C370.694 138.588 368.869 139.108 367.25 138.952C364.896 138.737 363.219 137.78 363.17 135.262C363.046 129.393 362.443 123.516 363.566 117.68C363.722 117.372 363.957 117.111 364.247 116.924C364.538 116.736 364.873 116.63 365.218 116.616C366.305 116.612 367.367 116.943 368.258 117.565C369.588 120.041 371.991 120.503 374.378 121.023C372.173 120.594 370.001 120.115 368.786 117.87C369.249 115.138 371.479 114.164 373.569 113.066C377.698 111.184 382.117 112.299 386.387 112.109C389.096 109.451 389.691 105.811 390.517 102.443C392.552 94.3446 393.603 86.0304 393.647 77.6805C393.724 76.5903 393.578 75.4958 393.217 74.4641C392.856 73.4323 392.289 72.4849 391.55 71.6797C390.591 69.7729 392.318 69.1374 393.201 68.1138C393.648 67.7183 394.12 67.3516 394.614 67.016C394.829 66.8509 395.06 66.7106 395.283 66.5538C400.544 62.7899 400.602 62.4927 396.745 57.4741C395.836 56.2938 394.738 55.229 394.878 53.5534C394.68 50.5736 392.64 48.7659 390.542 47.1151C388.89 45.8274 387.238 44.6388 387.147 42.3607C387.04 40.4374 385.438 40.5942 384.223 40.2063C383.257 37.3173 380.837 36.0792 378.293 34.9731C377.467 33.2645 374.477 34.5356 374.213 32.0263C384.397 30.1857 394.498 29.8885 404.583 32.1502Z" fill="white"/>
<path d="M304.205 268.708C303.206 262.93 298.969 251.061 298.977 245.068C299.07 242.097 299.582 239.155 300.497 236.327C304.461 222.509 309.681 209.137 315.083 195.881C317.024 191.085 318.643 186.1 321.195 181.543C323.673 184.498 322.756 188.229 323.227 191.564C324.4 199.901 325.325 208.279 326.316 216.649C326.968 222.187 327.745 227.709 328.224 233.264C328.521 236.649 329.281 239.95 329.529 243.326C330.647 250.62 332.194 257.841 334.162 264.952C334.362 265.738 334.47 266.544 334.485 267.354C327.927 268.271 321.335 267.511 314.769 267.767C313.002 267.841 311.209 267.544 310.21 267.767C317.809 268.031 326.159 267.264 334.501 268.18" fill="white"/>
<path d="M285.795 141.931H223.915C222.813 142.001 221.707 141.971 220.611 141.841C220.142 141.748 219.721 141.493 219.421 141.122C219.121 140.75 218.961 140.285 218.968 139.807C218.976 139.33 219.152 138.87 219.464 138.509C219.776 138.147 220.206 137.907 220.677 137.829C221.635 137.733 222.599 137.71 223.56 137.763C231.266 137.763 238.972 137.763 246.686 137.763C249.99 137.763 250.221 137.515 250.246 134.288C250.246 130.029 250.246 125.761 250.246 121.502C250.246 120.437 249.949 119.315 250.824 117.969C255.821 117.969 261.025 117.969 266.22 117.969C267.837 118.097 269.463 117.875 270.986 117.317C272.96 119.538 274.851 117.928 276.767 117.194C277.011 117.16 277.259 117.16 277.502 117.194C279.567 118.077 279.46 119.983 279.534 121.717C279.675 125.019 279.699 128.271 279.534 131.531C279.369 134.792 280.236 136.863 283.978 136.682C284.46 136.685 284.936 136.785 285.378 136.975C285.821 137.165 286.221 137.441 286.555 137.788C286.315 139.183 287.191 140.759 285.795 141.931Z" fill="#94AEDC"/>
<path d="M286.547 137.804H278.37V131.201C278.37 127.809 278.37 124.416 278.37 121.015C278.37 119.662 278.46 118.308 277.469 117.194C277.567 116.788 277.772 116.417 278.063 116.118C278.353 115.818 278.719 115.603 279.121 115.493C281.161 113.694 283.111 111.82 284.267 109.294C285.106 107.758 286.044 106.277 287.075 104.862C288.661 103.054 289.132 100.693 290.139 98.5968C290.85 97.1358 291.246 95.4107 293.237 95.0723C299.217 95.9555 304.94 97.9447 310.97 98.6876C322.438 100.026 334.044 99.6115 345.387 97.4578C347.138 97.1441 348.873 96.6323 350.69 97.0038C351.681 97.4577 351.937 98.374 352.176 99.315C352.548 100.892 353.275 102.509 351.763 103.921C341.48 106.995 330.702 108.069 320.014 107.082C310.565 106.257 301.075 104.977 291.99 101.742C290.098 105.101 290.767 108.997 290.049 112.629C289.369 115.623 288.867 118.655 288.545 121.709C288.306 124.961 287.372 128.114 287.455 131.374C287.607 133.558 287.298 135.749 286.547 137.804Z" fill="#F5F3F3"/>
<path d="M364.326 116.962V137.755H370.314C371.14 137.755 371.966 137.755 372.792 137.755C373.068 137.729 373.345 137.762 373.607 137.851C373.869 137.94 374.11 138.082 374.313 138.27C374.516 138.457 374.678 138.686 374.787 138.94C374.897 139.194 374.951 139.468 374.948 139.744C374.975 140.018 374.943 140.294 374.855 140.555C374.767 140.815 374.625 141.054 374.437 141.256C374.25 141.457 374.022 141.616 373.768 141.723C373.514 141.83 373.241 141.881 372.966 141.874C372.288 141.932 371.594 141.874 370.909 141.874H358.52C357.008 134.998 355.86 128.056 355.034 121.065C354.877 120.55 354.64 120.062 354.332 119.62C354.027 114.948 352.548 110.351 353.506 105.588C354.704 104.763 355.546 105.423 356.331 106.298C357.468 108.501 359.042 110.45 360.956 112.026C361.237 112.274 361.493 112.546 361.782 112.852C362.674 114.164 364.467 114.99 364.326 116.962Z" fill="#94AEDC"/>
<path d="M329.529 243.335C328.901 243.161 328.744 242.699 328.703 242.113C327.877 234.14 327.109 226.149 326.093 218.176C324.912 209.014 323.904 199.835 322.665 190.689C322.252 187.66 322.773 184.391 321.212 181.527C321.212 179.397 321.526 177.26 320.7 175.213C321.815 174.783 322.054 175.32 322.128 176.079C322.806 182.798 323.78 189.492 324.458 196.195C325.028 201.973 325.787 207.751 326.465 213.529C327.117 219.133 327.786 224.771 328.505 230.376C329.033 234.627 330.124 238.943 329.529 243.335Z" fill="#6D5A60"/>
<path d="M354.324 105.415C352.78 106.562 353.424 108.287 353.721 109.542C354.547 112.918 354.291 116.294 354.324 119.678C354.192 119.677 354.063 119.648 353.943 119.593C353.824 119.538 353.717 119.458 353.631 119.359C353.544 119.26 353.479 119.144 353.441 119.018C353.402 118.893 353.391 118.76 353.407 118.63C353.407 115.023 352.259 111.498 352.581 107.899C352.705 106.496 351.962 105.316 351.755 104.003C351.945 102.604 351.756 101.179 351.21 99.8761C351.447 99.6619 351.751 99.5359 352.07 99.5193C352.389 99.5028 352.703 99.5967 352.961 99.7853C354.159 101.436 355.786 103.054 354.324 105.415Z" fill="#454041"/>
<path d="M334.501 268.205H309.054V267.379H334.485L334.501 268.205Z" fill="#272726"/>
<path d="M360.006 241.065C360.832 245.299 362.674 249.212 363.814 253.347C364.351 255.278 364.921 257.202 365.466 259.125C365.337 259.157 365.204 259.162 365.073 259.141C364.942 259.121 364.817 259.074 364.704 259.004C364.592 258.934 364.495 258.842 364.418 258.734C364.342 258.626 364.288 258.503 364.26 258.374C362.658 253.537 361.014 248.716 359.47 243.863C359.172 242.93 358.644 241.766 360.006 241.065Z" fill="#6D5E63"/>
<path d="M293.22 320.206H292.204C292.089 318.935 290.792 319.769 290.296 319.1C290.891 317.862 292.535 319.208 293.146 317.953C293.311 316.442 291.387 315.609 291.808 313.537L295.698 318.58L293.22 320.206Z" fill="#534145"/>
<path d="M355.935 321.997C354.06 321.321 351.854 321.304 350.591 319.373C354.009 320.639 357.769 320.639 361.188 319.373C359.965 321.279 357.966 321.675 355.935 321.997Z" fill="#6D595C"/>
<path d="M88.2775 135.336V266.867C89.9294 267.619 91.4326 267.264 92.9028 267.264C135.979 267.264 179.055 267.264 222.131 267.264C223.783 267.264 225.435 267.379 227.087 267.445L226.327 268.271C223.576 268.271 220.826 268.196 218.067 268.196H87.468V263.912C87.468 222.399 87.468 180.891 87.468 139.389C87.5093 138.101 86.7247 136.451 88.2775 135.336Z" fill="#464646"/>
<path d="M268.458 32.1915C267.913 32.1915 267.36 32.1338 266.806 32.1338H88.5252L88.203 32.0677C87.6579 26.6034 88.0957 21.1474 87.9883 15.8812C89.5741 14.8411 90.9865 15.2208 92.3245 15.2208C156.198 15.2208 220.096 15.2208 284.019 15.2208C285.365 15.2208 286.778 14.8577 288.05 15.617C286.72 18.415 285.746 21.3682 285.151 24.4078C285.016 25.2022 284.687 25.951 284.193 26.5875C283.698 27.2241 283.054 27.7286 282.318 28.0562C278.065 30.4518 273.329 31.8648 268.458 32.1915Z" fill="#95AEDC"/>
<path d="M404.583 32.1502C395.305 32.1502 386.035 32.1502 376.773 32.1502C375.89 32.1502 374.832 31.688 374.163 32.7363C370.091 32.7363 366.292 31.3 362.369 30.4994C359.569 30.3673 357.413 28.7164 355.133 27.3958C353.267 23.9868 352.994 20.0825 351.83 16.4672C352.284 15.1382 353.415 15.6417 354.307 15.6417C360.353 15.5757 366.408 15.5592 372.478 15.5262C372.478 17.177 372.536 18.8279 372.561 20.4209C372.52 21.6311 372.925 22.8142 373.698 23.7465C374.471 24.6788 375.559 25.2958 376.757 25.4808C377.232 25.5708 377.724 25.489 378.144 25.2501C378.565 25.0113 378.887 24.6308 379.053 24.1766C379.213 23.7973 379.24 23.3753 379.131 22.9785C379.022 22.5816 378.782 22.2332 378.45 21.9892C377.079 20.7676 375.328 20.5943 373.494 20.3384V16.0214C374.609 15.196 376.377 15.9141 377.475 14.7585C379.747 16.8469 380.217 19.4222 380.069 22.435C379.904 25.7367 381.861 27.6269 385.107 27.9818C386.23 28.1056 386.866 27.4866 387.42 26.4383C386.437 23.962 384.058 23.3347 381.638 22.7239V15.683C389.307 14.9249 397.033 14.9388 404.699 15.7243C404.644 21.1941 404.605 26.6694 404.583 32.1502Z" fill="#95AEDC"/>
<path d="M310.119 26.3723L311.375 24.0941C315.917 26.8758 321.03 26.7189 326.077 27.1234C331.297 27.5361 331.445 27.8333 331.594 32.9839C331.575 33.8102 331.602 34.637 331.676 35.4602C332.222 37.4329 332.321 39.546 333.147 41.4197C334.518 44.5068 333.923 46.9418 331.131 48.8485C330.8 49.1322 330.44 49.3811 330.058 49.5914C323.797 53.149 317.569 53.0417 311.358 49.4511C309.26 48.18 307.08 46.9748 306.46 44.3087C304.808 40.0413 304.238 35.7904 305.75 31.2588C306.551 28.799 307.749 27.173 310.119 26.3723Z" fill="#F0D2B8"/>
<path d="M307.261 44.5729C308.137 46.3888 309.913 47.2802 311.342 48.5349C312.994 50.4829 316.058 50.1445 317.693 52.208C317.972 52.8035 318.1 53.4583 318.065 54.1147C318.03 54.7712 317.835 55.4091 317.495 55.972C315.975 57.2596 314.67 55.9142 313.274 55.6418C307.592 55.7491 302.05 56.4672 296.987 59.2819C294.393 60.6026 292.138 62.6744 289.049 62.922C281.963 63.0293 274.868 63.0789 267.789 62.922C263.478 62.823 260.513 57.2018 262.693 53.5287C266.159 54.725 269.805 55.3197 273.472 55.2869C277.858 55.1218 282.26 55.097 286.687 55.2869C290.412 55.4437 294.021 54.6348 297.68 54.3211C300.728 54.0652 302.686 51.7706 304.032 49.1127C305.006 47.4647 305.572 45.6084 305.684 43.6979C306.609 43.1779 306.815 44.1024 307.261 44.5729Z" fill="#FDFDFD"/>
<path d="M381.853 43.6896L383.331 42.7982C386.635 41.9233 387.023 44.6471 388.047 46.5869C388.129 46.8561 388.184 47.1325 388.213 47.4123C388.683 53.3306 388.683 53.3306 394.217 55.0062C394.559 55.2356 394.865 55.5137 395.126 55.8316C399.9 61.7747 399.693 60.7842 394.539 65.5469C393.933 66.0759 393.278 66.5458 392.582 66.9501C386.528 70.6397 386.396 70.7223 382.241 64.5976C380.069 61.4115 376.459 59.026 376.278 54.6348C376.658 54.15 377.185 53.8023 377.781 53.6442C378.681 52.7033 378.656 51.8778 377.715 50.8873C376.484 49.5832 374.791 49.0962 373.387 48.1222C372.99 47.6104 372.404 47.206 372.421 46.2485C375.477 45.2332 378.789 44.87 381.853 43.6896Z" fill="#F1EFEF"/>
<path d="M288.058 15.6335H88.517L88.2114 32.0842C88.0215 31.9026 87.6746 31.7293 87.6746 31.5477C87.6746 26.0916 87.6746 20.6356 87.6746 14.8081H288.116C288.099 15.1135 288.083 15.3611 288.058 15.6335Z" fill="#47546C"/>
<path d="M262.734 53.5287C261.52 53.9579 262.437 54.5027 262.644 55.0062C263.47 57.1028 265.064 58.9765 264.048 61.8737H289.908C289.999 62.823 289.338 63.1696 288.628 63.5246C282.194 64.4078 275.735 63.7474 269.284 63.929C267.632 63.9786 265.98 63.8135 264.535 64.87C261.041 65.4395 257.564 67.4618 254.012 65.0681C253.758 64.7449 253.547 64.3897 253.385 64.0116C251.568 59.3562 254.632 53.9084 249.651 49.6822C252.815 48.9806 254.359 50.0454 256.028 50.3508C257.192 51.5147 259.142 51.4486 260.1 53.0004C260.628 53.8258 261.173 52.6785 261.752 52.7941C261.975 52.7822 262.197 52.8492 262.376 52.9834C262.556 53.1177 262.683 53.3106 262.734 53.5287Z" fill="#F0D2B8"/>
<path d="M387.453 47.0986C386.412 45.357 385.974 43.0376 383.323 42.7982C382.943 41.6674 383.976 41.0565 384.289 40.1816L386.305 38.7866C387.577 38.9435 388.394 39.7771 388.13 40.9575C387.428 44.0693 389.41 45.5303 391.616 46.5539C393.548 47.4536 394.217 48.7247 393.97 50.681C395.283 51.0772 395.621 49.0962 397.075 49.8555C397.356 51.3331 395.985 52.3318 395.572 53.6442C394.663 53.9992 394.003 54.9071 392.912 54.8741C391.037 54.0487 391.137 52.3483 391.128 50.747C391.128 50.1857 390.302 50.6397 390.814 50.5902C390.955 50.5902 391.021 50.6314 391.021 50.7553C391.021 52.1667 391.632 53.8258 389.485 54.5522C387.114 52.5134 388.279 49.5006 387.453 47.0986Z" fill="#E8C7B6"/>
<path d="M336.962 50.6892L339.027 52.7858C339.853 53.0582 340.679 53.3306 340.431 54.4366C339.11 55.5427 337.425 55.8068 335.905 56.4507C333.378 56.0792 330.85 56.9707 328.315 56.4507C326.531 55.163 326.812 53.3471 327.035 51.5394C327.489 49.7813 329.298 49.5831 330.437 48.5926L330.355 48.6587C331.652 47.9158 332.502 46.5538 334.204 45.8853C335.467 47.305 336.136 49.0384 336.962 50.6892Z" fill="#FDFDFD"/>
<path d="M340.473 54.3623L339.027 52.7858C350.384 55.7573 361.964 53.9661 373.436 54.3293C374.923 54.3706 376.203 53.0581 377.781 53.6029C377.703 53.8616 377.556 54.0945 377.357 54.2774C377.158 54.4604 376.914 54.5866 376.649 54.643C374.915 57.0037 372.42 55.9554 371.107 55.9224C371.611 55.8398 371.818 56.5992 371.537 57.7465C369.629 58.7948 368.233 57.2183 366.581 56.8303C359.973 57.2513 353.465 56.2113 346.899 56.3763C344.594 56.4341 342.158 56.4836 340.473 54.3623Z" fill="#514637"/>
<path d="M331.33 36.2361C330.999 33.5782 331.396 30.8131 329.942 28.0232C327.108 27.6255 324.254 27.3885 321.393 27.3133C317.611 27.3876 314.257 26.6034 311.375 24.0941C310.995 22.4928 311.763 21.2217 312.514 19.8762C312.746 20.0743 313.035 20.1981 313.051 20.3467C313.382 24.903 314.365 26.0174 318.965 26.2402C322.798 26.4218 326.646 26.2402 330.528 26.2402C332.808 29.0467 331.767 32.3071 332.032 35.3199C332.486 36.2196 332.023 36.3269 331.33 36.2361Z" fill="#54442E"/>
<path d="M381.853 43.6896C379.276 45.6541 376.187 45.9348 373.065 46.3722C373.172 46.95 373.28 47.5113 373.387 48.0809C371.57 46.917 369.555 46.9005 367.473 46.9418C364.805 46.9996 362.096 47.3297 359.214 46.7189C360.386 45.7779 361.526 46.1411 362.575 46.1494C367.991 46.1645 373.383 45.4171 378.59 43.929C379.654 43.6481 380.76 43.567 381.853 43.6896Z" fill="#322A19"/>
<path d="M307.261 44.5728L305.609 43.6979C303.528 39.1498 303.702 34.6182 305.461 29.9959C306.287 27.7425 307.517 26.2732 310.086 26.3723C307.906 28.2424 306.374 30.7539 305.709 33.5473C305.045 36.3407 305.281 39.2726 306.386 41.9232C306.749 42.7734 307.46 43.5411 307.261 44.5728Z" fill="#453A28"/>
<path d="M331.33 36.2361C331.528 36.2025 331.709 36.1025 331.842 35.9524C331.976 35.8024 332.054 35.6113 332.065 35.4106C333.601 36.4507 332.717 38.1428 333.13 39.4965C334.097 42.6826 334.914 45.9183 336.632 48.8073C336.982 49.3833 337.1 50.0707 336.963 50.7305C335.377 49.7152 335.022 47.8828 334.154 46.4135C332.783 47.0986 332.098 48.7742 330.355 48.7412C330.859 47.0904 332.684 46.5538 333.518 44.8947C332.874 42.0801 331.627 39.2736 331.33 36.2361Z" fill="#4F4435"/>
<path d="M362.369 30.4911C366.457 30.4086 370.232 31.9521 374.163 32.728C375.642 33.314 377.707 32.8023 378.367 34.9484C373.412 33.7515 368.522 32.5464 363.591 31.3825C363.327 31.3536 363.075 31.2561 362.861 31.0997C362.646 30.9433 362.477 30.7335 362.369 30.4911Z" fill="#524A3D"/>
<path d="M351.813 16.459C353.186 18.8916 354.03 21.586 354.291 24.3665C354.448 25.4561 355.117 26.3145 355.117 27.3876C354.473 27.2225 353.564 27.1317 353.556 26.3723C353.556 22.823 351.706 19.7689 350.929 16.4672L351.813 16.459Z" fill="#433F37"/>
<path d="M267.566 46.4796C266.377 45.9018 264.775 46.6777 263.833 45.3157C268.698 45.1672 274.207 46.0339 276.313 47.6269L267.566 46.4796Z" fill="#594A2F"/>
<path d="M62.2601 297.045C60.2778 300.47 61.4342 303.789 62.4666 307.165C63.3504 310.136 65.0105 312.753 66.522 316.294C64.8701 315.625 64.1598 314.536 62.9539 314.445C61.748 314.354 60.7073 315.468 59.4354 315.27C58.9976 309.715 56.8997 304.598 55.3056 299.34C54.554 296.913 52.77 294.849 52.8278 292.158L52.8773 292.109C55.9251 296.038 56.8336 300.883 58.5268 305.382C59.3508 307.945 60.0346 310.552 60.5752 313.19C61.0029 313.436 61.4851 313.571 61.9782 313.584C62.4713 313.597 62.9599 313.487 63.3999 313.264C62.2046 310.572 61.2483 307.779 60.5421 304.919C60.1326 302.908 60.0767 300.841 60.377 298.811C60.3788 298.57 60.4297 298.332 60.5265 298.11C60.6233 297.889 60.7639 297.69 60.94 297.525C61.1161 297.36 61.3239 297.232 61.5508 297.15C61.7777 297.067 62.019 297.031 62.2601 297.045Z" fill="#253C31"/>
<path d="M64.5066 340.842L62.7556 341.667C62.7556 338.663 62.7556 335.667 62.7556 332.662C62.6708 330.492 62.0646 328.374 60.9881 326.488C59.8198 324.05 58.9091 321.496 58.2707 318.869C57.7916 317.103 58.4276 316.195 59.4848 315.188C58.7828 320.239 60.955 324.457 63.4163 328.56C64.9444 331.118 66.6376 333.578 68.2647 336.071C68.7355 336.789 68.6281 337.317 67.8269 337.664C67.3231 338.357 66.7449 338.811 65.8612 338.283C65.1426 337.103 65.4069 335.617 64.5562 334.503C64.4953 336.178 64.8831 337.839 65.6794 339.315C65.6629 340.157 65.7125 341.015 64.5066 340.842Z" fill="#293F34"/>
<path d="M48.5907 284.011C45.8816 280.289 43.1642 276.583 41.2397 272.373L41.3389 272.274C44.6988 275.493 47.2635 279.449 48.8302 283.83L48.5907 284.011Z" fill="#2D4439"/>
<path d="M37.0355 267.495L28.6521 258.688C30.8161 259.513 35.4992 263.995 37.3246 267.239L37.0355 267.495Z" fill="#253D31"/>
<path d="M48.8135 283.789C51.0388 286.043 52.4584 288.967 52.8524 292.109L52.8028 292.158C50.738 289.781 49.7386 286.851 48.574 284.011L48.8135 283.789Z" fill="#31473C"/>
<path d="M41.2397 272.373C39.4061 271.118 37.7542 269.715 37.0356 267.495L37.3247 267.239C38.8775 268.741 40.9506 269.839 41.3388 272.274L41.2397 272.373Z" fill="#2C4438"/>
<path d="M71.7668 331.787H71.4447H71.1309C71.007 326.174 72.2129 320.743 73.4766 315.336C75.5287 306.198 78.8363 297.387 83.3054 289.154C83.55 288.677 83.8259 288.216 84.1313 287.776C84.2469 287.61 84.536 287.569 84.759 287.462C85.395 288.221 84.759 288.717 84.4204 289.286C79.0174 299.451 75.2755 310.413 73.3361 321.758C72.7662 325.101 73.014 328.568 71.7668 331.787Z" fill="#2B4337"/>
<path d="M64.5066 340.842C65.3325 340.578 65.3325 339.81 65.539 339.191C65.5557 339.035 65.6166 338.887 65.7146 338.764C65.8127 338.641 65.9437 338.549 66.0924 338.498C66.8193 338.539 66.9184 337.177 67.8517 337.672L70.8912 340.099V341.51C68.7024 341.255 66.4806 342.46 64.5066 340.842Z" fill="#E3E4E3"/>
<path d="M302.231 333.347C303.883 337.474 303.701 338.225 299.952 341.387C299.529 341.525 299.081 341.568 298.639 341.512C298.198 341.457 297.775 341.304 297.4 341.065C297.003 337.317 299.729 335.378 302.231 333.347Z" fill="#82B49A"/>
<path d="M332.75 341.403C332.849 340.823 333.119 340.286 333.525 339.859C333.931 339.433 334.455 339.137 335.03 339.01C336.236 338.58 337.384 337.978 338.565 337.458C339.168 338.646 339.895 339.81 339.027 341.403H332.75Z" fill="#7FAC94"/>
<path d="M404.88 47.0822C404.616 42.6293 404.6 38.1651 404.831 33.7103C405.018 33.76 405.214 33.76 405.401 33.7103C405.574 38.1759 405.64 42.6414 405.401 47.0987L405.161 47.0574L404.88 47.0822Z" fill="#886A72"/>
<path d="M404.641 15.7078L381.58 15.6665L380.754 14.8411H404.666C404.682 15.1135 404.657 15.3941 404.641 15.7078Z" fill="#47546C"/>
<path d="M328.736 56.1123C331.214 55.2868 333.65 54.6513 336.17 55.9719C338.045 54.7998 339.878 55.5097 341.703 56.1288C350.347 58.956 358.201 63.7837 364.624 70.2187C367.448 73.6525 371.644 75.9967 372.883 80.6934C372.883 82.4185 372.883 84.1354 372.883 85.8605C373.767 89.4346 373.403 93.1902 374.535 96.591C374.535 95.6913 373.949 94.742 373.891 93.7103C373.725 90.9925 373.405 88.2863 372.933 85.6046C372.891 83.1283 373.123 80.6025 372.429 78.1758C372.829 74.9713 373.688 71.8411 374.981 68.8816C375.449 67.7908 376.072 66.7732 376.831 65.8605C377.913 65.0351 377.36 63.3842 378.359 62.5175C381.184 62.6826 381.985 65.2084 383.24 66.9748C385.347 69.9463 387.593 72.0924 391.55 70.9286C394.126 71.754 394.853 73.4049 394.853 76.1783C394.832 84.7301 393.899 93.2553 392.07 101.61C391.248 105.918 389.686 110.051 387.453 113.826C382.958 111.99 377.926 111.964 373.412 113.752C372.016 115.237 370.001 116.104 369.1 118.077C368.852 118.39 368.654 118.349 368.497 118.002C367.671 117.763 366.523 118.564 365.945 117.326C364.219 115.947 362.831 114.189 360.989 112.984L361.055 113.058C359.759 110.739 357.19 109.468 356.1 106.991L354.448 105.415C354.894 103.236 352.722 101.874 352.713 99.8349C350.756 96.2361 351.293 91.7953 349.17 88.8155C349.699 91.2918 352.251 93.9166 350.946 97.3999C349.087 98.7288 346.758 98.4647 344.718 98.8196C341.96 99.2984 339.077 99.645 336.285 100.016C332.742 100.479 329.24 100.503 325.713 100.644C314.356 101.09 303.371 99.1085 292.593 95.6913C291.527 92.5877 293.699 90.0619 293.906 87.3875C292.345 93.5782 290.825 100.025 287.538 105.852L285.06 109.624C283.631 111.275 282.689 113.487 280.162 113.867C276.305 109.088 269.78 108.031 264.196 111.292C262.313 110.26 261.256 108.51 260.339 106.678C257.125 100.46 254.54 93.9373 252.625 87.2059C251.336 82.5423 252.162 83.3347 247.388 83.3099C237.361 83.2687 227.334 83.3099 217.307 83.3099H214.829C213.178 83.3099 212.352 82.4845 212.352 80.8337C212.352 72.1997 212.352 63.5741 212.352 54.4862L242.086 54.3706C243.048 54.6209 243.875 55.2369 244.39 56.0875C245.239 57.1603 246.027 58.279 246.752 59.4387C247.322 60.5778 248.404 61.915 246.521 62.9055C244.671 62.2219 243.047 61.039 241.83 59.4882C242.804 60.3137 243.705 62.1378 245.836 62.4102C246.17 62.5938 246.454 62.8576 246.662 63.1779C248.512 66.5869 250.907 66.1659 253.525 64.1519C253.696 64.0748 253.888 64.0582 254.07 64.1047C254.251 64.1512 254.412 64.2581 254.525 64.4078C255.648 65.8853 257.448 65.4478 258.539 65.0351C260.537 64.2592 262.487 64.482 264.469 64.3335C265.79 63.3099 266.947 63.8052 268.136 64.6389C272.431 69.4593 274.116 75.3694 275.206 81.527C276.288 86.5538 276.594 91.6797 277.296 96.7643C276.685 91.8118 276.346 86.8592 275.33 82.014C275.175 80.7789 275.427 79.527 276.049 78.4482C278.695 71.9497 283.318 66.4464 289.264 62.7156C289.474 62.703 289.672 62.6105 289.816 62.457C289.961 62.3036 290.041 62.1008 290.04 61.8902C292.518 61.3454 294.17 59.3066 296.466 58.5885C301.959 55.7903 308.12 55.9802 313.943 54.6182C315.265 54.6182 315.711 56.6075 317.247 56.0792C321.005 55.3116 324.862 56.4342 328.736 56.1123Z" fill="#EBBD93"/>
<path d="M189.944 164.333V201.378L218.852 178.151C229.259 189.129 230.506 209.27 220.413 222.922C209.733 237.375 191.505 242.435 175.2 235.303C167.088 231.809 160.487 225.542 156.579 217.626C152.671 209.709 151.712 200.66 153.874 192.101C157.963 175.452 173.747 163.615 189.944 164.333Z" fill="#DB746D"/>
<path d="M193.355 195.675V159.009C201.829 157.524 215.325 163.681 222.189 172.348L193.355 195.675Z" fill="#81B59A"/>
<path d="M243.581 51.1762C244.462 50.5681 245.487 50.201 246.554 50.1114C246.083 47.4123 242.003 47.1481 242.16 43.3512C245.604 44.5398 248.429 45.7614 250.271 48.6257C250.667 50.0371 250.015 50.9699 248.801 51.7458C250.39 52.5703 251.719 53.8189 252.641 55.3529C253.682 57.078 253.244 58.2171 251.072 58.3822C250.673 58.3492 250.281 58.2603 249.907 58.118C247.223 56.3351 243.523 55.4602 243.581 51.1762Z" fill="#EED1B7"/>
<path d="M250.23 57.6723C250.965 57.4082 251.882 57.8374 252.666 57.0285C251.898 54.643 249.412 53.6525 247.991 51.7211C247.777 50.5902 249.585 51.6468 249.461 50.3921C249.404 49.8391 249.982 49.22 250.287 48.6257C252.394 48.5349 254.417 48.7908 256.069 50.2766C254.417 50.5985 252.939 49.9299 251.254 49.4511C250.907 51.2341 252.253 51.7541 252.906 52.6208C254.178 54.2716 255.26 55.9225 253.946 58.1098C252.633 60.2972 254.112 62.2369 254.409 64.3253H254.004L253.591 64.2592C252.047 63.9456 251.939 62.1709 250.857 61.5023C248.693 60.8007 248.702 65.1177 246.182 63.3925V62.5671L246.141 62.6166C246.303 62.5774 246.452 62.4992 246.576 62.3889C246.7 62.2785 246.795 62.1395 246.853 61.9839C246.911 61.8283 246.93 61.6609 246.908 61.4964C246.886 61.3318 246.824 61.1752 246.728 61.0401C246.128 59.8435 245.284 58.7861 244.25 57.9365C243.998 57.718 243.824 57.423 243.755 57.0966C243.687 56.7701 243.727 56.4302 243.87 56.1288C246.216 55.4272 247.562 59.48 250.23 57.6723Z" fill="#53493F"/>
<path d="M250.23 57.6723C250.387 58.1593 250.543 58.6463 250.733 59.2158C247.62 60.0412 245.992 57.4659 243.812 56.203C243.369 56.0762 242.967 55.8369 242.644 55.5086C242.321 55.1802 242.089 54.774 241.97 54.3293L242.887 52.6785C245.365 54.3293 247.256 56.8716 250.32 57.7135L250.23 57.6723Z" fill="#E1C5AC"/>
<path d="M250.296 57.7301C246.769 57.6063 244.82 55.1548 242.862 52.695C242.862 52.0925 242.59 51.3496 243.556 51.1763C244.572 53.9167 246.918 55.3034 249.247 56.7314C249.726 57.0038 250.287 57.045 250.296 57.7301Z" fill="#564D45"/>
<path d="M280.079 113.875C282.103 112.918 282.855 110.483 284.977 109.633C284.517 110.995 283.75 112.234 282.734 113.253C281.719 114.272 280.483 115.044 279.121 115.51L280.079 113.875Z" fill="#4C4742"/>
<path d="M276.776 117.194C275.371 119.629 273.224 118.91 271.176 118.448C271.043 118.448 271.06 117.705 271.002 117.317C272.927 118.795 274.81 116.715 276.776 117.194Z" fill="#424650"/>
<path d="M391.583 70.8873C391.137 71.1845 390.707 71.4981 390.253 71.7788C388.378 72.9509 387.511 72.8931 385.95 71.5476C383.876 69.7565 382.505 67.4205 380.87 65.2497C380.22 64.2312 379.378 63.3482 378.392 62.6496C375.832 61.8242 374.378 59.3974 372.024 58.2666L371.71 57.7961C371.71 56.4094 370.157 56.4837 369.654 55.4519C372.008 55.1135 374.436 55.65 376.674 54.6265C377.236 57.3999 379.367 59.2819 381.002 61.2876C383.117 63.8795 384.306 67.1977 387.329 69.3768C389.039 68.279 390.286 66.5208 392.285 65.9348C393.139 66.5854 393.754 67.4993 394.036 68.5349C393.664 69.839 392.045 69.773 391.583 70.8873Z" fill="#DEA8B4"/>
<path d="M393.912 54.4944L394.11 52.9426L395.58 53.5947C395.721 54.1065 395.696 54.8163 396.026 55.0887C398.504 57.1028 399.429 60.1568 401.552 62.6166C399.838 64.8488 397.576 66.6003 394.985 67.7012C393.821 67.1234 393.953 66.0504 393.903 65.0021C395.09 63.4318 396.564 62.1013 398.248 61.0813C396.869 58.9847 394.539 57.6641 393.92 55.1795C393.664 55.031 393.581 54.8824 393.664 54.7255C393.746 54.5687 393.829 54.4944 393.912 54.4944Z" fill="#DDA4B4"/>
<path d="M373.362 113.752C373.571 113.33 373.895 112.976 374.297 112.732C374.699 112.488 375.163 112.364 375.633 112.373C379.474 111.944 383.356 111.589 387.073 113.198C387.255 113.273 387.321 113.619 387.436 113.842C385.479 114.296 383.777 113.058 381.836 113.017C378.954 112.893 376.187 113.512 373.362 113.752Z" fill="#3B342D"/>
<path d="M368.456 118.002C368.662 118.002 368.861 118.044 369.059 118.077C370.971 119.577 373.319 120.416 375.749 120.47C376.501 120.47 377.401 120.47 377.401 121.923C374.504 121.737 371.672 120.982 369.067 119.703C368.183 119.249 368.456 118.638 368.456 118.002Z" fill="#6C6A69"/>
<path d="M393.903 65.0021C395.118 65.5634 394.795 66.7355 394.985 67.7012L394.011 68.5266C392.078 68.5679 392.086 67.305 392.26 65.9265L393.903 65.0021Z" fill="#5C434A"/>
<path d="M360.899 112.984C363.327 113.562 364.764 115.262 365.854 117.326L364.26 116.962C363.393 115.444 361.502 114.767 360.899 112.984Z" fill="#504742"/>
<path d="M287.414 105.86C287.1 104.069 288.413 102.806 289.024 101.354C291.023 96.6405 292.006 91.6302 293.625 86.1824C294.756 89.9711 292.147 92.6454 292.469 95.6995C291.643 97.7796 290.866 99.8927 289.908 101.923C289.247 103.326 289.008 105.035 287.414 105.86Z" fill="#50473E"/>
<path d="M350.822 97.3999C350.896 94.6347 349.732 92.1832 348.79 89.6905C348.626 89.3628 348.546 88.999 348.559 88.6327C348.572 88.2663 348.677 87.9091 348.864 87.5939C351.532 91.3495 351.673 95.716 352.589 99.8349H351.202C351.111 99.0012 350.946 98.2006 350.822 97.3999Z" fill="#5B4A39"/>
<path d="M355.992 106.991C357.884 108.816 360.263 110.252 360.948 113.058C358.751 111.49 356.505 109.955 355.992 106.991Z" fill="#423D3A"/>
<path d="M330.462 48.6339C330.272 50.1939 328.397 49.8225 327.827 50.9533C324.524 53.9166 320.923 53.6937 317.164 52.0264C316.206 50.9616 314.687 51.2835 313.555 50.5076C312.729 49.9298 311.465 49.8968 311.366 48.5348C312.432 48.3202 313.134 49.1209 313.943 49.5171C318.321 51.6797 322.69 51.5394 327.158 49.872C328.24 49.4675 329.05 48.2624 330.462 48.6339Z" fill="#4F4741"/>
<path d="M321.212 42.9963C321.443 43.0871 321.872 43.1532 321.881 43.2687C322.084 44.4383 321.827 45.6414 321.164 46.6259C320.5 47.6105 319.481 48.3003 318.32 48.5509C317.158 48.8016 315.945 48.5936 314.934 47.9706C313.923 47.3476 313.192 46.3578 312.894 45.2085C312.671 44.4986 311.325 43.5576 313.117 43.0294C313.66 43.2082 314.14 43.5408 314.497 43.9869C316.297 46.62 318.073 46.5456 319.841 43.9456C320.217 43.5263 320.687 43.2012 321.212 42.9963Z" fill="#6B554C"/>
<path d="M317.594 34.7668C319.444 36.2113 319.469 38.2419 320.179 40.033C320.031 40.466 319.785 40.8588 319.459 41.181C319.134 41.5031 318.739 41.7459 318.304 41.8902C317.805 42.1071 317.251 42.1663 316.716 42.0602C316.182 41.954 315.693 41.6873 315.314 41.2959C314.929 40.9109 314.681 40.4094 314.609 39.8692C314.537 39.3289 314.646 38.7802 314.918 38.3079C315.529 36.9625 316.058 35.5427 317.594 34.7668Z" fill="#67594E"/>
<path d="M308.938 35.6665C309.764 34.3953 310.722 33.6029 312.151 33.9001C312.977 34.0817 313.993 34.4366 313.588 36.1122C312.126 35.0722 310.565 35.3776 308.938 35.6665Z" fill="#736458"/>
<path d="M321.212 42.9963C321.212 43.508 320.807 43.6153 320.386 43.7226C319.458 44.4442 318.316 44.8359 317.14 44.8359C315.964 44.8359 314.822 44.4442 313.894 43.7226C313.489 43.6401 313.134 43.4998 313.068 43.0045C315.776 42.7511 318.503 42.7483 321.212 42.9963Z" fill="#1C1917"/>
<path d="M317.14 52.0264C320.733 52.0264 324.35 52.3236 327.803 50.9534C327.803 52.1502 327.893 53.3471 327.877 54.5439C327.877 55.2538 327.951 55.8564 328.703 56.1123C327.819 57.7218 326.225 56.8221 325.06 56.9377C322.393 57.1936 319.634 57.3421 317.098 56.0462C317.131 54.7338 317.14 53.3636 317.14 52.0264Z" fill="#F0D2B8"/>
<path d="M313.811 54.577C313.753 55.0805 313.943 55.9225 313.241 55.8812C307.517 55.518 302.149 57.1854 296.722 58.5886C296.589 58.5991 296.454 58.5851 296.326 58.5473C298.523 56.5498 301.414 56.005 304.098 55.551C307.286 55.0145 310.507 54.123 313.811 54.577Z" fill="#5E5348"/>
<path d="M393.912 54.4944C393.949 54.7213 393.949 54.9527 393.912 55.1795C392.623 56.4424 391.855 55.3281 391.087 54.5687L389.435 55.9059C387.04 53.2976 387.189 50.2105 387.453 47.0986C388.411 47.2637 388.279 48.0231 388.279 48.6669C388.205 50.602 388.604 52.526 389.443 54.2716C391.814 52.6207 389.782 49.8225 391.095 47.858C392.02 49.1127 391.327 50.5489 391.69 51.787C392.053 53.0252 391.905 54.6512 393.912 54.4944Z" fill="#48423F"/>
<path d="M267.591 65.1506C266.647 64.4728 265.481 64.1778 264.329 64.3252C264.205 63.1118 264.717 62.6743 265.98 62.6743C269.772 62.7321 273.571 62.6743 277.362 62.6743H289.157C286.505 66.1576 282.954 68.7825 280.269 72.274C278.799 74.189 278.617 76.7148 276.817 78.3243C274.868 80.5035 274.389 78.5637 273.918 77.1935C272.98 74.2159 271.806 71.3178 270.408 68.5266C269.672 67.2059 269.036 65.8522 267.591 65.1506Z" fill="#FDFDFD"/>
<path d="M364.202 70.8048C360.989 68.3781 358.132 65.4644 354.63 63.376C348.848 59.9918 343.008 56.6901 336.153 55.9472C336.979 53.7764 338.945 54.6513 340.473 54.3376C343.669 55.2539 346.94 55.2786 350.235 55.3034C353.374 55.3034 356.521 55.0723 359.651 55.7987C361.005 56.0494 362.399 55.9701 363.715 55.5675C364.954 55.2456 366.391 54.7421 367.514 56.0133C365.565 57.9117 365.433 60.3137 365.375 62.856C365.309 65.5469 366.176 68.4111 364.202 70.8048Z" fill="#94ADDA"/>
<path d="M364.202 70.8048V56.7066C365.334 55.6831 366.49 56.2608 367.506 56.038C368.968 56.4507 370.067 57.6888 371.677 57.7961L371.603 57.7384C373.658 58.737 375.49 60.1408 376.988 61.8655C377.954 63.0954 378.417 64.4243 377.492 65.9018L376.005 68.378C374.064 71.1597 373.585 74.4366 372.891 77.6393C372.759 78.4647 373.213 79.3562 372.346 79.967L364.202 70.8048Z" fill="#FEFEFE"/>
<path d="M66.0676 338.506C66.0676 338.861 65.952 339.166 65.5143 339.199C65.2442 339.176 64.9816 339.098 64.7421 338.971C64.5026 338.844 64.2911 338.671 64.1201 338.461C63.9491 338.25 63.822 338.008 63.7465 337.748C63.6711 337.488 63.6487 337.215 63.6807 336.946C63.6807 335.295 63.6807 333.694 63.6807 331.944C65.6051 333.826 67.067 335.724 66.0676 338.506Z" fill="#7BAD93"/>
<path d="M246.158 63.4667C248.495 63.6153 248.446 62.3112 247.851 60.6933C249.016 59.4139 250.42 61.3537 251.584 60.2641L253.566 64.3334C253.88 66.0998 252.278 66.2319 251.336 66.6034C250.796 66.8601 250.2 66.9772 249.602 66.9441C249.005 66.9109 248.426 66.7285 247.917 66.4135C246.926 65.7895 246.117 64.9154 245.571 63.8794C245.571 63.8299 245.687 63.6566 245.778 63.5906C245.896 63.5273 246.025 63.4853 246.158 63.4667Z" fill="#F0D2B8"/>
<path d="M267.591 65.1506C268.937 65.0185 269.466 66.0173 270.069 66.9253C271.896 69.7891 273.275 72.9149 274.157 76.1948C274.471 77.1803 274.846 78.1452 275.281 79.0837C275.892 78.8279 276.148 78.1923 276.792 78.3409L275.751 81.6426C275.677 81.762 275.574 81.8606 275.451 81.9289C275.328 81.9973 275.19 82.0332 275.049 82.0332C274.909 82.0332 274.77 81.9973 274.648 81.9289C274.525 81.8606 274.421 81.762 274.347 81.6426C272.877 75.7903 271.151 70.0949 267.591 65.1506Z" fill="#302A22"/>
<path d="M274.347 81.5848H275.751C276.577 87.0987 277.734 92.5712 277.511 98.1841C277.511 98.9517 277.816 99.8349 276.957 100.495C275.198 100.248 275.743 98.6876 275.974 97.9612C277.065 94.544 275.487 91.2588 275.644 87.8828C275.743 85.8193 274.818 83.6897 274.347 81.5848Z" fill="#715A46"/>
<path d="M373.28 85.745C373.66 86.3145 373.94 86.9456 374.105 87.6104C374.127 90.6106 374.439 93.6016 375.039 96.5415C375.124 96.8357 375.112 97.1493 375.005 97.4361C374.897 97.723 374.701 97.9678 374.444 98.1345C373.243 94.1038 372.644 89.9177 372.668 85.7119C372.858 85.4065 373.081 85.4148 373.28 85.745Z" fill="#685341"/>
<path d="M377.541 65.9101C378.045 63.2275 376.253 61.783 374.568 60.2147C373.635 59.3315 371.941 59.348 371.652 57.7384C374.956 57.92 376.476 60.5778 378.409 62.6497C378.371 63.2835 378.511 63.9152 378.813 64.4738C379.408 65.7945 378.566 65.9926 377.541 65.9101Z" fill="#615A54"/>
<path d="M246.149 62.6413C242.375 62.1461 240.591 60.3714 239.79 56.038C241.598 56.7396 241.136 58.8527 242.499 59.6698C243.78 60.5706 244.987 61.5726 246.108 62.6661L246.149 62.6413Z" fill="#5E5145"/>
<path d="M372.586 77.5485C372.769 74.3536 373.694 71.2452 375.287 68.4689C375.344 68.345 375.766 68.4028 376.022 68.3781L373.321 77.5155C373.081 77.8869 372.833 77.8952 372.586 77.5485Z" fill="#64584C"/>
<path d="M372.586 77.5485C372.828 77.4991 373.078 77.4991 373.321 77.5485V85.8027H372.99L372.668 85.7614L372.396 80.0248L372.586 77.5485Z" fill="#1F1911"/>
<path d="M313.943 43.7474H320.435C320.105 46.9336 320.088 46.9501 317.222 46.9418C314.356 46.9336 314.323 46.9171 313.943 43.7474Z" fill="#F0CFB5"/>
<path d="M317.784 40.8832C316.959 40.7563 316.194 40.3755 315.595 39.7936C316.049 38.5968 316.297 37.3174 317.544 36.4919C318.337 37.9447 319.931 39.3231 317.784 40.8832Z" fill="#E8CBB2"/>
</svg>
