<svg width="42" height="42" viewBox="0 0 42 42" fill="none" xmlns="http://www.w3.org/2000/svg">
<path d="M11.1351 17.8125C12.0671 19.884 13.0041 21.9684 13.5665 24.1696C13.9445 25.6539 14.1512 27.1773 14.3095 28.7014C14.6035 31.5419 14.5233 34.3391 14.727 37.1854C14.7404 37.3711 15.0516 37.7432 15.1415 37.9062C15.2965 38.1867 15.5863 38.2821 15.5103 38.5933C15.449 38.8453 14.5262 38.7865 14.3565 38.7911C13.8051 38.8071 13.1936 38.9927 12.7324 38.5492C12.5577 38.3812 12.5913 38.0838 12.572 37.8553C12.4111 35.9599 11.435 33.4739 10.9054 31.0039C10.7752 30.3957 10.7214 29.2243 10.755 28.6036C10.7777 28.1869 10.8739 27.7753 10.8701 27.3583C10.8638 26.6443 10.5648 25.9656 10.2762 25.3104C9.68278 23.9634 9.10654 22.5959 8.81632 21.1524C8.5261 19.7088 8.53702 18.1704 9.0952 16.8096" fill="black"/>
<path d="M11.1005 17.8328C11.7683 19.3586 12.4555 20.8778 12.9952 22.4553C13.5437 24.0597 13.8881 25.7099 14.104 27.3903C14.3245 29.1052 14.4303 30.8255 14.4853 32.5529C14.5122 33.4102 14.5324 34.2674 14.5643 35.1246C14.5802 35.5586 14.5998 35.9926 14.6231 36.4266C14.6353 36.6442 14.6491 36.8621 14.6651 37.0793C14.6688 37.2023 14.7023 37.3226 14.7625 37.43C14.831 37.5526 14.9146 37.666 14.9944 37.7815C15.0611 37.8781 15.1162 37.9831 15.1901 38.0755C15.2741 38.1805 15.4001 38.2725 15.4509 38.4014C15.4929 38.5048 15.4769 38.6114 15.3745 38.6593C15.18 38.75 14.928 38.7433 14.718 38.7433C14.508 38.7433 14.3064 38.74 14.0989 38.758C13.7755 38.7862 13.4324 38.8374 13.1178 38.729C12.9574 38.6736 12.7675 38.5661 12.6936 38.4061C12.6247 38.2557 12.6373 38.0785 12.6285 37.9172C12.592 37.2502 12.4366 36.5833 12.2765 35.9373C11.8901 34.3741 11.3756 32.8457 11.0186 31.2753C10.8758 30.6453 10.82 30.0115 10.8028 29.3685C10.7908 29.0724 10.7954 28.7758 10.8166 28.4802C10.8515 28.0732 10.9393 27.6696 10.9204 27.2593C10.883 26.4587 10.5125 25.7229 10.198 25.0022C9.86658 24.2432 9.54738 23.4776 9.28698 22.6922C8.77794 21.1609 8.49486 19.5115 8.81994 17.913C8.89413 17.5406 9.00238 17.1757 9.14334 16.8231C9.1677 16.7635 9.07068 16.7391 9.04674 16.7966C8.43942 18.2939 8.47638 19.9563 8.83674 21.5095C9.0291 22.3335 9.30966 23.1336 9.62466 23.9177C9.77754 24.2991 9.93924 24.6771 10.1039 25.0517C10.2719 25.4407 10.4542 25.8262 10.5936 26.2277C10.733 26.6293 10.8288 27.0522 10.8141 27.4819C10.8002 27.8851 10.7129 28.2799 10.6969 28.6856C10.6739 29.3149 10.7019 29.945 10.7809 30.5697C10.8746 31.3215 11.0947 32.0628 11.295 32.7915C11.5134 33.5857 11.7503 34.3745 11.967 35.1687C12.1627 35.8848 12.345 36.6076 12.4555 37.3422C12.4802 37.5077 12.5008 37.6736 12.5147 37.8403C12.5277 37.9932 12.5197 38.149 12.5491 38.3023C12.6096 38.6102 12.904 38.7929 13.1921 38.8601C13.5101 38.9348 13.8389 38.8832 14.1581 38.858C14.366 38.842 14.5727 38.8529 14.7806 38.8487C14.9885 38.8445 15.2245 38.8429 15.4156 38.7542C15.6067 38.6656 15.6067 38.4338 15.4996 38.2729C15.4207 38.1545 15.3056 38.0629 15.2249 37.9474C15.1519 37.8416 15.0859 37.7307 15.0124 37.6244C14.9389 37.5182 14.8478 37.3947 14.7982 37.2662C14.7762 37.1913 14.7655 37.1136 14.7663 37.0356C14.7583 36.9193 14.7512 36.8033 14.744 36.687C14.6911 35.805 14.66 34.923 14.634 34.0435C14.5815 32.2757 14.5437 30.5059 14.3631 28.7456C14.1875 27.0308 13.9481 25.3159 13.4782 23.6544C13.0187 22.0303 12.371 20.4653 11.6814 18.9273C11.5112 18.5482 11.3388 18.1702 11.1644 17.7933C11.1425 17.7463 11.0753 17.7874 11.0955 17.8353L11.1005 17.8328Z" fill="black"/>
<path d="M10.4739 8.54028C10.5701 8.7129 10.673 8.89182 10.8372 9.00228C10.9658 9.08628 11.1207 9.12492 11.2572 9.20094C11.379 9.26432 11.473 9.37056 11.521 9.49914C11.563 9.62808 11.5315 9.78517 11.4252 9.86959C11.4749 9.92549 11.5097 9.99294 11.5266 10.0658C11.5434 10.1386 11.5417 10.2145 11.5217 10.2865C11.5016 10.3586 11.4638 10.4244 11.4118 10.4781C11.3597 10.5317 11.295 10.5715 11.2236 10.5937C11.3165 10.6407 11.3496 10.7617 11.3236 10.8641C11.2896 10.9632 11.2256 11.0492 11.1405 11.1103C10.7356 11.4387 10.0972 11.461 9.69736 11.1262C9.46048 10.928 9.31936 10.6323 9.25678 10.3303C9.1942 10.0283 9.19378 9.71629 9.1963 9.40632" fill="black"/>
<path d="M10.4466 8.55634C10.5104 8.69957 10.5974 8.83126 10.7041 8.9461C10.8167 9.06034 10.9586 9.11704 11.1027 9.18004C11.2388 9.23968 11.3715 9.3178 11.4433 9.45346C11.4782 9.51375 11.4914 9.58422 11.4805 9.65304C11.4697 9.72187 11.4355 9.78486 11.3837 9.83147C11.3734 9.84205 11.3677 9.85621 11.3677 9.87095C11.3677 9.88569 11.3734 9.89985 11.3837 9.91043C11.4254 9.95975 11.4544 10.0186 11.4681 10.0817C11.4818 10.1449 11.4798 10.2105 11.4623 10.2727C11.4448 10.3349 11.4122 10.3918 11.3675 10.4385C11.3228 10.4852 11.2674 10.5202 11.206 10.5404C11.1951 10.5437 11.1854 10.5501 11.178 10.5588C11.1706 10.5675 11.1659 10.5782 11.1645 10.5895C11.163 10.6008 11.1648 10.6123 11.1697 10.6226C11.1746 10.6329 11.1824 10.6415 11.1921 10.6475C11.3005 10.7088 11.282 10.8512 11.2224 10.9415C11.1524 11.0353 11.0617 11.1116 10.9574 11.1645C10.7595 11.2736 10.5342 11.3227 10.3089 11.3057C10.0831 11.2899 9.86928 11.1985 9.70197 11.0461C9.51423 10.8735 9.39874 10.6379 9.33448 10.3938C9.25048 10.073 9.253 9.73529 9.25048 9.406C9.24924 9.39143 9.24257 9.37785 9.2318 9.36796C9.22103 9.35806 9.20693 9.35257 9.19231 9.35257C9.17768 9.35257 9.16358 9.35806 9.15281 9.36796C9.14204 9.37785 9.13537 9.39143 9.13413 9.406C9.12111 10.0074 9.13414 10.7139 9.62218 11.1486C10.0132 11.4976 10.6272 11.5131 11.0624 11.2364C11.1884 11.157 11.3144 11.052 11.3669 10.9092C11.416 10.7777 11.3769 10.6127 11.2493 10.5413L11.235 10.6484C11.3163 10.6238 11.39 10.579 11.4494 10.5183C11.5088 10.4576 11.5519 10.3828 11.5746 10.301C11.5974 10.2191 11.5991 10.1329 11.5796 10.0502C11.5601 9.96753 11.52 9.89114 11.463 9.82811V9.90707C11.5166 9.85791 11.5557 9.79497 11.5759 9.72511C11.5961 9.65526 11.5967 9.58119 11.5777 9.511C11.5407 9.36106 11.4244 9.23968 11.2938 9.16408C11.1392 9.07462 10.9553 9.0427 10.8133 8.93014C10.6713 8.81758 10.5941 8.6668 10.5012 8.52274C10.497 8.5155 10.4901 8.51024 10.482 8.50811C10.4738 8.50599 10.4652 8.50717 10.458 8.5114C10.4507 8.51564 10.4455 8.52257 10.4433 8.53068C10.4412 8.5388 10.4424 8.54742 10.4466 8.55466V8.55634Z" fill="black"/>
<path d="M5.89726 19.5653C5.08204 21.5666 5.85106 24.518 5.37604 26.6281C5.13244 27.7087 4.39366 28.6184 3.79474 29.9629C2.23192 33.4703 2.30122 34.6862 1.1395 37.6564C1.045 37.8983 1.00426 38.1856 1.12396 38.4162C1.30078 38.7585 1.76572 38.7984 2.15128 38.7942L3.1975 38.7803C3.46882 38.7766 3.80734 38.7262 3.8884 38.467C3.98206 38.1676 3.63892 37.9189 3.5524 37.6174C3.4432 37.2394 3.6154 37.0684 3.8653 36.766C6.67678 33.3674 8.10982 30.4996 9.0145 27.2879C9.91918 24.0761 9.96286 21.3361 9.8965 18" fill="black"/>
<path d="M5.86622 19.5564C5.60372 20.1978 5.50922 20.8929 5.47394 21.5808C5.4353 22.3368 5.46722 23.0966 5.48612 23.8539C5.50376 24.5805 5.51552 25.3121 5.42774 26.0349C5.38952 26.3779 5.31476 26.7158 5.20472 27.0429C5.0839 27.372 4.93816 27.6915 4.76876 27.9984C4.38656 28.7158 3.98 29.4138 3.65324 30.1598C3.34748 30.857 3.06524 31.5638 2.81324 32.2824C2.42264 33.39 2.13242 34.524 1.7876 35.6433C1.593 36.2744 1.37712 36.8985 1.13996 37.5156C1.01396 37.8378 0.902243 38.2296 1.13996 38.5316C1.3235 38.7672 1.64396 38.8256 1.92662 38.8395C2.34158 38.8617 2.76326 38.8357 3.17906 38.829C3.43106 38.8252 3.7847 38.7979 3.91406 38.5383C4.06316 38.2389 3.77714 37.9705 3.65072 37.7248C3.5705 37.5702 3.539 37.3821 3.60452 37.2166C3.67004 37.0511 3.80234 36.9175 3.91364 36.7831C4.96994 35.5042 5.95106 34.1586 6.78434 32.7226C7.50603 31.4801 8.10888 30.1723 8.58488 28.8166C9.11343 27.3189 9.49052 25.772 9.71048 24.1991C9.93434 22.5725 9.98054 20.9303 9.9692 19.2902C9.9664 18.8592 9.96038 18.4285 9.95114 17.9978C9.95114 17.9839 9.94561 17.9705 9.93577 17.9607C9.92592 17.9508 9.91257 17.9453 9.89864 17.9453C9.88472 17.9453 9.87136 17.9508 9.86152 17.9607C9.85167 17.9705 9.84614 17.9839 9.84614 17.9978C9.87764 19.6455 9.88814 21.2973 9.74786 22.9408C9.6089 24.5674 9.30178 26.1752 8.83142 27.7385C8.43255 29.0736 7.91326 30.3697 7.27994 31.6108C6.56846 32.9968 5.71292 34.3056 4.77128 35.5458C4.49996 35.9031 4.22164 36.2551 3.93632 36.6017C3.74774 36.8314 3.4718 37.0792 3.47012 37.3997C3.47368 37.555 3.5191 37.7065 3.60158 37.8382C3.68558 37.9768 3.80108 38.1091 3.8435 38.2674C3.9506 38.6706 3.43148 38.7244 3.1589 38.7294C2.74982 38.7353 2.33528 38.7609 1.92662 38.7391C1.60406 38.7214 1.22186 38.6341 1.1261 38.2771C1.02572 37.905 1.2521 37.5127 1.3781 37.1729C1.4929 36.8649 1.60168 36.554 1.70444 36.2401C2.05934 35.1624 2.33444 34.0611 2.68262 32.9813C3.14756 31.5357 3.71624 30.1089 4.45208 28.7813C4.78556 28.1786 5.14844 27.5776 5.3513 26.9153C5.54828 26.2689 5.58608 25.578 5.5907 24.906C5.60456 23.4419 5.40716 21.9496 5.66966 20.496C5.72508 20.1801 5.81189 19.8706 5.9288 19.572C5.94434 19.5329 5.88176 19.5165 5.86622 19.5548V19.5564Z" fill="black"/>
<path d="M10.031 11.8884C10.5572 11.9397 11.0259 12.2492 11.4094 12.6133C11.7929 12.9775 12.1146 13.4034 12.5014 13.7662C12.5532 13.8077 12.5951 13.8602 12.624 13.92C12.6396 13.9683 12.6457 14.0192 12.6421 14.0699C12.6298 14.761 12.3602 15.4226 11.8861 15.9255C11.8155 15.9998 11.5039 16.4122 11.4014 16.4127C11.3313 16.4127 11.1347 16.3081 11.0734 16.2736C10.4434 15.9175 10.1952 15.2551 9.61475 14.8246" fill="#18C4FF"/>
<path d="M10.0309 11.9224C10.6563 11.9985 11.1649 12.4197 11.5849 12.8624C11.8176 13.1085 12.0339 13.3702 12.2682 13.615C12.3259 13.6755 12.385 13.735 12.4455 13.7935C12.4988 13.8448 12.5605 13.8952 12.5765 13.9712C12.587 14.049 12.587 14.1278 12.5765 14.2056C12.5715 14.2803 12.5635 14.3551 12.5517 14.4294C12.5051 14.7287 12.4094 15.0182 12.2682 15.2862C12.1983 15.4185 12.1178 15.5449 12.0276 15.6642C11.9574 15.757 11.8759 15.8394 11.8012 15.9284C11.7411 16.0002 11.6815 16.0729 11.6197 16.1434C11.5636 16.2142 11.4992 16.2779 11.4278 16.3333C11.422 16.3375 11.416 16.3412 11.4097 16.3446L11.4009 16.3492C11.3875 16.3539 11.4043 16.3492 11.398 16.3492L11.3774 16.3446C11.3263 16.3293 11.2769 16.3089 11.23 16.2837C11.1222 16.2317 11.0194 16.1698 10.923 16.0989C10.4815 15.7701 10.2329 15.2535 9.8171 14.8981C9.76306 14.8519 9.70706 14.8081 9.6491 14.7667C9.58778 14.7247 9.50756 14.8251 9.56762 14.8721C10.0296 15.2312 10.3085 15.7629 10.7579 16.1321C10.8604 16.2171 10.9711 16.2916 11.0884 16.3547C11.1397 16.382 11.1918 16.4076 11.2451 16.4307C11.2927 16.4556 11.3446 16.4711 11.398 16.4765C11.4765 16.4765 11.5454 16.4038 11.5966 16.353C11.6735 16.277 11.7432 16.1938 11.8121 16.1107C11.97 15.9179 12.138 15.7394 12.2703 15.5273C12.5235 15.1212 12.6696 14.6574 12.6949 14.1795C12.7034 14.0998 12.7012 14.0193 12.6882 13.9401C12.6662 13.8652 12.6223 13.7985 12.5622 13.7486C12.3064 13.5042 12.0725 13.2412 11.8344 12.9804C11.4039 12.51 10.9041 12.0283 10.2589 11.8884C10.1832 11.8721 10.1064 11.8607 10.0292 11.8544C9.9851 11.8506 9.9872 11.9174 10.0292 11.9224H10.0309Z" fill="#18C4FF"/>
<path d="M8.70214 11.5236C8.26828 11.569 7.8298 11.6173 7.41946 11.7664C7.00912 11.9155 6.6244 12.1763 6.41146 12.5568C6.28042 12.7912 6.22078 13.0575 6.1624 13.3195C5.99818 14.0587 5.83312 14.8034 5.81422 15.5602C5.79616 16.2784 5.9104 16.9979 5.84656 17.7136C5.83349 17.7957 5.83563 17.8796 5.85286 17.961C5.90914 18.1575 6.13132 18.2478 6.3283 18.3037C7.87074 18.7378 9.50625 18.713 11.0348 18.2323C11.1457 18.197 11.2608 18.1563 11.3385 18.0702C11.509 17.8803 11.4225 17.5851 11.3532 17.3394C11.2183 16.8542 11.1957 16.3448 11.2872 15.8496C11.3742 15.3813 11.5636 14.9231 11.5338 14.4477C11.5187 14.199 11.4439 13.9588 11.3696 13.7215L11.1302 12.9604C11.0508 12.7084 10.9659 12.4447 10.7816 12.2548C10.6106 12.0789 10.3737 11.986 10.1444 11.8983L9.2116 11.5404C9.1087 11.5009 8.9659 11.4741 8.9113 11.5698" fill="#18C4FF"/>
<path d="M8.70208 11.4904C8.00908 11.5324 7.26148 11.6424 6.71506 12.109C6.45676 12.33 6.29506 12.6164 6.20056 12.9406C6.14848 13.1196 6.1111 13.3031 6.0712 13.4866C6.0292 13.6836 5.98468 13.8806 5.9452 14.0784C5.86591 14.4638 5.80981 14.8535 5.7772 15.2456C5.75375 15.645 5.75613 16.0456 5.78434 16.4447C5.80534 16.8437 5.82844 17.2427 5.79904 17.6438C5.78686 17.8118 5.76208 17.9764 5.87464 18.1163C5.962 18.2247 6.09514 18.2843 6.2245 18.3297C6.57395 18.4411 6.93244 18.5219 7.29592 18.5712C7.66703 18.628 8.04152 18.66 8.4169 18.6669C9.16747 18.6807 9.91639 18.5918 10.6429 18.4027C10.819 18.3611 10.9923 18.3088 11.162 18.2461C11.3052 18.189 11.4249 18.0961 11.4707 17.9437C11.5165 17.7912 11.4863 17.6358 11.4506 17.4901C11.4086 17.3162 11.3569 17.1465 11.3283 16.9693C11.2664 16.5841 11.2744 16.1908 11.3519 15.8084C11.4262 15.4438 11.5522 15.0898 11.5854 14.7164C11.6198 14.3275 11.5039 13.9642 11.3892 13.5979L11.2078 13.0167C11.1603 12.8493 11.1013 12.6854 11.0314 12.5261C10.9642 12.3759 10.8637 12.2431 10.7374 12.1376C10.6065 12.0394 10.4623 11.9605 10.309 11.9032C10.1297 11.8297 9.94738 11.763 9.76636 11.6932C9.58534 11.6235 9.3997 11.5454 9.21322 11.4807C9.09646 11.4387 8.9482 11.427 8.87302 11.545C8.83732 11.6004 8.92594 11.6517 8.96122 11.5966C8.9965 11.5416 9.07252 11.558 9.12334 11.5698C9.20339 11.5925 9.28182 11.6205 9.35812 11.6538L9.89278 11.8583C10.1977 11.9746 10.5551 12.0721 10.7781 12.3258C10.8799 12.4503 10.9576 12.5927 11.007 12.7458C11.0684 12.9138 11.1179 13.0868 11.1717 13.2573C11.2296 13.443 11.288 13.6278 11.3456 13.8134C11.4032 13.985 11.4462 14.1612 11.4741 14.3401C11.522 14.7013 11.4321 15.0562 11.3414 15.4035C11.2502 15.7588 11.1805 16.1133 11.1839 16.4821C11.1857 16.6617 11.2018 16.8409 11.2317 17.018C11.2603 17.1881 11.3099 17.3519 11.351 17.5191C11.3846 17.6564 11.417 17.816 11.359 17.9517C11.2943 18.1016 11.1318 18.1507 10.9886 18.1953C9.6077 18.62 8.13942 18.6742 6.73102 18.3523C6.56602 18.3176 6.40309 18.2737 6.24298 18.2209C6.12202 18.1789 5.98678 18.1146 5.92714 17.9941C5.88976 17.9197 5.89522 17.8349 5.90194 17.7543C5.90992 17.6598 5.91706 17.5653 5.92084 17.4708C5.92798 17.2792 5.92504 17.0881 5.9179 16.897C5.90362 16.5169 5.87254 16.1377 5.87044 15.7576C5.87073 15.3771 5.90121 14.9972 5.96158 14.6215C6.02038 14.2435 6.10018 13.8693 6.18292 13.4959C6.25726 13.1599 6.31774 12.8037 6.50842 12.5093C6.87466 11.9436 7.5643 11.7323 8.1943 11.6332C8.36776 11.6063 8.54206 11.5845 8.71594 11.5584C8.7529 11.553 8.7445 11.4904 8.7067 11.4929L8.70208 11.4904Z" fill="#18C4FF"/>
<path d="M10.313 18.3818L4.66441 15.5618C4.50066 15.4801 4.30165 15.5466 4.2199 15.7103L1.64003 20.8779C1.55828 21.0417 1.62475 21.2407 1.7885 21.3224L7.43714 24.1424C7.60088 24.2242 7.79989 24.1577 7.88164 23.994L10.4615 18.8263C10.5433 18.6626 10.4768 18.4636 10.313 18.3818Z" fill="white"/>
<path d="M7.46005 24.1021L6.90439 23.8249L5.56837 23.1579L3.94801 22.3482L2.54101 21.6463C2.30287 21.5275 2.06473 21.4095 1.82701 21.2898C1.79018 21.2732 1.75714 21.2493 1.72997 21.2194C1.70279 21.1896 1.68206 21.1544 1.66905 21.1162C1.65605 21.078 1.65106 21.0375 1.65439 20.9973C1.65772 20.957 1.6693 20.9179 1.68841 20.8824L1.81735 20.6241L2.41459 19.4292L3.21259 17.8273L3.92659 16.4018C4.03705 16.18 4.14415 15.9562 4.25839 15.7365C4.29183 15.6684 4.35066 15.6162 4.42222 15.5911C4.49378 15.5659 4.57235 15.5699 4.64101 15.6021L4.68301 15.6223L4.97449 15.768L6.16435 16.3619L7.75741 17.1574L9.26731 17.9109L10.1943 18.3729C10.3014 18.4266 10.4068 18.4741 10.4416 18.6047C10.4736 18.7236 10.4143 18.8185 10.3644 18.9189L9.86455 19.9197L9.08587 21.4796L8.32399 23.0055L7.87333 23.9085L7.84435 23.9664C7.81107 24.0345 7.75235 24.0868 7.68085 24.1121C7.60935 24.1373 7.53081 24.1334 7.46215 24.1012C7.40797 24.0756 7.36051 24.1563 7.41469 24.1819C7.50432 24.226 7.60763 24.2334 7.70262 24.2025C7.79761 24.1715 7.87679 24.1048 7.92331 24.0164C7.93129 24.0013 7.93885 23.9857 7.94641 23.9702L8.10643 23.6502L8.74945 22.3616L9.56551 20.7278L10.248 19.3565L10.4454 18.9609C10.4996 18.8521 10.5571 18.7509 10.5374 18.6211C10.5276 18.5605 10.5034 18.5032 10.4668 18.454C10.4303 18.4047 10.3825 18.3649 10.3274 18.338L10.2568 18.3027L9.91243 18.1309L8.63689 17.4938L7.00519 16.6794L5.53141 15.9427L4.72459 15.54C4.70443 15.5299 4.68259 15.5194 4.66285 15.5106C4.57477 15.474 4.47616 15.4718 4.38656 15.5045C4.29695 15.5371 4.22288 15.6023 4.17901 15.687C4.14835 15.7449 4.12021 15.8041 4.09081 15.8629L3.53641 16.9738L2.73463 18.5795L1.98997 20.0709C1.86397 20.3271 1.73335 20.5825 1.60651 20.8391C1.58207 20.8845 1.56695 20.9342 1.56205 20.9855C1.55715 21.0368 1.56258 21.0886 1.578 21.1378C1.59342 21.1869 1.61853 21.2325 1.65185 21.2718C1.68517 21.3111 1.72602 21.3433 1.77199 21.3666L1.98787 21.4741L3.09961 22.0294L4.69183 22.824L6.25213 23.604L7.27021 24.1122L7.41259 24.1836C7.46635 24.2096 7.51381 24.129 7.46005 24.1021Z" fill="black"/>
<path d="M6.1228 18.1404L6.86251 16.6587L8.11346 17.2832L7.37376 18.7649L6.1228 18.1404Z" fill="black"/>
<path d="M34.7442 3.15454H28.4307C28.2477 3.15454 28.0994 3.3029 28.0994 3.48592V9.26176C28.0994 9.44478 28.2477 9.59314 28.4307 9.59314H34.7442C34.9272 9.59314 35.0756 9.44478 35.0756 9.26176V3.48592C35.0756 3.3029 34.9272 3.15454 34.7442 3.15454Z" fill="black"/>
<path d="M34.7441 9.54652H29.2462C28.9804 9.54652 28.7145 9.54652 28.4482 9.54652C28.4079 9.54776 28.3677 9.54068 28.3302 9.52571C28.2927 9.51075 28.2587 9.48822 28.2303 9.45954C28.2019 9.43085 28.1797 9.39662 28.1651 9.35898C28.1505 9.32134 28.1438 9.2811 28.1454 9.24076V4.23267C28.1454 3.98487 28.1416 3.73707 28.1454 3.48927C28.1456 3.41343 28.1757 3.34072 28.229 3.28681C28.2824 3.23291 28.3548 3.20215 28.4306 3.20115H34.6361C34.7558 3.20115 34.8709 3.19737 34.9595 3.29985C35.0397 3.39183 35.0288 3.50481 35.0288 3.61695V9.1933V9.2584C35.0287 9.3342 34.9988 9.40692 34.9455 9.46083C34.8922 9.51474 34.8198 9.54552 34.7441 9.54652C34.7317 9.54652 34.7198 9.55143 34.7111 9.56017C34.7023 9.56891 34.6974 9.58077 34.6974 9.59314C34.6974 9.6055 34.7023 9.61736 34.7111 9.6261C34.7198 9.63484 34.7317 9.63976 34.7441 9.63976C34.8438 9.63824 34.9391 9.59793 35.0097 9.52736C35.0802 9.4568 35.1205 9.36153 35.1221 9.26176V3.61191C35.1221 3.48969 35.1275 3.37251 35.0498 3.26625C35.0138 3.21697 34.9667 3.17693 34.9122 3.1494C34.8577 3.12188 34.7975 3.10766 34.7365 3.10791H28.4726C28.4487 3.10791 28.4251 3.10791 28.4012 3.10791C28.3065 3.11636 28.2184 3.15975 28.1539 3.22963C28.0895 3.2995 28.0534 3.39086 28.0526 3.48591V3.68247V8.38648V9.24496C28.0514 9.29647 28.0605 9.3477 28.0794 9.39564C28.0983 9.44357 28.1266 9.48723 28.1626 9.52403C28.1987 9.56084 28.2418 9.59004 28.2893 9.60992C28.3369 9.62979 28.3879 9.63994 28.4394 9.63976H28.6805H34.7441C34.7564 9.63976 34.7683 9.63484 34.777 9.6261C34.7858 9.61736 34.7907 9.6055 34.7907 9.59314C34.7907 9.58077 34.7858 9.56891 34.777 9.56017C34.7683 9.55143 34.7564 9.54652 34.7441 9.54652Z" fill="black"/>
<path d="M29.9192 3.15454H31.3174V4.8106H29.9192V3.15454Z" fill="black"/>
<path d="M31.847 3.15454H25.5335C25.3505 3.15454 25.2021 3.3029 25.2021 3.48592V9.26176C25.2021 9.44478 25.3505 9.59314 25.5335 9.59314H31.847C32.03 9.59314 32.1784 9.44478 32.1784 9.26176V3.48592C32.1784 3.3029 32.03 3.15454 31.847 3.15454Z" fill="white"/>
<path d="M31.8468 9.54652H26.3486C26.0832 9.54652 25.8173 9.54652 25.5506 9.54652C25.5103 9.54776 25.4701 9.54068 25.4326 9.52572C25.3951 9.51075 25.3611 9.48822 25.3327 9.45954C25.3043 9.43085 25.2821 9.39662 25.2675 9.35898C25.2529 9.32134 25.2462 9.2811 25.2478 9.24076C25.2478 9.14458 25.2478 9.0484 25.2478 8.9518V4.23268C25.2478 3.98488 25.2436 3.73708 25.2478 3.48928C25.2479 3.41347 25.2778 3.34076 25.3311 3.28684C25.3844 3.23293 25.4568 3.20215 25.5326 3.20116H31.7385C31.8582 3.20116 31.9733 3.19738 32.0623 3.29986C32.1425 3.39184 32.1316 3.50482 32.1316 3.61696V9.1933V9.2584C32.1315 9.3342 32.1016 9.40692 32.0483 9.46083C31.995 9.51474 31.9226 9.54552 31.8468 9.54652C31.8345 9.54652 31.8226 9.55143 31.8139 9.56017C31.8051 9.56891 31.8002 9.58077 31.8002 9.59314C31.8002 9.6055 31.8051 9.61736 31.8139 9.6261C31.8226 9.63484 31.8345 9.63976 31.8468 9.63976C31.9467 9.63835 32.042 9.59807 32.1126 9.52748C32.1831 9.4569 32.2234 9.36157 32.2248 9.26176C32.2248 9.24454 32.2248 9.22732 32.2248 9.2101V3.61192C32.2248 3.4897 32.2303 3.37252 32.153 3.26626C32.117 3.21692 32.0698 3.17683 32.0152 3.14931C31.9607 3.12178 31.9004 3.10759 31.8393 3.10792H25.575C25.5515 3.10792 25.5275 3.10792 25.504 3.10792C25.4093 3.11627 25.3211 3.15963 25.2566 3.22953C25.1922 3.29942 25.1561 3.39084 25.1554 3.48592V3.68248V8.38648V9.24496C25.1541 9.29648 25.1632 9.34774 25.182 9.3957C25.2009 9.44366 25.2292 9.48734 25.2653 9.52416C25.3014 9.56098 25.3445 9.59018 25.392 9.61003C25.4396 9.62989 25.4907 9.64 25.5422 9.63976H25.7833H31.8468C31.8592 9.63976 31.8711 9.63484 31.8798 9.6261C31.8885 9.61736 31.8935 9.6055 31.8935 9.59314C31.8935 9.58077 31.8885 9.56891 31.8798 9.56017C31.8711 9.55143 31.8592 9.54652 31.8468 9.54652Z" fill="black"/>
<path d="M27.991 3.15454H29.3891V4.8106H27.991V3.15454Z" fill="black"/>
<path d="M36.4267 32.7H31.335C31.152 32.7 31.0037 32.8483 31.0037 33.0313V37.6795C31.0037 37.8625 31.152 38.0109 31.335 38.0109H36.4267C36.6097 38.0109 36.7581 37.8625 36.7581 37.6795V33.0313C36.7581 32.8483 36.6097 32.7 36.4267 32.7Z" fill="black"/>
<path d="M36.4265 37.9637H31.9649C31.7578 37.9637 31.5512 37.9637 31.3441 37.9637C31.3049 37.9641 31.266 37.9566 31.2297 37.9416C31.1935 37.9266 31.1606 37.9045 31.1332 37.8764C31.1057 37.8484 31.0842 37.8152 31.0699 37.7786C31.0557 37.7421 31.0489 37.7031 31.0501 37.6638V33.5999C31.0501 33.4109 31.0467 33.2219 31.0501 33.0321C31.051 32.9568 31.0813 32.8848 31.1346 32.8316C31.1879 32.7783 31.26 32.7481 31.3353 32.7473H36.3509C36.4668 32.7473 36.5781 32.7583 36.6554 32.8624C36.7167 32.9464 36.7113 33.038 36.7113 33.1337V37.6785C36.7104 37.7538 36.6801 37.8258 36.6269 37.8791C36.5737 37.9324 36.5018 37.9627 36.4265 37.9637C36.4141 37.9637 36.4023 37.9686 36.3935 37.9774C36.3848 37.9861 36.3799 37.998 36.3799 38.0103C36.3799 38.0227 36.3848 38.0346 36.3935 38.0433C36.4023 38.0521 36.4141 38.057 36.4265 38.057C36.6529 38.0519 36.8045 37.8705 36.8045 37.6521V33.1295C36.8045 33.0258 36.8066 32.9258 36.7482 32.8326C36.7137 32.7779 36.6659 32.7327 36.6093 32.7013C36.5527 32.6699 36.4891 32.6532 36.4244 32.6528H31.3693C31.3529 32.6528 31.3365 32.6528 31.3202 32.6528C31.2361 32.6567 31.1557 32.6883 31.0915 32.7426C31.0272 32.7969 30.9827 32.8709 30.9648 32.9531C30.9556 33.0227 30.9529 33.093 30.9569 33.1631V36.9658V37.6676C30.9561 37.7183 30.9653 37.7686 30.984 37.8157C31.0028 37.8628 31.0306 37.9057 31.066 37.942C31.1013 37.9783 31.1435 38.0072 31.1901 38.0272C31.2367 38.0471 31.2867 38.0577 31.3374 38.0582H31.51H36.4265C36.439 38.0582 36.4511 38.0532 36.4599 38.0444C36.4688 38.0355 36.4738 38.0235 36.4738 38.011C36.4738 37.9984 36.4688 37.9864 36.4599 37.9776C36.4511 37.9687 36.439 37.9637 36.4265 37.9637Z" fill="black"/>
<path d="M32.5046 32.7H33.658V34.0658H32.5046V32.7Z" fill="black"/>
<path d="M34.0368 32.7H28.9451C28.7621 32.7 28.6138 32.8483 28.6138 33.0313V37.6795C28.6138 37.8625 28.7621 38.0109 28.9451 38.0109H34.0368C34.2198 38.0109 34.3682 37.8625 34.3682 37.6795V33.0313C34.3682 32.8483 34.2198 32.7 34.0368 32.7Z" fill="white"/>
<path d="M34.0367 37.9637H29.575C29.368 37.9637 29.1613 37.9637 28.9543 37.9637C28.9151 37.9641 28.8762 37.9566 28.8399 37.9416C28.8037 37.9266 28.7708 37.9045 28.7434 37.8764C28.7159 37.8484 28.6944 37.8152 28.6801 37.7786C28.6658 37.7421 28.6591 37.7031 28.6603 37.6638V33.5999C28.6603 33.4109 28.6569 33.2219 28.6603 33.0321C28.6612 32.9568 28.6915 32.8848 28.7448 32.8316C28.7981 32.7783 28.8701 32.7481 28.9455 32.7473H33.9611C34.077 32.7473 34.1883 32.7583 34.2656 32.8624C34.3269 32.9464 34.3215 33.038 34.3215 33.1337V37.6785C34.3206 37.7538 34.2903 37.8258 34.2371 37.8791C34.1839 37.9324 34.112 37.9627 34.0367 37.9637C34.0243 37.9637 34.0125 37.9686 34.0037 37.9774C33.995 37.9861 33.9901 37.998 33.9901 38.0103C33.9901 38.0227 33.995 38.0346 34.0037 38.0433C34.0125 38.0521 34.0243 38.057 34.0367 38.057C34.2631 38.0519 34.4147 37.8705 34.4147 37.6521V33.1295C34.4147 33.0258 34.4168 32.9258 34.3584 32.8326C34.3239 32.7779 34.2761 32.7327 34.2195 32.7013C34.1629 32.6699 34.0993 32.6532 34.0346 32.6528H28.9799C28.9635 32.6528 28.9471 32.6528 28.9308 32.6528C28.8468 32.6568 28.7664 32.6883 28.7023 32.7426C28.6381 32.797 28.5936 32.871 28.5759 32.9531C28.5662 33.0227 28.5634 33.093 28.5675 33.1631V36.9658V37.6676C28.5667 37.7183 28.5759 37.7686 28.5946 37.8157C28.6134 37.8628 28.6412 37.9057 28.6766 37.942C28.7119 37.9783 28.7541 38.0072 28.8007 38.0272C28.8473 38.0471 28.8973 38.0577 28.948 38.0582H29.1206H34.0367C34.0492 38.0582 34.0612 38.0532 34.0701 38.0444C34.079 38.0355 34.0839 38.0235 34.0839 38.011C34.0839 37.9984 34.079 37.9864 34.0701 37.9776C34.0612 37.9687 34.0492 37.9637 34.0367 37.9637Z" fill="black"/>
<path d="M30.9141 32.7H32.0674V34.0658H30.9141V32.7Z" fill="black"/>
<path d="M29.8552 32.7H24.7635C24.5805 32.7 24.4321 32.8483 24.4321 33.0313V37.6795C24.4321 37.8625 24.5805 38.0109 24.7635 38.0109H29.8552C30.0382 38.0109 30.1865 37.8625 30.1865 37.6795V33.0313C30.1865 32.8483 30.0382 32.7 29.8552 32.7Z" fill="black"/>
<path d="M29.8549 37.9637H25.3937C25.1866 37.9637 24.98 37.9637 24.7729 37.9637C24.7337 37.9641 24.6948 37.9566 24.6586 37.9416C24.6223 37.9266 24.5895 37.9045 24.562 37.8764C24.5346 37.8484 24.5131 37.8152 24.4988 37.7786C24.4845 37.7421 24.4778 37.7031 24.4789 37.6638C24.4789 37.5861 24.4789 37.5084 24.4789 37.4307V33.5999C24.4789 33.4109 24.4756 33.2219 24.4789 33.0321C24.4798 32.9568 24.5101 32.8849 24.5633 32.8317C24.6165 32.7785 24.6885 32.7482 24.7637 32.7473H29.7781C29.8944 32.7473 30.0057 32.7583 30.083 32.8624C30.1443 32.9464 30.1389 33.038 30.1389 33.1337V37.6785C30.1379 37.7539 30.1075 37.8258 30.0543 37.8791C30.001 37.9324 29.929 37.9627 29.8537 37.9637C29.8413 37.9637 29.8295 37.9686 29.8207 37.9774C29.812 37.9861 29.8071 37.998 29.8071 38.0103C29.8071 38.0227 29.812 38.0346 29.8207 38.0433C29.8295 38.0521 29.8413 38.057 29.8537 38.057C30.0805 38.0519 30.2317 37.8705 30.2317 37.6521V33.1295C30.2317 33.0258 30.2317 32.9258 30.1754 32.8326C30.1409 32.7779 30.0931 32.7327 30.0365 32.7013C29.9799 32.6699 29.9163 32.6532 29.8516 32.6528H24.7981C24.7818 32.6528 24.7654 32.6528 24.749 32.6528C24.665 32.6567 24.5846 32.6883 24.5203 32.7426C24.4561 32.7969 24.4115 32.8709 24.3937 32.9531C24.3842 33.0227 24.3815 33.093 24.3857 33.1631V36.9658V37.6676C24.3849 37.7183 24.3942 37.7686 24.4129 37.8157C24.4316 37.8628 24.4595 37.9057 24.4948 37.942C24.5302 37.9783 24.5723 38.0072 24.6189 38.0272C24.6655 38.0471 24.7156 38.0577 24.7662 38.0582H24.9388H29.8549C29.8675 38.0582 29.8795 38.0532 29.8884 38.0444C29.8972 38.0355 29.9022 38.0235 29.9022 38.011C29.9022 37.9984 29.8972 37.9864 29.8884 37.9776C29.8795 37.9687 29.8675 37.9637 29.8549 37.9637Z" fill="black"/>
<path d="M25.9333 32.7H27.0867V34.0658H25.9333V32.7Z" fill="black"/>
<path d="M27.4655 32.7H22.3739C22.1908 32.7 22.0425 32.8483 22.0425 33.0313V37.6795C22.0425 37.8625 22.1908 38.0109 22.3739 38.0109H27.4655C27.6485 38.0109 27.7969 37.8625 27.7969 37.6795V33.0313C27.7969 32.8483 27.6485 32.7 27.4655 32.7Z" fill="white"/>
<path d="M27.4656 37.9637H23.0039C22.7969 37.9637 22.5902 37.9637 22.3832 37.9637C22.3439 37.9641 22.305 37.9566 22.2688 37.9416C22.2325 37.9266 22.1997 37.9045 22.1722 37.8764C22.1448 37.8484 22.1233 37.8152 22.109 37.7786C22.0947 37.7421 22.088 37.7031 22.0892 37.6638V33.5999C22.0892 33.4109 22.0858 33.2219 22.0892 33.0321C22.09 32.9568 22.1204 32.8848 22.1737 32.8316C22.227 32.7783 22.299 32.7481 22.3743 32.7473H27.3896C27.5059 32.7473 27.6172 32.7583 27.6945 32.8624C27.7558 32.9464 27.7503 33.038 27.7503 33.1337V37.6785C27.7495 37.7538 27.7192 37.8258 27.666 37.8791C27.6128 37.9324 27.5409 37.9627 27.4656 37.9637C27.4532 37.9637 27.4414 37.9686 27.4326 37.9774C27.4239 37.9861 27.419 37.998 27.419 38.0103C27.419 38.0227 27.4239 38.0346 27.4326 38.0433C27.4414 38.0521 27.4532 38.057 27.4656 38.057C27.692 38.0519 27.8436 37.8705 27.8436 37.6521V33.1295C27.8436 33.0258 27.8436 32.9258 27.7873 32.8326C27.7528 32.7779 27.705 32.7327 27.6484 32.7013C27.5918 32.6699 27.5282 32.6532 27.4635 32.6528H22.4084C22.392 32.6528 22.3756 32.6528 22.3592 32.6528C22.2752 32.6567 22.1948 32.6883 22.1305 32.7426C22.0663 32.7969 22.0218 32.8709 22.0039 32.9531C21.9946 33.0227 21.992 33.093 21.9959 33.1631V36.9658V37.6676C21.9951 37.7183 22.0044 37.7686 22.0231 37.8157C22.0418 37.8628 22.0697 37.9057 22.105 37.942C22.1404 37.9783 22.1826 38.0072 22.2291 38.0272C22.2757 38.0471 22.3258 38.0577 22.3764 38.0582H22.5491H27.4656C27.4781 38.0582 27.4901 38.0532 27.499 38.0444C27.5079 38.0355 27.5128 38.0235 27.5128 38.011C27.5128 37.9984 27.5079 37.9864 27.499 37.9776C27.4901 37.9687 27.4781 37.9637 27.4656 37.9637Z" fill="black"/>
<path d="M24.3428 32.7H25.4961V34.0658H24.3428V32.7Z" fill="black"/>
<path d="M34.792 21.7627H31.9666C31.7836 21.7627 31.6353 21.9111 31.6353 22.0941V28.2215C31.6353 28.4045 31.7836 28.5528 31.9666 28.5528H34.792C34.975 28.5528 35.1234 28.4045 35.1234 28.2215V22.0941C35.1234 21.9111 34.975 21.7627 34.792 21.7627Z" fill="black"/>
<path d="M34.7919 28.5063H32.7683C32.5033 28.5063 32.2379 28.5097 31.9729 28.5063C31.934 28.5065 31.8955 28.4988 31.8597 28.4838C31.8238 28.4687 31.7914 28.4466 31.7642 28.4188C31.7371 28.391 31.7158 28.358 31.7016 28.3219C31.6875 28.2857 31.6807 28.247 31.6818 28.2081C31.6818 28.1535 31.6818 28.0994 31.6818 28.0448V22.4672C31.6818 22.3412 31.6797 22.2185 31.6818 22.0946C31.6827 22.0193 31.7129 21.9474 31.7661 21.8941C31.8193 21.8408 31.8913 21.8104 31.9666 21.8094H34.7869C34.8428 21.8092 34.8977 21.8252 34.9448 21.8553C34.992 21.8855 35.0295 21.9286 35.0527 21.9795C35.0743 22.0407 35.0824 22.1057 35.0767 22.1702V28.1968C35.0767 28.3648 34.9658 28.5026 34.7919 28.5063C34.7802 28.5074 34.7694 28.5129 34.7615 28.5215C34.7537 28.5302 34.7493 28.5415 34.7493 28.5532C34.7493 28.5649 34.7537 28.5762 34.7615 28.5848C34.7694 28.5935 34.7802 28.5989 34.7919 28.6C34.894 28.5981 34.9911 28.5558 35.062 28.4823C35.1329 28.4088 35.1717 28.3102 35.1699 28.2081C35.1699 28.1519 35.1699 28.0952 35.1699 28.0401V22.4004C35.1699 22.2441 35.1997 22.0337 35.1136 21.8964C35.0791 21.8418 35.0315 21.7968 34.975 21.7655C34.9186 21.7341 34.8552 21.7175 34.7906 21.717H32.0186C31.9968 21.717 31.9766 21.717 31.9535 21.717C31.8768 21.7207 31.8029 21.7474 31.7415 21.7936C31.6801 21.8399 31.634 21.9034 31.6091 21.9762C31.5922 22.0399 31.5858 22.1061 31.5902 22.1719V27.7382V28.2144C31.5898 28.3155 31.6292 28.4127 31.7 28.4849C31.7708 28.5571 31.8672 28.5985 31.9682 28.6H32.2102H34.7919C34.8036 28.5989 34.8144 28.5935 34.8223 28.5848C34.8301 28.5762 34.8345 28.5649 34.8345 28.5532C34.8345 28.5415 34.8301 28.5302 34.8223 28.5215C34.8144 28.5129 34.8036 28.5074 34.7919 28.5063Z" fill="black"/>
<path d="M32.5449 21.7627H33.2442V22.5905H32.5449V21.7627Z" fill="black"/>
<path d="M33.3435 21.7627H30.5181C30.3351 21.7627 30.1868 21.9111 30.1868 22.0941V28.2215C30.1868 28.4045 30.3351 28.5528 30.5181 28.5528H33.3435C33.5265 28.5528 33.6749 28.4045 33.6749 28.2215V22.0941C33.6749 21.9111 33.5265 21.7627 33.3435 21.7627Z" fill="white"/>
<path d="M33.3434 28.5063H31.3199C31.0548 28.5063 30.7894 28.5097 30.5244 28.5063C30.4855 28.5065 30.447 28.4988 30.4112 28.4838C30.3753 28.4687 30.3429 28.4466 30.3157 28.4188C30.2886 28.391 30.2673 28.358 30.2532 28.3219C30.239 28.2857 30.2323 28.247 30.2333 28.2081C30.2333 28.1535 30.2333 28.0994 30.2333 28.0448V22.4672C30.2333 22.3412 30.2312 22.2185 30.2333 22.0946C30.2342 22.0193 30.2645 21.9474 30.3177 21.8941C30.3709 21.8408 30.4428 21.8104 30.5181 21.8094H33.338C33.394 21.8091 33.449 21.825 33.4962 21.8552C33.5434 21.8854 33.5809 21.9286 33.6042 21.9795C33.6258 22.0407 33.6339 22.1057 33.6282 22.1702V28.1968C33.6282 28.3648 33.5173 28.5026 33.3434 28.5063C33.3318 28.5074 33.3209 28.5129 33.3131 28.5215C33.3052 28.5302 33.3008 28.5415 33.3008 28.5532C33.3008 28.5649 33.3052 28.5762 33.3131 28.5848C33.3209 28.5935 33.3318 28.5989 33.3434 28.6C33.4455 28.5981 33.5427 28.5558 33.6135 28.4823C33.6844 28.4088 33.7232 28.3102 33.7214 28.2081C33.7214 28.1519 33.7214 28.0952 33.7214 28.0401V22.4004C33.7214 22.2441 33.7512 22.0337 33.6651 21.8964C33.6306 21.8418 33.583 21.7968 33.5266 21.7655C33.4701 21.7341 33.4067 21.7175 33.3422 21.717H30.5702C30.5483 21.717 30.5282 21.717 30.5051 21.717C30.4283 21.7207 30.3544 21.7474 30.293 21.7936C30.2315 21.8398 30.1854 21.9034 30.1607 21.9762C30.1437 22.0399 30.1373 22.1061 30.1418 22.1719V27.7382V28.2144C30.1413 28.3155 30.1807 28.4127 30.2515 28.4849C30.3223 28.5571 30.4187 28.5985 30.5198 28.6H30.7613H33.3434C33.3551 28.5989 33.3659 28.5935 33.3738 28.5848C33.3817 28.5762 33.386 28.5649 33.386 28.5532C33.386 28.5415 33.3817 28.5302 33.3738 28.5215C33.3659 28.5129 33.3551 28.5074 33.3434 28.5063Z" fill="black"/>
<path d="M31.5811 21.7627H32.2804V22.5905H31.5811V21.7627Z" fill="black"/>
<path d="M30.8271 21.7627H28.0018C27.8188 21.7627 27.6704 21.9111 27.6704 22.0941V28.2215C27.6704 28.4045 27.8188 28.5528 28.0018 28.5528H30.8271C31.0101 28.5528 31.1585 28.4045 31.1585 28.2215V22.0941C31.1585 21.9111 31.0101 21.7627 30.8271 21.7627Z" fill="black"/>
<path d="M30.8279 28.5063H28.8035C28.5385 28.5063 28.273 28.5097 28.008 28.5063C27.9692 28.5065 27.9307 28.4988 27.8948 28.4838C27.859 28.4687 27.8265 28.4466 27.7994 28.4188C27.7722 28.391 27.751 28.358 27.7368 28.3219C27.7226 28.2857 27.7159 28.247 27.717 28.2081V22.4672C27.717 22.3412 27.717 22.2185 27.717 22.0946C27.7179 22.0194 27.7482 21.9475 27.8014 21.8942C27.8546 21.8409 27.9265 21.8105 28.0017 21.8094H30.822C30.878 21.8092 30.9329 21.8252 30.98 21.8553C31.0272 21.8855 31.0646 21.9286 31.0879 21.9795C31.1094 22.0407 31.1176 22.1057 31.1118 22.1702V28.1968C31.1118 28.3648 31.0014 28.5026 30.8271 28.5063C30.8154 28.5074 30.8046 28.5129 30.7967 28.5215C30.7888 28.5302 30.7845 28.5415 30.7845 28.5532C30.7845 28.5649 30.7888 28.5762 30.7967 28.5848C30.8046 28.5935 30.8154 28.5989 30.8271 28.6C30.8776 28.5991 30.9275 28.5883 30.9739 28.5681C31.0203 28.5479 31.0622 28.5188 31.0973 28.4824C31.1324 28.446 31.16 28.4031 31.1785 28.356C31.197 28.3089 31.206 28.2587 31.2051 28.2081C31.2051 28.1519 31.2051 28.0952 31.2051 28.0401V22.4004C31.2051 22.2441 31.2349 22.0337 31.1488 21.8964C31.1143 21.8418 31.0666 21.7968 31.0102 21.7655C30.9538 21.7341 30.8904 21.7175 30.8258 21.717H28.0538C28.0324 21.717 28.0118 21.717 27.9887 21.717C27.9119 21.7207 27.8381 21.7474 27.7766 21.7936C27.7152 21.8399 27.6691 21.9034 27.6443 21.9762C27.6273 22.0399 27.6209 22.1061 27.6254 22.1719V27.7382V28.2144C27.6251 28.3155 27.6645 28.4126 27.7353 28.4848C27.806 28.557 27.9024 28.5983 28.0034 28.6H28.2449H30.8279C30.8396 28.5989 30.8504 28.5935 30.8583 28.5848C30.8661 28.5762 30.8705 28.5649 30.8705 28.5532C30.8705 28.5415 30.8661 28.5302 30.8583 28.5215C30.8504 28.5129 30.8396 28.5074 30.8279 28.5063Z" fill="black"/>
<path d="M28.5801 21.7627H29.2794V22.5905H28.5801V21.7627Z" fill="black"/>
<path d="M29.3786 21.7627H26.5533C26.3703 21.7627 26.2219 21.9111 26.2219 22.0941V28.2215C26.2219 28.4045 26.3703 28.5528 26.5533 28.5528H29.3786C29.5617 28.5528 29.71 28.4045 29.71 28.2215V22.0941C29.71 21.9111 29.5617 21.7627 29.3786 21.7627Z" fill="white"/>
<path d="M29.3786 28.5063H27.355C27.09 28.5063 26.8246 28.5097 26.5595 28.5063C26.5207 28.5065 26.4822 28.4988 26.4463 28.4838C26.4105 28.4687 26.378 28.4466 26.3509 28.4188C26.3238 28.391 26.3025 28.358 26.2883 28.3219C26.2741 28.2857 26.2674 28.247 26.2685 28.2081C26.2685 28.1535 26.2685 28.0994 26.2685 28.0448V22.4672C26.2685 22.3412 26.2664 22.2185 26.2685 22.0946C26.2693 22.0193 26.2996 21.9474 26.3528 21.8941C26.406 21.8408 26.4779 21.8104 26.5532 21.8094H29.3735C29.4295 21.8092 29.4844 21.8252 29.5315 21.8553C29.5787 21.8855 29.6161 21.9286 29.6394 21.9795C29.6609 22.0407 29.6691 22.1057 29.6633 22.1702V28.1968C29.6633 28.3648 29.5525 28.5026 29.3786 28.5063C29.3669 28.5074 29.3561 28.5129 29.3482 28.5215C29.3403 28.5302 29.336 28.5415 29.336 28.5532C29.336 28.5649 29.3403 28.5762 29.3482 28.5848C29.3561 28.5935 29.3669 28.5989 29.3786 28.6C29.4806 28.5981 29.5778 28.5558 29.6487 28.4823C29.7196 28.4088 29.7584 28.3102 29.7566 28.2081C29.7566 28.1519 29.7566 28.0952 29.7566 28.0401V22.4004C29.7566 22.2441 29.7864 22.0337 29.7003 21.8964C29.6658 21.8418 29.6181 21.7968 29.5617 21.7655C29.5053 21.7341 29.4419 21.7175 29.3773 21.717H26.6053C26.5835 21.717 26.5633 21.717 26.5402 21.717C26.4634 21.7207 26.3896 21.7474 26.3282 21.7936C26.2667 21.8399 26.2206 21.9034 26.1958 21.9762C26.1788 22.0399 26.1725 22.1061 26.1769 22.1719V27.7382V28.2144C26.1765 28.3155 26.2159 28.4127 26.2867 28.4849C26.3574 28.5571 26.4538 28.5985 26.5549 28.6H26.7968H29.3786C29.3902 28.5989 29.401 28.5935 29.4089 28.5848C29.4168 28.5762 29.4212 28.5649 29.4212 28.5532C29.4212 28.5415 29.4168 28.5302 29.4089 28.5215C29.401 28.5129 29.3902 28.5074 29.3786 28.5063Z" fill="black"/>
<path d="M27.6162 21.7627H28.3155V22.5905H27.6162V21.7627Z" fill="black"/>
<path d="M26.8623 21.7627H24.0369C23.8539 21.7627 23.7056 21.9111 23.7056 22.0941V28.2215C23.7056 28.4045 23.8539 28.5528 24.0369 28.5528H26.8623C27.0453 28.5528 27.1937 28.4045 27.1937 28.2215V22.0941C27.1937 21.9111 27.0453 21.7627 26.8623 21.7627Z" fill="black"/>
<path d="M26.8625 28.5063H24.8389C24.5739 28.5063 24.3084 28.5097 24.0434 28.5063C24.0046 28.5065 23.9661 28.4988 23.9302 28.4838C23.8944 28.4687 23.8619 28.4466 23.8348 28.4188C23.8076 28.391 23.7864 28.358 23.7722 28.3219C23.758 28.2857 23.7513 28.247 23.7524 28.2081V22.4672C23.7524 22.3412 23.7524 22.2185 23.7524 22.0946C23.7533 22.0194 23.7836 21.9475 23.8368 21.8942C23.89 21.8409 23.9619 21.8105 24.0371 21.8094H26.8574C26.9134 21.8091 26.9683 21.825 27.0155 21.8552C27.0627 21.8854 27.1001 21.9286 27.1233 21.9795C27.1448 22.0407 27.153 22.1057 27.1472 22.1702V28.1968C27.1472 28.3648 27.0368 28.5026 26.8625 28.5063C26.8508 28.5074 26.84 28.5129 26.8321 28.5215C26.8242 28.5302 26.8199 28.5415 26.8199 28.5532C26.8199 28.5649 26.8242 28.5762 26.8321 28.5848C26.84 28.5935 26.8508 28.5989 26.8625 28.6C26.913 28.5991 26.9629 28.5883 27.0093 28.5681C27.0557 28.5479 27.0976 28.5188 27.1327 28.4824C27.1678 28.446 27.1954 28.4031 27.2139 28.356C27.2324 28.3089 27.2414 28.2587 27.2405 28.2081C27.2405 28.1519 27.2405 28.0952 27.2405 28.0401V22.4004C27.2405 22.2441 27.2703 22.0337 27.1842 21.8964C27.1497 21.8418 27.102 21.7968 27.0456 21.7655C26.9892 21.7341 26.9258 21.7175 26.8612 21.717H24.0892C24.0678 21.717 24.0472 21.717 24.0241 21.717C23.9473 21.7207 23.8735 21.7474 23.812 21.7936C23.7506 21.8399 23.7045 21.9034 23.6797 21.9762C23.6627 22.0399 23.6563 22.1061 23.6608 22.1719V27.7382V28.2144C23.6605 28.3159 23.7002 28.4133 23.7714 28.4855C23.8426 28.5577 23.9395 28.5989 24.0409 28.6H24.2824H26.8642C26.8758 28.5987 26.8865 28.5931 26.8943 28.5843C26.902 28.5755 26.9062 28.5641 26.906 28.5524C26.9058 28.5407 26.9012 28.5295 26.8931 28.5209C26.8851 28.5124 26.8742 28.5072 26.8625 28.5063Z" fill="black"/>
<path d="M24.6157 21.7627H25.315V22.5905H24.6157V21.7627Z" fill="black"/>
<path d="M25.4138 21.7627H22.5885C22.4054 21.7627 22.2571 21.9111 22.2571 22.0941V28.2215C22.2571 28.4045 22.4054 28.5528 22.5885 28.5528H25.4138C25.5968 28.5528 25.7452 28.4045 25.7452 28.2215V22.0941C25.7452 21.9111 25.5968 21.7627 25.4138 21.7627Z" fill="white"/>
<path d="M25.4138 28.5063H23.3902C23.1252 28.5063 22.8598 28.5097 22.5948 28.5063C22.5559 28.5065 22.5174 28.4988 22.4816 28.4838C22.4457 28.4687 22.4133 28.4466 22.3861 28.4188C22.359 28.391 22.3377 28.358 22.3235 28.3219C22.3094 28.2857 22.3026 28.247 22.3037 28.2081V22.4672C22.3037 22.3412 22.3037 22.2185 22.3037 22.0946C22.3047 22.0194 22.335 21.9475 22.3882 21.8942C22.4414 21.8409 22.5132 21.8105 22.5885 21.8094H25.41C25.466 21.8092 25.5209 21.8252 25.568 21.8553C25.6152 21.8855 25.6526 21.9286 25.6759 21.9795C25.6974 22.0407 25.7056 22.1057 25.6998 22.1702V28.1968C25.6998 28.3648 25.5894 28.5026 25.4151 28.5063C25.4034 28.5074 25.3926 28.5129 25.3847 28.5215C25.3768 28.5302 25.3725 28.5415 25.3725 28.5532C25.3725 28.5649 25.3768 28.5762 25.3847 28.5848C25.3926 28.5935 25.4034 28.5989 25.4151 28.6C25.4656 28.5991 25.5155 28.5883 25.5619 28.5681C25.6083 28.5479 25.6502 28.5188 25.6853 28.4824C25.7204 28.446 25.748 28.4031 25.7665 28.356C25.785 28.3089 25.794 28.2587 25.7931 28.2081C25.7931 28.1519 25.7931 28.0952 25.7931 28.0401V22.4004C25.7931 22.2441 25.8229 22.0337 25.7368 21.8964C25.7023 21.8418 25.6546 21.7968 25.5982 21.7655C25.5418 21.7341 25.4784 21.7175 25.4138 21.717H22.638C22.6166 21.717 22.596 21.717 22.5729 21.717C22.4962 21.7207 22.4223 21.7474 22.3609 21.7936C22.2995 21.8399 22.2534 21.9034 22.2285 21.9762C22.2116 22.0399 22.2052 22.1061 22.2096 22.1719V27.7382V28.2144C22.2093 28.3155 22.2488 28.4126 22.3195 28.4848C22.3903 28.557 22.4866 28.5983 22.5876 28.6H22.8291H25.4109C25.4226 28.5993 25.4337 28.5943 25.4418 28.5859C25.45 28.5774 25.4548 28.5663 25.4552 28.5545C25.4555 28.5428 25.4515 28.5313 25.4438 28.5224C25.4362 28.5135 25.4255 28.5078 25.4138 28.5063Z" fill="black"/>
<path d="M23.6514 21.7627H24.3507V22.5905H23.6514V21.7627Z" fill="black"/>
<path d="M32.1358 12.2488H25.4381C25.2551 12.2488 25.1067 12.3971 25.1067 12.5802V18.7105C25.1067 18.8935 25.2551 19.0419 25.4381 19.0419H32.1358C32.3188 19.0419 32.4672 18.8935 32.4672 18.7105V12.5802C32.4672 12.3971 32.3188 12.2488 32.1358 12.2488Z" fill="black"/>
<path d="M32.1354 18.9953H25.4574C25.4168 18.9969 25.3763 18.9902 25.3385 18.9754C25.3006 18.9606 25.2663 18.9381 25.2375 18.9094C25.2088 18.8807 25.1863 18.8463 25.1716 18.8085C25.1568 18.7706 25.15 18.7301 25.1517 18.6895V13.3782C25.1517 13.1136 25.1475 12.849 25.1517 12.5844C25.1515 12.5084 25.1814 12.4355 25.2347 12.3814C25.288 12.3273 25.3605 12.2964 25.4364 12.2954H32.0157C32.1342 12.2954 32.2497 12.2879 32.3416 12.3836C32.4336 12.4794 32.4202 12.5991 32.4202 12.7175V18.6337V18.7059C32.4204 18.7819 32.3906 18.855 32.3373 18.9091C32.284 18.9633 32.2114 18.9943 32.1354 18.9953C32.1231 18.9953 32.1112 19.0002 32.1025 19.0089C32.0937 19.0177 32.0888 19.0295 32.0888 19.0419C32.0888 19.0543 32.0937 19.0661 32.1025 19.0749C32.1112 19.0836 32.1231 19.0885 32.1354 19.0885C32.2352 19.0871 32.3306 19.0468 32.4011 18.9762C32.4717 18.9057 32.512 18.8103 32.5134 18.7105C32.5134 18.6908 32.5134 18.671 32.5134 18.6509V12.7075C32.5134 12.5815 32.5185 12.4584 32.434 12.3492C32.3972 12.3026 32.3501 12.265 32.2964 12.2395C32.2428 12.2141 32.1839 12.2013 32.1245 12.2022H25.4809C25.457 12.2022 25.4326 12.2022 25.4087 12.2022C25.314 12.2106 25.2258 12.254 25.1613 12.3239C25.0968 12.3937 25.0606 12.4851 25.0597 12.5802V12.7965V17.784V18.6933C25.0584 18.7451 25.0676 18.7966 25.0867 18.8447C25.1058 18.8929 25.1344 18.9367 25.1707 18.9736C25.2071 19.0105 25.2505 19.0396 25.2984 19.0594C25.3463 19.0791 25.3977 19.089 25.4494 19.0885H32.1354C32.1478 19.0885 32.1596 19.0836 32.1684 19.0749C32.1771 19.0661 32.182 19.0543 32.182 19.0419C32.182 19.0295 32.1771 19.0177 32.1684 19.0089C32.1596 19.0002 32.1478 18.9953 32.1354 18.9953Z" fill="black"/>
<path d="M24.5615 12.2488H26.037V13.996H24.5615V12.2488Z" fill="black"/>
<path d="M26.6141 12.2488H19.9163C19.7333 12.2488 19.585 12.3971 19.585 12.5802V18.7105C19.585 18.8935 19.7333 19.0419 19.9163 19.0419H26.6141C26.7971 19.0419 26.9455 18.8935 26.9455 18.7105V12.5802C26.9455 12.3971 26.7971 12.2488 26.6141 12.2488Z" fill="white"/>
<path d="M26.6137 18.9953H19.9357C19.8951 18.9969 19.8546 18.9902 19.8167 18.9754C19.7789 18.9606 19.7445 18.9381 19.7158 18.9094C19.6871 18.8807 19.6646 18.8463 19.6498 18.8085C19.635 18.7706 19.6283 18.7301 19.6299 18.6895V13.3782C19.6299 13.1136 19.6257 12.849 19.6299 12.5844C19.6298 12.5084 19.6596 12.4355 19.713 12.3814C19.7663 12.3273 19.8388 12.2964 19.9147 12.2954H26.494C26.6124 12.2954 26.7279 12.2879 26.8199 12.3836C26.9119 12.4794 26.8985 12.5991 26.8985 12.7175V18.6337V18.7059C26.8987 18.7819 26.8689 18.855 26.8156 18.9091C26.7623 18.9633 26.6897 18.9943 26.6137 18.9953C26.6013 18.9953 26.5895 19.0002 26.5807 19.0089C26.572 19.0177 26.5671 19.0295 26.5671 19.0419C26.5671 19.0543 26.572 19.0661 26.5807 19.0749C26.5895 19.0836 26.6013 19.0885 26.6137 19.0885C26.7135 19.0871 26.8088 19.0468 26.8794 18.9762C26.95 18.9057 26.9903 18.8103 26.9917 18.7105C26.9917 18.6908 26.9917 18.671 26.9917 18.6509V12.7075C26.9917 12.5815 26.9967 12.4584 26.9123 12.3492C26.8755 12.3026 26.8284 12.265 26.7747 12.2395C26.721 12.2141 26.6622 12.2013 26.6028 12.2022H19.9592C19.9353 12.2022 19.9109 12.2022 19.887 12.2022C19.7923 12.2106 19.7041 12.254 19.6396 12.3239C19.575 12.3937 19.5388 12.4851 19.538 12.5802V12.7965V17.784V18.6933C19.5367 18.7451 19.5459 18.7966 19.565 18.8447C19.5841 18.8929 19.6126 18.9367 19.649 18.9736C19.6854 19.0105 19.7288 19.0396 19.7767 19.0594C19.8246 19.0791 19.8759 19.089 19.9277 19.0885H26.6137C26.6261 19.0885 26.6379 19.0836 26.6467 19.0749C26.6554 19.0661 26.6603 19.0543 26.6603 19.0419C26.6603 19.0295 26.6554 19.0177 26.6467 19.0089C26.6379 19.0002 26.6261 18.9953 26.6137 18.9953Z" fill="black"/>
<path d="M22.5276 12.2488H24.003V13.996H22.5276V12.2488Z" fill="black"/>
<path d="M5.91019 15.6479L5.28019 16.2384C5.23355 16.2743 5.19873 16.3233 5.18023 16.3791C5.16175 16.4631 5.21509 16.5413 5.26423 16.611C5.74261 17.3136 5.88415 18.1826 6.08449 19.0088C6.28483 19.8349 6.59185 20.698 7.27519 21.2033C7.44907 21.3318 7.64689 21.4368 7.77919 21.6069C7.91149 21.777 7.95853 22.0454 7.80817 22.2012C7.78377 22.2283 7.75217 22.248 7.71703 22.2579C7.57927 22.2911 7.48939 22.1193 7.45285 21.9824C7.57927 22.2108 7.65854 22.4623 7.68595 22.722C7.69477 22.806 7.69393 22.9013 7.63261 22.9584C7.55701 23.0286 7.42597 22.9967 7.35751 22.9198C7.28905 22.8429 7.26637 22.7363 7.24663 22.635C7.28623 22.7197 7.30809 22.8116 7.31089 22.9051C7.30711 22.9983 7.25419 23.0962 7.16473 23.1227C7.06603 23.1521 6.95977 23.0836 6.91273 22.9929C6.86569 22.9022 6.85939 22.7955 6.85561 22.6926C6.8729 22.8274 6.8774 22.9635 6.86905 23.0991C6.86994 23.1365 6.86049 23.1735 6.84175 23.2058C6.78001 23.2932 6.63175 23.2377 6.57883 23.1453C6.52591 23.0529 6.51751 22.9379 6.45829 22.8488C6.50869 22.9803 6.52885 23.1785 6.39277 23.2159C6.33145 23.2327 6.26677 23.202 6.21511 23.1659C5.83291 22.9026 5.75311 22.3356 5.63257 21.924C5.46457 21.3549 5.09035 20.921 4.73293 20.4586C3.90931 19.3931 3.15457 18.0675 3.15625 16.6828C3.15625 16.2347 3.23353 15.7785 3.43051 15.3732C3.75433 14.7054 4.28983 14.1439 4.81651 13.6307C4.90359 13.5467 4.99123 13.4627 5.07943 13.3787" fill="white"/>
<path d="M6.38401 23.1841C6.29497 23.1975 6.20887 23.1093 6.15049 23.0518C6.09891 23.0003 6.05378 22.9427 6.01609 22.8804C5.93967 22.7505 5.87958 22.6117 5.83717 22.4671C5.74015 22.1584 5.68387 21.8417 5.54317 21.5473C5.38651 21.2172 5.16517 20.9245 4.93879 20.6389C4.70737 20.3449 4.48099 20.0509 4.27519 19.7375C3.85897 19.1054 3.50953 18.4196 3.32977 17.6795C3.15001 16.9395 3.13363 16.1058 3.46963 15.4065C3.80059 14.7173 4.34491 14.1578 4.88923 13.6333C4.96483 13.5606 5.04043 13.4888 5.11561 13.4157C5.16517 13.3674 5.09041 13.2939 5.03959 13.3401C4.74181 13.6119 4.45795 13.8986 4.18909 14.199C3.92438 14.486 3.69147 14.8007 3.49441 15.1377C3.29723 15.4847 3.17249 15.868 3.12775 16.2646C3.0849 16.6578 3.10133 17.0552 3.17647 17.4435C3.31843 18.205 3.65401 18.924 4.05847 19.5792C4.26133 19.9064 4.48477 20.2205 4.71913 20.5259C4.94719 20.8232 5.18659 21.1164 5.36887 21.4453C5.46129 21.6109 5.5347 21.7864 5.58769 21.9686C5.62969 22.1147 5.66413 22.2626 5.70655 22.4092C5.78845 22.6918 5.90773 23.0186 6.16603 23.1883C6.19861 23.2138 6.23622 23.2321 6.27639 23.2421C6.31656 23.2521 6.35838 23.2535 6.39913 23.2462C6.44113 23.2353 6.42223 23.1773 6.38191 23.1832L6.38401 23.1841Z" fill="black"/>
<path d="M5.88712 15.6241C5.76112 15.7287 5.63512 15.837 5.51332 15.9479C5.45746 15.9983 5.40286 16.0504 5.34784 16.1016C5.29093 16.1504 5.23707 16.2025 5.18656 16.2579C5.09122 16.3717 5.12188 16.4939 5.19706 16.609C5.27291 16.7221 5.343 16.839 5.40706 16.9593C5.66662 17.4633 5.8027 18.0168 5.92912 18.5641C6.15382 19.5347 6.40372 20.6267 7.25422 21.2521C7.48018 21.418 7.78048 21.5625 7.84222 21.864C7.86448 21.9766 7.84222 22.1547 7.71832 22.203C7.59442 22.2513 7.5268 22.0518 7.50412 21.9682L7.40794 22.0102C7.5272 22.2321 7.60424 22.4742 7.63516 22.7242C7.64398 22.7905 7.74814 22.7939 7.74184 22.7242C7.7151 22.4548 7.63227 22.194 7.49866 21.9585C7.49233 21.9471 7.48195 21.9384 7.46954 21.9342C7.45713 21.93 7.44361 21.9306 7.43161 21.9358C7.41962 21.9411 7.41002 21.9506 7.40471 21.9626C7.3994 21.9746 7.39875 21.9881 7.4029 22.0005C7.43188 22.1051 7.48144 22.2235 7.57636 22.2853C7.67128 22.347 7.79308 22.3063 7.86448 22.2198C8.01862 22.032 7.9552 21.7506 7.81576 21.5746C7.64398 21.3571 7.37896 21.2386 7.17316 21.0601C6.98191 20.8904 6.81813 20.6921 6.68764 20.4721C6.41338 20.0202 6.25294 19.5103 6.12946 18.9996C5.9938 18.4351 5.89258 17.8543 5.68174 17.3112C5.62475 17.163 5.55911 17.0183 5.48518 16.8778C5.4457 16.8043 5.40412 16.7325 5.35918 16.6623C5.31718 16.5993 5.26426 16.5363 5.2399 16.4658C5.20966 16.3767 5.27518 16.3209 5.33398 16.2654L5.52886 16.0827C5.66886 15.9508 5.80396 15.8148 5.93416 15.6745C5.93955 15.6682 5.94238 15.6602 5.94207 15.6519C5.94176 15.6436 5.93834 15.6358 5.93249 15.63C5.92665 15.6241 5.91881 15.6207 5.91056 15.6204C5.9023 15.6201 5.89423 15.6229 5.88796 15.6283L5.88712 15.6241Z" fill="black"/>
<path d="M9.8636 11.1346C9.7451 11.4629 9.65201 11.7999 9.58514 12.1426C9.58222 12.1711 9.57178 12.1983 9.5549 12.2215C9.53943 12.2351 9.52136 12.2453 9.50179 12.2517C9.48222 12.2581 9.46156 12.2604 9.44108 12.2585C9.1951 12.2615 8.95241 12.2018 8.7359 12.085C8.52075 11.968 8.32691 11.8155 8.1626 11.6339C8.37786 11.3254 8.55182 10.9901 8.68004 10.6364C8.68508 10.6226 8.68634 10.6016 8.67164 10.5986" fill="white"/>
<path d="M9.83441 11.1175C9.74786 11.3031 9.6776 11.4959 9.62441 11.6937C9.59543 11.7937 9.56855 11.8941 9.54461 11.9953C9.53327 12.0436 9.52235 12.0919 9.51227 12.1406C9.50513 12.1742 9.48287 12.2284 9.50513 12.2599C9.50971 12.2674 9.51593 12.2739 9.52333 12.2787C9.53073 12.2835 9.53912 12.2866 9.54787 12.2877C9.55663 12.2888 9.56552 12.288 9.5739 12.2852C9.58228 12.2824 9.58992 12.2778 9.59627 12.2716C9.6105 12.2569 9.61887 12.2375 9.61979 12.2171C9.61979 12.2017 9.61368 12.1869 9.60281 12.1761C9.59194 12.1652 9.5772 12.1591 9.56183 12.1591C9.53705 12.1591 9.52697 12.1734 9.50807 12.186C9.48214 12.1991 9.45302 12.2047 9.42407 12.2019C9.35377 12.2028 9.28352 12.1978 9.21407 12.1868C9.07922 12.1647 8.94816 12.1237 8.82473 12.065C8.58939 11.9479 8.37823 11.7874 8.20229 11.5921L8.21111 11.6597C8.33504 11.479 8.44512 11.2892 8.54039 11.0919C8.58617 10.9978 8.62859 10.902 8.66639 10.8054C8.68988 10.7541 8.71008 10.7014 8.72687 10.6475C8.73339 10.6306 8.73386 10.6119 8.7282 10.5947C8.72253 10.5775 8.71108 10.5628 8.69579 10.553C8.64119 10.5182 8.59079 10.6051 8.64497 10.6395L8.65295 10.645L8.63027 10.6152C8.63447 10.6282 8.61515 10.6614 8.61053 10.6736C8.60171 10.6971 8.59247 10.7206 8.58323 10.7437C8.56643 10.7857 8.54879 10.8277 8.53031 10.8697C8.49251 10.9557 8.45191 11.0397 8.40851 11.1217C8.32086 11.2876 8.22266 11.4476 8.11451 11.6009C8.10831 11.6116 8.10581 11.624 8.1074 11.6362C8.109 11.6485 8.1146 11.6598 8.12333 11.6685C8.31276 11.8827 8.54328 12.0567 8.80121 12.1801C8.93457 12.2412 9.07601 12.283 9.22121 12.304C9.34049 12.3208 9.50723 12.3506 9.60257 12.2586L9.56057 12.2758L9.50261 12.2179L9.51269 12.1906L9.60383 12.2024C9.61055 12.2275 9.61475 12.2284 9.61601 12.2053C9.61601 12.1944 9.62063 12.1834 9.62273 12.1721C9.62777 12.1494 9.63239 12.1272 9.63743 12.1045C9.64793 12.0583 9.65885 12.0117 9.67061 11.9659C9.69371 11.8731 9.71765 11.7807 9.74327 11.6891C9.79367 11.5073 9.85121 11.3279 9.89489 11.1431C9.90329 11.1074 9.85037 11.081 9.83273 11.1171L9.83441 11.1175Z" fill="black"/>
<path d="M10.5942 8.80775C10.6416 9.10116 10.7585 9.37895 10.9352 9.61793C10.9948 9.69815 11.0612 9.81701 10.9864 9.88547C10.9632 9.90218 10.9386 9.91693 10.9129 9.92957C10.8079 9.99551 10.8067 10.1446 10.813 10.2685C10.8264 10.5323 10.8079 10.8284 10.6156 11.0094C10.4232 11.1904 10.1334 11.1913 9.87805 11.1438C9.17707 11.0136 8.51221 10.5172 8.34505 9.82415C8.26651 9.49949 8.29927 9.15551 8.39419 8.83589C8.46475 8.59733 8.57353 8.36297 8.75455 8.19245C9.08131 7.88501 9.59875 7.84343 10.0146 8.00849C10.3002 8.12189 10.5748 8.49947 10.5929 8.80649" fill="white"/>
<path d="M8.37723 9.81696C8.33022 9.5772 8.3326 9.33036 8.38424 9.09154C8.43587 8.85273 8.53567 8.62696 8.67753 8.42802C8.81564 8.23725 9.01059 8.09508 9.23445 8.02188C9.49527 7.94466 9.77542 7.9665 10.0211 8.0832C10.1648 8.14849 10.2894 8.24952 10.383 8.37664C10.4766 8.50377 10.5361 8.65275 10.5558 8.80938C10.5617 8.85684 10.6331 8.86062 10.6326 8.80938C10.6276 8.16342 9.92367 7.79424 9.34491 7.89C8.81025 7.97862 8.45115 8.45448 8.31633 8.95218C8.23798 9.2408 8.23668 9.54491 8.31255 9.83418C8.32347 9.87618 8.38563 9.85854 8.37723 9.81654V9.81696Z" fill="black"/>
<path d="M10.5186 8.58154C10.2783 8.89207 9.99122 9.16341 9.66766 9.38584C9.63258 9.33286 9.58203 9.29198 9.52289 9.26875C9.46374 9.24553 9.39887 9.2411 9.33712 9.25606C9.2763 9.27444 9.22439 9.31458 9.19131 9.36882C9.15822 9.42305 9.14628 9.48758 9.15778 9.55006C9.18802 9.67606 9.31192 9.74956 9.4249 9.81088C9.20062 10.1935 8.90704 10.5303 8.61556 10.8647C8.56019 10.9342 8.49594 10.9962 8.42446 11.049C8.05444 11.2977 7.39042 11.2007 7.20016 10.7664C7.12876 10.6038 7.11616 10.3905 7.23502 10.2464C7.27954 10.1918 7.3501 10.1355 7.3291 10.0683C7.31887 10.0449 7.30466 10.0235 7.2871 10.0049C7.25574 9.96658 7.23387 9.92138 7.22329 9.87299C7.2127 9.8246 7.21369 9.7744 7.22618 9.72646C7.23866 9.67853 7.26229 9.63422 7.29514 9.59714C7.32798 9.56007 7.36912 9.53127 7.4152 9.5131C7.49668 9.48076 7.6 9.47614 7.64746 9.40264C7.66606 9.3613 7.68014 9.31807 7.68946 9.2737C7.73146 9.15694 7.86502 9.1057 7.98346 9.06076C8.35806 8.92391 8.72411 8.76472 9.07966 8.58406" fill="black"/>
<path d="M10.4959 8.55881C10.2507 8.8603 9.96424 9.12569 9.64494 9.34716L9.70626 9.36311C9.57564 9.17579 9.29088 9.13547 9.15522 9.34085C9.12566 9.38472 9.10901 9.43601 9.10716 9.48887C9.1053 9.54174 9.11831 9.59406 9.14472 9.6399C9.201 9.73776 9.30516 9.79824 9.40134 9.8499L9.38412 9.78564C9.25681 9.99677 9.11389 10.1981 8.95656 10.3879C8.87928 10.4828 8.7999 10.5757 8.7201 10.6681C8.6403 10.7605 8.56806 10.8503 8.48406 10.9331C8.25222 11.1599 7.86078 11.1851 7.57392 11.0549C7.43274 10.9957 7.31793 10.8872 7.25094 10.7495C7.20865 10.6586 7.19209 10.5578 7.20306 10.4581C7.20834 10.4108 7.2226 10.3651 7.24506 10.3232C7.27519 10.2802 7.30786 10.2389 7.34292 10.1998C7.37101 10.1665 7.38595 10.124 7.38492 10.0805C7.38114 10.025 7.33998 9.99228 7.31184 9.94902C7.28328 9.90513 7.26843 9.85373 7.26918 9.80138C7.26992 9.74902 7.28624 9.69807 7.31604 9.65502C7.3782 9.56766 7.46934 9.55716 7.56258 9.52314C7.6015 9.51084 7.63711 9.48987 7.66674 9.46181C7.70018 9.42123 7.72234 9.37256 7.731 9.32069C7.7604 9.21443 7.857 9.16571 7.95444 9.12875C8.08044 9.08045 8.20644 9.03509 8.33244 8.98427C8.59536 8.87759 8.85366 8.75999 9.10734 8.63147C9.17076 8.59913 9.1149 8.50547 9.05148 8.53571C8.80662 8.66171 8.55714 8.77427 8.30304 8.87759C8.18334 8.92631 8.06196 8.97125 7.941 9.01703C7.84821 9.04508 7.7636 9.09524 7.69446 9.16319C7.66259 9.20015 7.63973 9.244 7.62768 9.29129C7.61088 9.35261 7.5987 9.39377 7.5357 9.41729C7.44078 9.45342 7.3488 9.46602 7.27278 9.54078C7.23546 9.57731 7.20634 9.62138 7.18737 9.67004C7.16839 9.71871 7.16 9.77086 7.16274 9.82302C7.16606 9.87632 7.18036 9.92837 7.20474 9.9759C7.22574 10.0179 7.29336 10.067 7.2732 10.1145C7.25304 10.162 7.20768 10.1926 7.17996 10.2308C7.14706 10.2769 7.12326 10.3288 7.10982 10.3837C7.08661 10.4854 7.08979 10.5914 7.11906 10.6916C7.16706 10.8589 7.2762 11.0021 7.42482 11.0927C7.57137 11.1808 7.7381 11.2298 7.90902 11.2349C8.07994 11.2401 8.24932 11.2012 8.4009 11.1221C8.50213 11.0588 8.59154 10.9784 8.66508 10.8844C8.7621 10.7722 8.8587 10.6605 8.9532 10.5463C9.14347 10.3226 9.31525 10.0838 9.46686 9.83226C9.47291 9.82145 9.47455 9.80872 9.47141 9.79674C9.46828 9.78476 9.46063 9.77445 9.45006 9.768C9.32196 9.69912 9.13464 9.58277 9.22116 9.41057C9.30768 9.23837 9.5307 9.26609 9.62982 9.4068C9.63595 9.41703 9.64583 9.42447 9.65736 9.42753C9.66889 9.43059 9.68116 9.42903 9.69156 9.42317C10.0204 9.1965 10.3097 8.91708 10.5475 8.59619C10.5689 8.56679 10.5202 8.52899 10.4971 8.55713L10.4959 8.55881Z" fill="black"/>
<path d="M10.5609 8.80777C10.5862 9.03286 10.6548 9.25093 10.7629 9.44995C10.8162 9.54613 10.8918 9.63055 10.9418 9.72799C10.9603 9.76495 10.9838 9.81787 10.9498 9.85399C10.9261 9.86984 10.9013 9.88388 10.8754 9.89599C10.8576 9.90863 10.8416 9.92376 10.828 9.94093C10.7133 10.085 10.7704 10.3089 10.7629 10.4777C10.7545 10.6726 10.7053 10.8851 10.5411 11.0086C10.3525 11.1505 10.0993 11.1316 9.87795 11.1085C9.83595 11.1043 9.82671 11.1736 9.86787 11.1841C10.0724 11.2375 10.3047 11.2417 10.4979 11.1518C10.6911 11.0619 10.8057 10.8708 10.8439 10.6642C10.8617 10.5606 10.869 10.4555 10.8658 10.3504C10.8637 10.2555 10.8477 10.1535 10.8775 10.0615C10.8847 10.0394 10.8964 10.019 10.9119 10.0016C10.9274 9.98429 10.9463 9.97034 10.9674 9.96067C10.9917 9.94999 11.0132 9.93381 11.0302 9.9134C11.0472 9.89299 11.0592 9.86891 11.0653 9.84307C11.0854 9.74017 11.0124 9.64441 10.9565 9.56587C10.7942 9.33597 10.6817 9.07478 10.626 8.79895C10.6184 8.76241 10.555 8.76997 10.56 8.80777H10.5609Z" fill="black"/>
<path d="M10.5029 9.32394L10.4886 9.3315C10.4815 9.33581 10.4747 9.34073 10.4684 9.3462C10.4576 9.35507 10.4488 9.36608 10.4424 9.37854C10.4387 9.38575 10.4359 9.39336 10.434 9.40122C10.4325 9.40725 10.4318 9.41347 10.4319 9.4197C10.4322 9.4259 10.4329 9.43207 10.434 9.43818C10.4376 9.45446 10.4463 9.46918 10.4588 9.48018L10.4693 9.48774C10.4748 9.49149 10.4811 9.49367 10.4878 9.49404C10.4988 9.49534 10.51 9.49314 10.5197 9.48774C10.5233 9.48574 10.5267 9.48335 10.5298 9.4806C10.5333 9.47841 10.5366 9.47572 10.5394 9.47262C10.5476 9.46331 10.5539 9.45246 10.5579 9.4407C10.5608 9.4326 10.5622 9.42408 10.5621 9.4155C10.5629 9.40922 10.5629 9.40287 10.5621 9.3966C10.5623 9.39436 10.5623 9.39211 10.5621 9.38988C10.5597 9.38104 10.555 9.37295 10.5487 9.36636L10.5377 9.35838C10.5308 9.35416 10.5229 9.35172 10.5148 9.35128C10.5066 9.35084 10.4985 9.35241 10.4911 9.35586C10.4848 9.3583 10.4791 9.36203 10.4744 9.3668C10.4696 9.37158 10.4659 9.37729 10.4634 9.38358C10.4603 9.39104 10.4589 9.3991 10.4593 9.40717C10.4598 9.41525 10.462 9.42311 10.4659 9.4302L10.4605 9.4176C10.4616 9.42028 10.4623 9.42311 10.4626 9.426V9.41214C10.4628 9.41493 10.4628 9.41774 10.4626 9.42054L10.4647 9.40668C10.4642 9.4094 10.4635 9.41207 10.4626 9.41466L10.4676 9.40248C10.4665 9.40513 10.4651 9.40767 10.4634 9.41004L10.4714 9.39954C10.4698 9.4018 10.4678 9.40378 10.4655 9.40542L10.4756 9.39786H10.526H10.5239L10.5344 9.40542C10.532 9.4039 10.53 9.40189 10.5285 9.39954L10.5361 9.40962C10.5344 9.40738 10.533 9.40499 10.5319 9.40248L10.5369 9.41424C10.5349 9.40896 10.5335 9.40346 10.5327 9.39786V9.41046C10.5323 9.40599 10.5323 9.40149 10.5327 9.39702V9.4092C10.5337 9.40418 10.5351 9.39926 10.5369 9.3945L10.5327 9.405C10.5391 9.39177 10.5468 9.37925 10.5558 9.36762L10.5592 9.35964C10.5604 9.35524 10.5604 9.35059 10.5592 9.3462C10.5585 9.34062 10.5564 9.33531 10.5531 9.33073C10.5499 9.32615 10.5456 9.32244 10.5405 9.31995C10.5355 9.31745 10.5299 9.31624 10.5243 9.31642C10.5187 9.31661 10.5132 9.31818 10.5083 9.321L10.5029 9.32394Z" fill="black"/>
<path d="M9.43158 9.47226C9.43662 9.47226 9.43158 9.47226 9.42906 9.47226H9.43452H9.432H9.4362C9.43998 9.47226 9.4299 9.4689 9.4362 9.47226L9.43998 9.47436C9.44103 9.47569 9.44231 9.47683 9.44376 9.47772L9.4467 9.48108C9.44964 9.4836 9.4425 9.47436 9.4467 9.48108L9.45174 9.48906C9.4515 9.49045 9.4515 9.49187 9.45174 9.49326C9.45006 9.48906 9.45006 9.48822 9.45174 9.49074C9.45196 9.49142 9.45196 9.49215 9.45174 9.49284C9.45304 9.49613 9.45417 9.4995 9.4551 9.50292C9.4551 9.50964 9.45804 9.51594 9.4593 9.52266C9.46056 9.52938 9.4593 9.52602 9.4593 9.52728C9.4593 9.52854 9.4593 9.51846 9.4593 9.52728C9.4595 9.53049 9.4595 9.53372 9.4593 9.53694V9.54786C9.4593 9.54786 9.4593 9.5508 9.4593 9.55248C9.4593 9.55416 9.4593 9.5445 9.4593 9.55248C9.45949 9.55541 9.45949 9.55836 9.4593 9.5613C9.4593 9.5613 9.45636 9.56886 9.4593 9.56382C9.46224 9.55878 9.4593 9.56382 9.4593 9.56592L9.50886 9.5529C9.51348 9.55668 9.51516 9.55794 9.51306 9.55584C9.51096 9.55374 9.51306 9.55584 9.516 9.56004C9.51852 9.56634 9.516 9.56004 9.516 9.56004C9.516 9.56718 9.516 9.56886 9.516 9.56592V9.5634C9.516 9.5634 9.51348 9.57432 9.516 9.5676C9.51852 9.56088 9.516 9.57096 9.516 9.57096L9.51264 9.57558C9.51684 9.57096 9.50466 9.58062 9.51012 9.57558C9.5188 9.57051 9.52512 9.5622 9.52768 9.55247C9.53024 9.54274 9.52883 9.5324 9.52377 9.52371C9.52126 9.5194 9.51792 9.51564 9.51396 9.51262C9.50999 9.50961 9.50547 9.50741 9.50066 9.50614C9.49093 9.50358 9.48059 9.50499 9.4719 9.51006C9.46313 9.51594 9.45592 9.52387 9.4509 9.53316C9.44608 9.54267 9.44349 9.55316 9.44334 9.56382C9.44361 9.57425 9.44638 9.58447 9.45142 9.5936C9.45647 9.60274 9.46363 9.61053 9.47232 9.61632C9.48063 9.62108 9.49049 9.62239 9.49976 9.61995C9.50903 9.61752 9.51697 9.61153 9.52188 9.6033C9.53134 9.58326 9.53553 9.56114 9.53406 9.53904C9.53284 9.51916 9.52903 9.49954 9.52272 9.48066C9.51492 9.45809 9.50023 9.43855 9.48072 9.4248C9.47165 9.41815 9.46122 9.4136 9.45017 9.4115C9.43913 9.40939 9.42775 9.40977 9.41688 9.41262C9.40906 9.41545 9.4026 9.42112 9.39876 9.4285C9.39493 9.43587 9.394 9.44442 9.39616 9.45245C9.39833 9.46047 9.40343 9.46739 9.41045 9.47184C9.41748 9.47629 9.42592 9.47793 9.4341 9.47646L9.43158 9.47226Z" fill="black"/>
<path d="M10.2823 9.03706H10.2865L10.2639 9.0274C10.284 9.0484 10.3164 9.03874 10.3411 9.03496L10.3991 9.02614C10.4411 9.02026 10.4793 9.01606 10.5188 9.00724C10.5302 9.00401 10.5398 8.99641 10.5456 8.98611C10.5515 8.97581 10.553 8.96363 10.5499 8.95222C10.5465 8.94094 10.5389 8.9314 10.5286 8.92554C10.5184 8.91968 10.5063 8.91796 10.4949 8.92072C10.4562 8.9266 10.4176 8.93668 10.3789 8.9455L10.3222 8.95768C10.3008 8.9623 10.2689 8.96566 10.2588 8.98834L10.2781 8.97364H10.2739C10.2666 8.97578 10.2603 8.98047 10.2561 8.98687C10.252 8.99326 10.2502 9.00094 10.2513 9.0085C10.2523 9.01603 10.256 9.02295 10.2617 9.02797C10.2674 9.03298 10.2747 9.03577 10.2823 9.0358V9.03706Z" fill="black"/>
<path d="M10.1489 10.0976C10.136 10.146 10.1362 10.1969 10.1495 10.2452C10.1628 10.2934 10.1887 10.3373 10.2245 10.3723C10.2319 10.3784 10.2413 10.3815 10.2509 10.3811C10.2605 10.3807 10.2696 10.3767 10.2764 10.3699C10.2832 10.3632 10.2873 10.3541 10.2878 10.3445C10.2883 10.3349 10.2852 10.3255 10.2791 10.3181C10.2716 10.3111 10.2644 10.3036 10.2577 10.2958L10.2552 10.2925L10.2527 10.2891L10.2438 10.2757C10.2384 10.2668 10.2338 10.2576 10.2291 10.2484C10.2283 10.2462 10.2274 10.2441 10.2262 10.2421C10.2237 10.2362 10.2283 10.2467 10.2262 10.2421L10.2207 10.2269C10.2178 10.2177 10.2157 10.208 10.2136 10.1988V10.19C10.2136 10.1837 10.2136 10.1946 10.2136 10.19V10.1757C10.213 10.1655 10.213 10.1552 10.2136 10.145C10.2136 10.1425 10.2136 10.14 10.2136 10.1375V10.1341C10.2136 10.1291 10.2157 10.1236 10.2165 10.1182C10.2185 10.1096 10.217 10.1007 10.2125 10.0932C10.208 10.0857 10.2008 10.0802 10.1924 10.0779C10.184 10.0756 10.175 10.0766 10.1673 10.0807C10.1596 10.0848 10.1537 10.0918 10.151 10.1001L10.1489 10.0976Z" fill="black"/>
<path d="M10.6482 8.63561C10.6641 8.67761 10.6104 8.70659 10.5688 8.71667C9.32811 9.01949 8.41671 9.21773 7.1521 9.39707C7.09666 9.40463 7.01938 9.39707 7.01392 9.34079C7.01417 9.32733 7.01748 9.31409 7.02359 9.30209C7.0297 9.29009 7.03846 9.27962 7.0492 9.27149C7.129 9.19631 7.2424 9.17195 7.3495 9.14843C7.6918 9.07283 7.6897 9.04217 8.01898 8.92205C8.06206 8.90849 8.10274 8.88823 8.13952 8.86199C8.23276 8.78807 8.24326 8.38361 8.27266 8.26811C8.36086 7.92413 8.57337 7.77335 8.89005 7.61249C9.13449 7.48649 9.41253 7.40837 9.68805 7.42349C9.95727 7.43819 10.1597 7.57637 10.3672 7.73597C10.4863 7.83555 10.5669 7.97353 10.5953 8.12615C10.6228 8.27751 10.6329 8.43156 10.6251 8.58521C10.6277 8.61587 10.6207 8.64658 10.6049 8.67299" fill="white"/>
<path d="M8.6221 9.15222C8.61263 9.13516 8.60225 9.11861 8.59102 9.10266C8.48946 8.95945 8.34956 8.84779 8.1874 8.78052C8.17895 8.81218 8.16246 8.84112 8.13952 8.86452C8.10269 8.89045 8.06201 8.91044 8.01898 8.92374C7.6897 9.04386 7.6918 9.07452 7.3495 9.15012C7.2424 9.17364 7.129 9.198 7.0492 9.27318C7.03846 9.28131 7.0297 9.29177 7.02359 9.30377C7.01748 9.31578 7.01417 9.32901 7.01392 9.34248C7.01938 9.39834 7.09792 9.40632 7.1521 9.39876C7.68802 9.32106 8.16052 9.24 8.6221 9.15222Z" fill="#18C4FF"/>
<path d="M10.6181 8.64404C10.6244 8.68184 10.4274 8.70662 10.3988 8.71292C10.3119 8.73224 10.2254 8.75492 10.1384 8.77382C9.97602 8.8119 9.8132 8.84956 9.64996 8.8868C9.33972 8.9568 9.02864 9.0226 8.71672 9.0842C8.4048 9.1458 8.09036 9.2018 7.77341 9.2522C7.60233 9.2802 7.43139 9.30652 7.26059 9.33116C7.21859 9.33704 7.17659 9.34586 7.13459 9.3488C7.12189 9.35025 7.10906 9.35025 7.09637 9.3488C7.07747 9.34586 7.06487 9.34544 7.06823 9.32696C7.07369 9.29882 7.12493 9.27404 7.14761 9.26186C7.18292 9.24385 7.2201 9.22977 7.25849 9.21986C7.38449 9.18458 7.51805 9.16316 7.64405 9.1199C7.74401 9.08588 7.84018 9.04178 7.93804 9.00398C8.04304 8.96198 8.17282 8.93846 8.22196 8.82548C8.25744 8.72918 8.27921 8.62837 8.28664 8.52602C8.29366 8.43394 8.30771 8.34254 8.32864 8.2526C8.36019 8.13676 8.41861 8.02999 8.49916 7.94096C8.58325 7.85459 8.68032 7.78189 8.78686 7.7255C8.92305 7.64649 9.06757 7.58282 9.21778 7.53566C9.37846 7.48466 9.54731 7.46443 9.71548 7.47602C9.86589 7.49323 10.0099 7.54638 10.1355 7.631C10.2615 7.70996 10.3938 7.7969 10.469 7.92794C10.553 8.07242 10.5731 8.24042 10.5773 8.40422V8.52476C10.5831 8.56626 10.5785 8.60855 10.5639 8.64782C10.5596 8.65874 10.5594 8.67082 10.5632 8.68189C10.5671 8.69297 10.5747 8.70234 10.5847 8.70833C10.5948 8.71432 10.6067 8.71655 10.6182 8.71462C10.6298 8.71269 10.6403 8.70673 10.6479 8.6978C10.6899 8.62934 10.6764 8.5298 10.676 8.45462C10.6766 8.35985 10.6696 8.26518 10.655 8.17154C10.6335 8.01127 10.5626 7.86168 10.4522 7.74356C10.393 7.68869 10.3292 7.63908 10.2615 7.5953C10.196 7.5477 10.1268 7.50556 10.0544 7.4693C9.90539 7.39809 9.74103 7.3649 9.57604 7.3727C9.24004 7.38488 8.91118 7.51928 8.63314 7.70198C8.42314 7.84016 8.2585 8.0447 8.21776 8.2988C8.19928 8.41052 8.19256 8.52434 8.17282 8.6348C8.16581 8.68565 8.15298 8.73554 8.1346 8.78348C8.10982 8.84018 8.0506 8.85656 7.99726 8.87714C7.87799 8.91914 7.76207 8.97332 7.64279 9.01658C7.50881 9.06488 7.36895 9.08756 7.23203 9.12536C7.13795 9.15098 6.87755 9.26102 6.98843 9.39878C7.02665 9.44582 7.09679 9.45128 7.15265 9.44456C7.24715 9.43406 7.34165 9.41768 7.43573 9.40256C7.79356 9.34908 8.15042 9.28888 8.5063 9.22196C8.8465 9.157 9.18544 9.08602 9.52312 9.00902C9.69896 8.96926 9.8748 8.92824 10.0506 8.88596L10.3257 8.82002C10.4177 8.80152 10.5082 8.77654 10.5966 8.74526C10.647 8.72468 10.6966 8.68478 10.6806 8.62472C10.6784 8.61664 10.6731 8.60978 10.6658 8.60565C10.6585 8.60151 10.6499 8.60044 10.6418 8.60267C10.6337 8.6049 10.6269 8.61024 10.6227 8.61753C10.6186 8.62481 10.6175 8.63344 10.6197 8.64152L10.6181 8.64404Z" fill="black"/>
<path d="M8.31596 11.3564C8.16784 11.4125 8.02584 11.4836 7.89218 11.5685C7.86764 11.5814 7.84736 11.6011 7.8338 11.6252C7.81532 11.6672 7.83884 11.7143 7.86194 11.7512C7.97747 11.9453 8.10571 12.1315 8.24582 12.3086C8.34494 12.4346 8.46086 12.5606 8.61668 12.595C8.63914 12.6012 8.66275 12.6019 8.68556 12.5971C8.71027 12.5888 8.73301 12.5755 8.75234 12.5581L9.09379 12.2876C9.09846 12.2821 9.10448 12.2778 9.11126 12.2753C9.11803 12.2728 9.12534 12.2721 9.13248 12.2732C9.13962 12.2744 9.14634 12.2773 9.152 12.2818C9.15766 12.2863 9.16206 12.2922 9.16478 12.2989C9.21769 12.3804 9.26725 12.4648 9.31261 12.5509C9.33025 12.5837 9.35041 12.6202 9.38611 12.6303C9.45079 12.6488 9.49951 12.5723 9.52303 12.5093L9.60703 12.2884C9.61123 12.2775 9.61669 12.2653 9.62761 12.262C9.63853 12.2586 9.65323 12.2687 9.66289 12.2779C9.73875 12.3499 9.82342 12.412 9.91489 12.4627C9.95269 12.4837 10.0065 12.4997 10.0333 12.4661C10.0424 12.4524 10.0478 12.4367 10.0489 12.4203C10.0775 12.2582 10.0724 12.0919 10.0338 11.9318C9.99415 11.7708 9.89744 11.6296 9.76159 11.5345C9.66915 11.7663 9.55541 11.989 9.42181 12.1998L8.68892 11.6912C8.61164 11.637 8.53394 11.5832 8.46044 11.5232C8.4092 11.4851 8.36104 11.4451 8.31596 11.4031" fill="black"/>
<path d="M8.30553 11.324C8.21813 11.3527 8.13281 11.3873 8.05017 11.4277C7.97457 11.4655 7.87923 11.5054 7.81833 11.5659C7.75743 11.6264 7.77633 11.7041 7.81455 11.77C7.86117 11.854 7.91493 11.9351 7.96827 12.0149C8.06618 12.1672 8.17556 12.3118 8.29545 12.4475C8.38827 12.5479 8.56215 12.6961 8.71209 12.6428C8.74533 12.6279 8.77596 12.6078 8.80281 12.5831L8.93301 12.4802L9.04725 12.3904C9.06615 12.3752 9.08505 12.3601 9.10437 12.3454C9.11361 12.3379 9.13671 12.3324 9.12453 12.3261C9.11235 12.3198 9.14007 12.361 9.13923 12.3597C9.18795 12.4374 9.22995 12.5189 9.27615 12.5978C9.31101 12.6575 9.36897 12.7033 9.44079 12.6818C9.51261 12.6604 9.54537 12.592 9.56973 12.5319C9.58653 12.4899 9.60165 12.4479 9.61719 12.4059C9.62559 12.3845 9.63357 12.3639 9.64155 12.3416C9.647 12.3303 9.6515 12.3185 9.65499 12.3064L9.62307 12.3177L9.63651 12.3303C9.6662 12.363 9.70042 12.3913 9.73815 12.4143C9.77462 12.4422 9.81262 12.468 9.85197 12.4916C9.90783 12.5252 9.98427 12.5638 10.0468 12.5222C10.0626 12.5095 10.0755 12.4935 10.0844 12.4753C10.0933 12.457 10.0981 12.4371 10.0985 12.4168C10.1064 12.3632 10.1116 12.3092 10.114 12.2551C10.1198 12.1486 10.1104 12.0418 10.0859 11.938C10.0447 11.7567 9.9379 11.5971 9.78603 11.4899C9.77882 11.4858 9.77079 11.4834 9.76253 11.4829C9.75427 11.4824 9.746 11.4837 9.73833 11.4868C9.73066 11.4899 9.72379 11.4947 9.71823 11.5008C9.71267 11.507 9.70857 11.5143 9.70623 11.5222C9.61403 11.7491 9.50157 11.9673 9.37023 12.1741L9.44499 12.1543L8.88261 11.7637C8.70159 11.6377 8.51553 11.5172 8.35593 11.3639C8.30427 11.3143 8.22573 11.3929 8.27739 11.4424C8.43909 11.5974 8.62683 11.7196 8.80995 11.8469L9.38955 12.2488C9.40219 12.2559 9.4171 12.2578 9.43113 12.2542C9.44516 12.2505 9.45721 12.2415 9.46473 12.2291C9.59972 12.014 9.71499 11.7871 9.80913 11.5512L9.72933 11.5835C9.84422 11.6644 9.92832 11.7818 9.96789 11.9166C9.99354 11.9982 10.0077 12.0831 10.0099 12.1686C10.0099 12.2081 10.009 12.2476 10.0074 12.287C10.0088 12.3312 10.004 12.3753 9.99309 12.4181C9.98595 12.4361 9.99015 12.4357 9.96999 12.4332C9.95605 12.4298 9.94282 12.424 9.93093 12.416C9.86286 12.3778 9.79896 12.3326 9.74025 12.2812C9.71746 12.2554 9.6903 12.234 9.66003 12.2177C9.58401 12.1904 9.55881 12.2698 9.53823 12.324C9.51648 12.3976 9.48837 12.4691 9.45423 12.5378C9.44415 12.555 9.42483 12.5882 9.40047 12.5836C9.37611 12.5789 9.35511 12.5222 9.34461 12.5025C9.30555 12.4311 9.26481 12.361 9.21861 12.2925C9.18039 12.2341 9.13083 12.2014 9.06657 12.2467C9.00231 12.2921 8.93469 12.3513 8.86959 12.4034L8.77215 12.4807C8.74339 12.5108 8.709 12.5351 8.67093 12.5521C8.60751 12.5676 8.52099 12.5101 8.47269 12.4765C8.35089 12.3874 8.25849 12.2539 8.16987 12.1333C8.11653 12.0607 8.06487 11.9863 8.01531 11.9111C7.99053 11.8733 7.96617 11.8351 7.94265 11.7969C7.91483 11.7613 7.8926 11.7216 7.87671 11.6793C7.86369 11.6251 7.93131 11.5953 7.96995 11.5735C8.00859 11.5516 8.04639 11.5281 8.08503 11.5071C8.16567 11.4651 8.24757 11.4231 8.33157 11.387C8.36643 11.3723 8.34165 11.3135 8.30595 11.3257L8.30553 11.324Z" fill="black"/>
<path d="M7.4967 11.7361C6.33403 12.2246 5.28458 12.9477 4.4139 13.86C4.35216 13.9247 4.2879 13.9982 4.28076 14.0877C4.28089 14.1549 4.29856 14.2209 4.332 14.2792C4.57211 14.7901 4.89258 15.2591 5.2812 15.6685C5.4135 15.8076 5.57142 15.9478 5.76336 15.9554C5.92548 15.9621 6.07416 15.8714 6.20982 15.7828C6.79012 15.4033 7.34992 14.9934 7.88688 14.5547C7.95087 14.5101 8.00317 14.4508 8.03934 14.3817C8.06958 14.3103 8.05698 14.2137 7.99062 14.1738" fill="#18C4FF"/>
<path d="M7.48604 11.699C6.8963 11.936 6.33492 12.2382 5.81234 12.5999C5.28923 12.9576 4.80511 13.3692 4.36796 13.828C4.2596 13.9427 4.18904 14.0683 4.24784 14.2274C4.30938 14.3796 4.38312 14.5265 4.46834 14.6668C4.62814 14.9478 4.81299 15.2139 5.02064 15.4618C5.12186 15.5882 5.23234 15.7068 5.35118 15.8167C5.4608 15.9142 5.58806 15.9952 5.73674 16.0099C5.89844 16.0259 6.05048 15.949 6.18278 15.8659C6.33062 15.773 6.47468 15.6739 6.61832 15.5752C6.91176 15.3733 7.19988 15.1633 7.48268 14.9452C7.62086 14.8385 7.7582 14.7302 7.89344 14.6201C7.9997 14.5336 8.12234 14.4324 8.10722 14.2804C8.10488 14.2497 8.09548 14.2199 8.07974 14.1935C8.064 14.167 8.04236 14.1446 8.0165 14.1279C7.95812 14.0888 7.90604 14.1812 7.9619 14.2211C8.0081 14.2539 8.0039 14.3236 7.9829 14.3694C7.95182 14.4362 7.8863 14.4836 7.83044 14.529C7.70164 14.6343 7.5713 14.7379 7.43942 14.8398C7.17958 15.0411 6.91456 15.2354 6.64436 15.4228C6.508 15.5177 6.3701 15.6111 6.23066 15.7029C6.11012 15.7823 5.98244 15.8751 5.83586 15.8969C5.68928 15.9188 5.55194 15.8444 5.44232 15.7499C5.33176 15.6495 5.22885 15.541 5.13446 15.4253C4.93863 15.1959 4.76311 14.95 4.60988 14.6903C4.53204 14.5584 4.46008 14.4234 4.394 14.2854C4.3625 14.2195 4.32176 14.1455 4.33772 14.0704C4.352 14.0023 4.40534 13.9477 4.45112 13.8994C4.8578 13.4696 5.30618 13.0813 5.78966 12.7402C6.33218 12.3601 6.91112 12.0348 7.51796 11.7692C7.55702 11.7515 7.52888 11.6827 7.48814 11.699H7.48604Z" fill="#18C4FF"/>
<path d="M6.42102 22.7442C6.41992 22.7893 6.42645 22.8344 6.44034 22.8773C6.4523 22.9209 6.46877 22.9631 6.48948 23.0033C6.52919 23.0849 6.58658 23.1567 6.65748 23.2133C6.69276 23.2402 6.73182 23.1839 6.70326 23.1537C6.64613 23.0972 6.59734 23.0328 6.55836 22.9626C6.54161 22.928 6.52756 22.8922 6.51636 22.8555C6.50334 22.8135 6.49872 22.7715 6.48654 22.7341C6.48417 22.727 6.47938 22.7208 6.473 22.7168C6.46661 22.7128 6.45903 22.7112 6.45156 22.7122C6.44409 22.7132 6.4372 22.7168 6.43208 22.7223C6.42697 22.7278 6.42394 22.735 6.42354 22.7425L6.42102 22.7442Z" fill="black"/>
<path d="M6.82667 22.6406C6.84377 22.7414 6.87194 22.84 6.91067 22.9346C6.94259 23.011 6.97913 23.1127 7.06523 23.1416C7.07411 23.1438 7.08347 23.1427 7.09163 23.1386C7.0998 23.1345 7.10624 23.1276 7.10982 23.1192C7.11339 23.1108 7.11387 23.1014 7.11117 23.0926C7.10846 23.0839 7.10275 23.0764 7.09505 23.0715C7.02785 23.0341 6.99971 22.9539 6.97199 22.8863C6.93773 22.8015 6.90966 22.7143 6.88799 22.6255C6.87791 22.5856 6.81953 22.6028 6.82709 22.6423L6.82667 22.6406Z" fill="black"/>
<path d="M7.2068 22.5718C7.22484 22.5996 7.2399 22.6293 7.25174 22.6604L7.29626 22.7528C7.32734 22.8162 7.35758 22.8788 7.39034 22.943C7.39601 22.9524 7.40511 22.9591 7.4157 22.9619C7.42629 22.9646 7.43753 22.9631 7.44704 22.9577C7.45628 22.9521 7.46297 22.943 7.46571 22.9325C7.46845 22.9221 7.46703 22.9109 7.46174 22.9015C7.4294 22.8359 7.39454 22.7713 7.36052 22.7066L7.30802 22.6096C7.29353 22.5785 7.27394 22.5501 7.25006 22.5256C7.21982 22.497 7.18034 22.5394 7.20554 22.5705L7.2068 22.5718Z" fill="black"/>
<path d="M5.88621 15.9927C6.11385 15.8667 6.33435 15.7273 6.55317 15.5862C6.77199 15.4451 6.99249 15.3132 7.18947 15.1502C7.22475 15.1208 7.17939 15.0662 7.14117 15.0872C6.92067 15.2178 6.71487 15.3766 6.50151 15.5177C6.28815 15.6588 6.06891 15.7966 5.85429 15.9377C5.84705 15.9419 5.84178 15.9489 5.83966 15.957C5.83753 15.9651 5.83871 15.9737 5.84295 15.981C5.84718 15.9882 5.85411 15.9935 5.86223 15.9956C5.87034 15.9977 5.87897 15.9965 5.88621 15.9923V15.9927Z" fill="black"/>
<path d="M11.3645 13.9441C11.5068 14.2612 11.5039 14.6194 11.4518 14.9567C11.4254 15.1289 11.3867 15.299 11.3485 15.4687C11.3065 15.6489 11.2553 15.8303 11.2313 16.0147C11.225 16.0642 11.3015 16.0697 11.3153 16.026C11.375 15.8416 11.4052 15.6438 11.4472 15.4548C11.4867 15.2763 11.5257 15.0978 11.5497 14.9168C11.5951 14.577 11.5778 14.223 11.4199 13.913C11.401 13.8756 11.3477 13.9084 11.3645 13.9453V13.9441Z" fill="black"/>
<path d="M11.3715 16.296C11.9322 16.6967 12.5987 16.9752 13.2896 17.0273C13.9137 17.0743 14.5336 16.9097 15.078 16.6073C15.6189 16.3011 16.088 15.8824 16.4535 15.3796C16.8852 14.795 17.1742 14.1196 17.577 13.5182C17.6731 13.3741 17.7744 13.2342 17.9239 13.1402C18.0734 13.0461 18.22 12.9873 18.3464 12.8709C18.4098 12.8107 18.4697 12.7469 18.5257 12.6798C18.5804 12.6222 18.628 12.5583 18.6677 12.4896C18.7294 12.3678 18.7097 12.2111 18.5707 12.1557C18.5451 12.1451 18.517 12.1418 18.4897 12.1462C18.4623 12.1505 18.4367 12.1624 18.4157 12.1805C18.3682 12.2174 18.4346 12.2829 18.4816 12.2464C18.5287 12.2099 18.5955 12.2766 18.6076 12.3195C18.6295 12.3951 18.5715 12.4774 18.5274 12.5328C18.4305 12.6657 18.3156 12.7845 18.186 12.8856C18.057 12.9772 17.905 13.0305 17.7815 13.1305C17.658 13.2305 17.5681 13.3653 17.4816 13.4963C17.1036 14.0688 16.8231 14.7005 16.422 15.2603C16.0791 15.7408 15.642 16.1463 15.1372 16.4523C14.6374 16.7513 14.0666 16.9336 13.4811 16.9307C12.8221 16.9277 12.1829 16.6942 11.6201 16.3624C11.5495 16.3204 11.479 16.2784 11.4101 16.2364C11.3681 16.2108 11.3358 16.2725 11.3731 16.2994L11.3715 16.296Z" fill="black"/>
<path d="M12.6092 14.0389C12.7968 14.2402 13.0066 14.4197 13.2346 14.5739C13.3413 14.6453 13.4647 14.7419 13.5996 14.7419C13.7256 14.7419 13.8516 14.6613 13.9603 14.6063C14.4251 14.3656 14.866 14.0814 15.277 13.7575C16.1086 13.1182 16.8646 12.3841 17.7214 11.7772C17.9671 11.6033 18.2301 11.4302 18.532 11.3782C18.8647 11.321 19.1902 11.4521 19.4934 11.5722C19.5455 11.5928 19.5669 11.5096 19.5165 11.4882C19.2519 11.3798 18.976 11.2711 18.6853 11.2753C18.4207 11.279 18.1725 11.3849 17.9491 11.5197C17.723 11.6612 17.5053 11.8154 17.2968 11.9817C17.094 12.1379 16.8957 12.2996 16.6996 12.4639C15.9016 13.1312 15.1309 13.8452 14.2254 14.3665C14.0994 14.4393 13.9711 14.5079 13.8406 14.5723C13.7709 14.6063 13.6974 14.6508 13.6185 14.6563C13.5324 14.6651 13.4538 14.6143 13.3833 14.5723C13.1175 14.4087 12.8725 14.2135 12.6537 13.991C12.6252 13.962 12.5815 14.0061 12.6092 14.0359V14.0389Z" fill="black"/>
<path d="M18.7531 11.7364C18.8001 11.7857 18.8403 11.8411 18.8728 11.901C18.8879 11.926 18.8998 11.9528 18.908 11.9808C18.9085 11.985 18.9085 11.9892 18.908 11.9934V12.001V12.0043V12.011V12.014C18.908 12.0119 18.916 12.0102 18.908 12.014C18.8994 12.0166 18.892 12.0226 18.8877 12.0305C18.8833 12.0385 18.8822 12.0478 18.8846 12.0566C18.887 12.0653 18.8927 12.0728 18.9006 12.0774C18.9084 12.082 18.9177 12.0834 18.9265 12.0812C18.9434 12.0764 18.9582 12.066 18.9685 12.0518C18.9788 12.0375 18.984 12.0202 18.9832 12.0026C18.9808 11.9655 18.9694 11.9294 18.95 11.8976C18.9102 11.8223 18.8592 11.7533 18.7988 11.6931C18.7927 11.688 18.7849 11.6855 18.777 11.6858C18.7691 11.6862 18.7615 11.6895 18.7559 11.6951C18.7503 11.7008 18.747 11.7083 18.7466 11.7162C18.7462 11.7241 18.7488 11.7319 18.7539 11.738L18.7531 11.7364Z" fill="black"/>
<path d="M18.8495 12.3727C18.8585 12.3717 18.8668 12.3675 18.8728 12.3608C18.8788 12.3541 18.8822 12.3454 18.8822 12.3364C18.8822 12.3274 18.8788 12.3187 18.8728 12.312C18.8668 12.3053 18.8585 12.301 18.8495 12.3C18.8406 12.301 18.8323 12.3053 18.8262 12.312C18.8202 12.3187 18.8169 12.3274 18.8169 12.3364C18.8169 12.3454 18.8202 12.3541 18.8262 12.3608C18.8323 12.3675 18.8406 12.3717 18.8495 12.3727Z" fill="black"/>
<path d="M20.4653 9.55786H38.2528V10.3928H20.4653V9.55786Z" fill="#18C4FF"/>
<path d="M38.2527 10.2992H21.1873C20.9584 10.2992 20.7253 10.2841 20.4956 10.2992C20.4855 10.2992 20.4754 10.2992 20.4653 10.2992L20.5586 10.3929V9.55794L20.4653 9.65118H37.5303C37.7592 9.65118 37.9923 9.66672 38.2225 9.65118H38.2527L38.1591 9.55794V10.3929C38.1591 10.513 38.346 10.513 38.346 10.3929V9.55794C38.3456 9.53331 38.3357 9.50979 38.3183 9.49237C38.3009 9.47495 38.2774 9.46503 38.2527 9.4647H21.1873C20.9567 9.4647 20.7253 9.46008 20.4956 9.4647H20.4653C20.4407 9.46503 20.4172 9.47495 20.3997 9.49237C20.3823 9.50979 20.3724 9.53331 20.3721 9.55794V10.3929C20.3724 10.4175 20.3823 10.4411 20.3997 10.4585C20.4172 10.4759 20.4407 10.4858 20.4653 10.4861H37.5303C37.7609 10.4861 37.9923 10.4903 38.2225 10.4861H38.2527C38.3728 10.4861 38.3728 10.2992 38.2527 10.2992Z" fill="#18C4FF"/>
<path d="M20.4653 19.042H38.2528V19.877H20.4653V19.042Z" fill="#18C4FF"/>
<path d="M38.2527 19.7821H21.1873C20.9584 19.7821 20.7253 19.7666 20.4956 19.7821H20.4653L20.5586 19.8754V19.0421L20.4653 19.1357H37.5303C37.7592 19.1357 37.9923 19.1509 38.2225 19.1357H38.2527L38.1591 19.0421V19.877C38.1591 19.9972 38.346 19.9976 38.346 19.877V19.0421C38.3456 19.0174 38.3357 18.9939 38.3183 18.9765C38.3009 18.9591 38.2774 18.9492 38.2527 18.9488H21.1873C20.9567 18.9488 20.7253 18.9442 20.4956 18.9488H20.4653C20.4407 18.9492 20.4172 18.9591 20.3997 18.9765C20.3823 18.9939 20.3724 19.0174 20.3721 19.0421V19.877C20.3724 19.9017 20.3823 19.9252 20.3997 19.9426C20.4172 19.96 20.4407 19.9699 20.4653 19.9703H37.5303C37.7609 19.9703 37.9923 19.9749 38.2225 19.9703H38.2527C38.3728 19.9703 38.3728 19.7821 38.2527 19.7821Z" fill="#18C4FF"/>
<path d="M20.4653 28.5264H38.2528V29.3613H20.4653V28.5264Z" fill="#18C4FF"/>
<path d="M38.2527 29.2677H21.1873C20.9584 29.2677 20.7253 29.2526 20.4956 29.2677C20.4855 29.2677 20.4754 29.2677 20.4653 29.2677L20.5586 29.361V28.5264L20.4653 28.6197H37.5303C37.7592 28.6197 37.9923 28.6348 38.2225 28.6197H38.2527L38.1591 28.5264V29.361C38.1591 29.4815 38.346 29.4815 38.346 29.361V28.5264C38.3456 28.5018 38.3357 28.4782 38.3183 28.4607C38.3009 28.4432 38.2774 28.4332 38.2527 28.4328H21.1873C20.9567 28.4328 20.7253 28.4286 20.4956 28.4328H20.4653C20.4406 28.4332 20.4171 28.4432 20.3997 28.4607C20.3823 28.4782 20.3724 28.5018 20.3721 28.5264V29.361C20.3723 29.3857 20.3822 29.4093 20.3996 29.4268C20.417 29.4443 20.4406 29.4543 20.4653 29.4546H37.5303C37.7609 29.4546 37.9923 29.4588 38.2225 29.4546H38.2527C38.3728 29.4546 38.3728 29.2677 38.2527 29.2677Z" fill="#18C4FF"/>
<path d="M20.4653 38.0105H38.2528V38.8455H20.4653V38.0105Z" fill="#18C4FF"/>
<path d="M38.2527 38.7522H21.1873C20.9584 38.7522 20.7253 38.7367 20.4956 38.7522H20.4653L20.5586 38.8455V38.0101L20.4653 38.1033H37.5303C37.7592 38.1033 37.9923 38.1189 38.2225 38.1033H38.2527L38.1591 38.0101V38.8451C38.1591 38.9652 38.346 38.9652 38.346 38.8451V38.0101C38.3456 37.9855 38.3357 37.9619 38.3183 37.9445C38.3009 37.9271 38.2774 37.9172 38.2527 37.9168H21.1873C20.9567 37.9168 20.7253 37.9122 20.4956 37.9168H20.4653C20.4407 37.9172 20.4172 37.9271 20.3997 37.9445C20.3823 37.9619 20.3724 37.9855 20.3721 38.0101V38.8451C20.3724 38.8697 20.3823 38.8932 20.3997 38.9106C20.4172 38.928 20.4407 38.938 20.4653 38.9383H37.5303C37.7609 38.9383 37.9923 38.9429 38.2225 38.9383H38.2527C38.3728 38.9387 38.3728 38.7522 38.2527 38.7522Z" fill="#18C4FF"/>
<path d="M40.95 38.8454H37.8235V4.51875C37.8234 4.42644 37.8416 4.33503 37.8769 4.24973C37.9121 4.16443 37.9639 4.08692 38.0291 4.02163C38.0944 3.95633 38.1719 3.90454 38.2572 3.8692C38.3424 3.83386 38.4338 3.81567 38.5261 3.81567H40.2481C40.4344 3.8159 40.613 3.89008 40.7446 4.02192C40.8762 4.15376 40.9501 4.33247 40.95 4.51875V38.8454Z" fill="black"/>
<path d="M40.95 38.7521H37.8235L37.9167 38.8454V4.65736C37.9167 4.61536 37.9167 4.57336 37.9167 4.53136C37.9264 4.18276 38.1755 3.92026 38.5274 3.9064C38.8244 3.89464 39.1242 3.9064 39.4216 3.9064C39.719 3.9064 40.0352 3.8728 40.3296 3.9127C40.6484 3.9547 40.8492 4.22728 40.8567 4.53682V4.67206V38.8454C40.8567 38.9655 41.0432 38.9655 41.0432 38.8454V4.60906C41.0432 4.13824 40.7492 3.73714 40.2452 3.72244C39.942 3.71362 39.6371 3.72244 39.3334 3.72244C39.0369 3.72244 38.7252 3.69388 38.43 3.72874C37.9621 3.78376 37.729 4.19074 37.729 4.62166V38.8454C37.7294 38.87 37.7395 38.8935 37.7569 38.9109C37.7744 38.9284 37.798 38.9383 37.8227 38.9386H40.95C41.0701 38.9386 41.0705 38.7521 40.95 38.7521Z" fill="black"/>
<path d="M39.0181 5.93872L39.3866 5.57016L39.7552 5.93872L39.3866 6.30728L39.0181 5.93872Z" fill="white"/>
<path d="M39.0178 8.82202L39.3864 8.45346L39.7549 8.82202L39.3864 9.19058L39.0178 8.82202Z" fill="white"/>
<path d="M39.0183 11.7058L39.3869 11.3373L39.7554 11.7058L39.3869 12.0744L39.0183 11.7058Z" fill="white"/>
<path d="M39.0178 14.5891L39.3864 14.2206L39.7549 14.5891L39.3864 14.9577L39.0178 14.5891Z" fill="white"/>
<path d="M39.0181 17.4722L39.3866 17.1036L39.7552 17.4722L39.3866 17.8407L39.0181 17.4722Z" fill="white"/>
<path d="M39.0181 20.356L39.3866 19.9874L39.7552 20.356L39.3866 20.7245L39.0181 20.356Z" fill="white"/>
<path d="M39.0181 23.2393L39.3866 22.8707L39.7552 23.2393L39.3866 23.6078L39.0181 23.2393Z" fill="white"/>
<path d="M39.0181 26.123L39.3866 25.7545L39.7552 26.123L39.3866 26.4916L39.0181 26.123Z" fill="white"/>
<path d="M39.0178 29.0063L39.3864 28.6378L39.7549 29.0063L39.3864 29.3749L39.0178 29.0063Z" fill="white"/>
<path d="M39.0181 31.8899L39.3866 31.5213L39.7552 31.8899L39.3866 32.2584L39.0181 31.8899Z" fill="white"/>
<path d="M39.0181 34.7732L39.3866 34.4046L39.7552 34.7732L39.3866 35.1418L39.0181 34.7732Z" fill="white"/>
<path d="M9.71419 22.0398C9.77864 22.6147 9.76819 23.1955 9.68311 23.7677C9.67597 23.8151 9.74821 23.8353 9.75535 23.7878C9.84205 23.2089 9.8501 22.6209 9.77929 22.0398C9.77425 21.9978 9.70957 21.9978 9.71419 22.0398Z" fill="#18C4FF"/>
<path d="M1.5997 36.6076C1.59421 36.6129 1.58752 36.6168 1.58021 36.6189C1.57289 36.621 1.56517 36.6213 1.5577 36.6198C1.54757 36.617 1.53674 36.6184 1.5276 36.6236C1.51847 36.6288 1.51177 36.6374 1.50898 36.6475C1.5062 36.6576 1.50756 36.6685 1.51275 36.6776C1.51795 36.6867 1.52657 36.6934 1.5367 36.6962C1.85587 36.8206 2.1879 36.9091 2.52664 36.96C2.59646 36.9647 2.6655 36.9774 2.73244 36.9978C2.82232 37.0343 2.78452 37.1095 2.78536 37.186C2.78475 37.2149 2.79231 37.2434 2.80717 37.2682C2.82202 37.293 2.84358 37.3131 2.86936 37.3262C2.93068 37.3523 2.97604 37.3111 3.01342 37.2674C3.06315 37.2093 3.128 37.166 3.20079 37.1424C3.27359 37.1189 3.35149 37.1159 3.42586 37.1339C3.43779 37.1362 3.45014 37.1339 3.46045 37.1275C3.47076 37.121 3.47828 37.111 3.48151 37.0993C3.48474 37.0876 3.48345 37.0751 3.47788 37.0643C3.47232 37.0535 3.46289 37.0452 3.45148 37.0411C3.32491 37.0099 3.19122 37.0277 3.07726 37.091C3.02145 37.124 2.97196 37.1667 2.9311 37.217C2.92312 37.2263 2.91598 37.2397 2.90296 37.2355C2.88994 37.2313 2.88574 37.204 2.88448 37.1935C2.87944 37.1536 2.89582 37.1125 2.89414 37.0721C2.88868 36.9339 2.75218 36.8966 2.63836 36.8815C2.46293 36.8591 2.2888 36.8274 2.11672 36.7865C1.92797 36.7409 1.74167 36.6857 1.55854 36.621L1.54804 36.6988C1.56537 36.6984 1.58245 36.6945 1.5982 36.6873C1.61396 36.6801 1.62805 36.6697 1.6396 36.6568C1.66312 36.6316 1.63204 36.5862 1.60096 36.6068L1.5997 36.6076Z" fill="#18C4FF"/>
<path d="M12.5676 37.384C13.0036 37.4306 13.421 37.2778 13.8276 37.1463C13.9077 37.1131 13.993 37.0943 14.0796 37.0909C14.1129 37.09 14.1456 37.0999 14.1728 37.119C14.1981 37.149 14.218 37.1831 14.2316 37.2198C14.264 37.2748 14.3295 37.3118 14.3841 37.2593C14.4307 37.2143 14.4194 37.1434 14.4748 37.1018C14.5933 37.0136 14.7604 37.0178 14.8461 36.8838C14.878 36.8326 14.7982 36.7868 14.7655 36.8368C14.6974 36.9401 14.5445 36.9481 14.4454 37.0085C14.3949 37.038 14.3567 37.0847 14.3379 37.14C14.3341 37.1522 14.3337 37.1749 14.3257 37.1841C14.3177 37.1933 14.3182 37.1904 14.3085 37.1749C14.2925 37.142 14.2745 37.1102 14.2547 37.0795C14.1598 36.9632 13.9813 37.0098 13.8604 37.0489C13.6613 37.1131 13.4643 37.1841 13.2619 37.2379C13.0359 37.3039 12.8001 37.33 12.5651 37.3151C12.5201 37.3109 12.5231 37.3794 12.5651 37.384H12.5676Z" fill="#18C4FF"/>
</svg>
