<svg width="31" height="26" viewBox="0 0 31 26" fill="none" xmlns="http://www.w3.org/2000/svg">
<path d="M11.4506 23.9942C10.5406 23.9942 10.704 23.6442 10.3773 22.7809L7.71729 14.0075L24.2373 3.69421L26.174 4.20755L24.564 8.59421L11.4506 23.9942Z" fill="#C8DAEA"/>
<path d="M11.4507 23.9942C12.1507 23.9942 12.454 23.6675 12.8507 23.2942C13.4573 22.7109 21.2507 15.1275 21.2507 15.1275L16.4673 13.9609L12.034 16.7609L11.4507 23.7609V23.9942Z" fill="#A9C9DD"/>
<path d="M11.9172 16.8542L23.2105 25.1842C24.4938 25.8842 25.4272 25.5342 25.7538 23.9942L30.3505 2.34091C30.8172 0.45091 29.6272 -0.389089 28.3905 0.170911L1.41717 10.5776C-0.42616 11.3242 -0.402827 12.3509 1.09051 12.7942L8.02051 14.9642L24.0505 4.86091C24.7972 4.39424 25.4972 4.65091 24.9372 5.16425L11.9172 16.8542Z" fill="url(#paint0_linear_302_10)"/>
<defs>
<linearGradient id="paint0_linear_302_10" x1="18.6817" y1="12.0371" x2="24.5151" y2="21.3704" gradientUnits="userSpaceOnUse">
<stop stop-color="#EFF7FC"/>
<stop offset="1" stop-color="white"/>
</linearGradient>
</defs>
</svg>
