<svg width="35" height="35" viewBox="0 0 35 35" fill="none" xmlns="http://www.w3.org/2000/svg">
<path d="M7.65625 25.1562H1.09375V1.09375H33.9062V25.1562H29.5312H7.65625Z" fill="#007E37"/>
<path d="M1.09375 1.09375V25.1562H5.46875H7.65625H27.3438H29.5312H31.7188V1.09375H1.09375Z" fill="#00BD53"/>
<path d="M16.4062 21.875H27.8906C29.4005 21.875 30.625 20.6505 30.625 19.1406V7.10938C30.625 5.59945 29.4005 4.375 27.8906 4.375H7.10938C5.59945 4.375 4.375 5.59945 4.375 7.10938V19.1406C4.375 20.4619 5.31234 21.5644 6.55812 21.8192" fill="#CCCCCC"/>
<path d="M28.4375 19.1406V7.10938C28.4375 5.59945 27.213 4.375 25.7031 4.375H7.10938C5.59945 4.375 4.375 5.59945 4.375 7.10938V19.1406C4.375 20.4619 5.31234 21.5644 6.55812 21.8192L16.4062 21.875H25.7031C27.213 21.875 28.4375 20.6505 28.4375 19.1406Z" fill="#E6E6E6"/>
<path d="M30.625 20.7812H26.25V22.9688H30.625V20.7812Z" fill="#A67C52"/>
<path d="M29.5312 20.7812H26.25V22.9688H29.5312V20.7812Z" fill="#C69C6D"/>
<path d="M29.5312 22.9688H27.3438V29.5312H29.5312V22.9688Z" fill="#8C6239"/>
<path d="M28.4375 22.9688H27.3438V29.5312H28.4375V22.9688Z" fill="#A67C52"/>
<path d="M31.7188 29.5312H25.1562V31.7188H31.7188V29.5312Z" fill="#613516"/>
<path d="M30.625 29.5312H25.1562V31.7188H30.625V29.5312Z" fill="#81461E"/>
<path d="M32.8125 31.7188H24.0625V33.9062H32.8125V31.7188Z" fill="#482A0E"/>
<path d="M31.7188 31.7188H24.0625V33.9062H31.7188V31.7188Z" fill="#562E08"/>
<path d="M14.7656 25.1562L15.3125 31.7188L11.4844 29.5312L7.10938 31.7188L8.20312 25.1562H14.7656Z" fill="#94090D"/>
<path d="M10.3907 29.5313L10.9009 29.8227L11.4845 29.5313L14.1641 31.0625L13.672 25.1562H8.2032L7.20898 31.1221L10.3907 29.5313Z" fill="#D40D12"/>
<path d="M6.8425 19.6875C7.51844 17.7762 9.34117 16.4062 11.4844 16.4062C14.2029 16.4062 16.4062 18.6096 16.4062 21.3281C16.4062 24.0466 14.2029 26.25 11.4844 26.25C8.76586 26.25 6.5625 24.0466 6.5625 21.3281C6.5625 20.7528 6.66094 20.2005 6.8425 19.6875Z" fill="#B96E16"/>
<path d="M10.6515 16.4779C8.87906 16.7803 7.42875 18.0288 6.8425 19.687C6.66094 20.2005 6.5625 20.7528 6.5625 21.3281C6.5625 23.7661 8.33711 25.7852 10.6641 26.1762C12.991 25.7852 14.7656 23.7661 14.7656 21.3281C14.7656 18.8858 12.9845 16.864 10.6515 16.4779Z" fill="#F7931E"/>
<path d="M11.4844 24.0625C12.9945 24.0625 14.2188 22.8383 14.2188 21.3281C14.2188 19.818 12.9945 18.5938 11.4844 18.5938C9.97422 18.5938 8.75 19.818 8.75 21.3281C8.75 22.8383 9.97422 24.0625 11.4844 24.0625Z" fill="#BC842C"/>
<path d="M10.9375 24.0072C12.1456 24.0072 13.125 22.8077 13.125 21.3281C13.125 19.8484 12.1456 18.6489 10.9375 18.6489C9.72938 18.6489 8.75 19.8484 8.75 21.3281C8.75 22.8077 9.72938 24.0072 10.9375 24.0072Z" fill="#FBB03B"/>
<path d="M27.3438 24.6094H15.073V25.7031H27.3438V24.6094Z" fill="black"/>
<path d="M33.9062 25.7031H29.5312V24.6094H33.3594V1.64062H1.64062V24.6094H7.65625V25.7031H1.09375C0.791328 25.7031 0.546875 25.4581 0.546875 25.1562V1.09375C0.546875 0.791875 0.791328 0.546875 1.09375 0.546875H33.9062C34.2087 0.546875 34.4531 0.791875 34.4531 1.09375V25.1562C34.4531 25.4581 34.2087 25.7031 33.9062 25.7031Z" fill="black"/>
<path d="M11.4844 26.7969C8.46891 26.7969 6.01562 24.3436 6.01562 21.3281C6.01562 20.7036 6.12008 20.09 6.32625 19.5054H6.3268C7.09789 17.3245 9.17109 15.8594 11.4844 15.8594C14.4998 15.8594 16.9531 18.3127 16.9531 21.3281C16.9531 24.3436 14.4998 26.7969 11.4844 26.7969ZM7.3582 19.8696C7.19305 20.3372 7.10938 20.8277 7.10938 21.3281C7.10938 23.7404 9.07211 25.7031 11.4844 25.7031C13.8966 25.7031 15.8594 23.7404 15.8594 21.3281C15.8594 18.9159 13.8966 16.9531 11.4844 16.9531C9.6332 16.9531 7.97508 18.1251 7.3582 19.8696Z" fill="black"/>
<path d="M7.10932 32.2656C6.99448 32.2656 6.88018 32.2296 6.78448 32.1585C6.61877 32.0365 6.5362 31.8314 6.56956 31.6285L7.66331 25.066L8.74229 25.246L7.82573 30.7497L11.2399 29.0424C11.4034 28.9609 11.5975 28.9664 11.7556 29.0566L14.6814 30.7284L14.2209 25.2022L15.3103 25.1114L15.8571 31.6739C15.8741 31.8763 15.7773 32.0715 15.6061 32.1803C15.4355 32.2897 15.2184 32.2952 15.0412 32.194L11.4674 30.152L7.35432 32.2088C7.27667 32.2465 7.19245 32.2656 7.10932 32.2656Z" fill="black"/>
<path d="M11.4844 24.6094C9.67477 24.6094 8.20312 23.1377 8.20312 21.3281C8.20312 19.5185 9.67477 18.0469 11.4844 18.0469C13.294 18.0469 14.7656 19.5185 14.7656 21.3281C14.7656 23.1377 13.294 24.6094 11.4844 24.6094ZM11.4844 19.1406C10.278 19.1406 9.29688 20.1217 9.29688 21.3281C9.29688 22.5345 10.278 23.5156 11.4844 23.5156C12.6908 23.5156 13.6719 22.5345 13.6719 21.3281C13.6719 20.1217 12.6908 19.1406 11.4844 19.1406Z" fill="black"/>
<path d="M6.44875 22.3552C4.93062 22.0445 3.82812 20.6927 3.82812 19.1406V7.10938C3.82812 5.29977 5.29977 3.82812 7.10938 3.82812H27.8906C29.7002 3.82812 31.1719 5.29977 31.1719 7.10938V19.1406C31.1719 19.8576 30.9449 20.5384 30.5156 21.1099L29.6406 20.4531C29.9266 20.0725 30.0781 19.6186 30.0781 19.1406V7.10938C30.0781 5.90297 29.097 4.92188 27.8906 4.92188H7.10938C5.90297 4.92188 4.92188 5.90297 4.92188 7.10938V19.1406C4.92188 20.1753 5.65633 21.0766 6.6675 21.2838L6.44875 22.3552Z" fill="black"/>
<path d="M26.25 21.3281H16.4062V22.4219H26.25V21.3281Z" fill="black"/>
<path d="M20.7812 7.10938H14.2188V8.20312H20.7812V7.10938Z" fill="black"/>
<path d="M23.5156 9.29688H11.4844V10.3906H23.5156V9.29688Z" fill="black"/>
<path d="M20.7812 11.4844H14.2188V12.5781H20.7812V11.4844Z" fill="black"/>
<path d="M32.8125 34.4531H24.0625C23.7601 34.4531 23.5156 34.2081 23.5156 33.9062V31.7188C23.5156 31.4169 23.7601 31.1719 24.0625 31.1719H32.8125C33.1149 31.1719 33.3594 31.4169 33.3594 31.7188V33.9062C33.3594 34.2081 33.1149 34.4531 32.8125 34.4531ZM24.6094 33.3594H32.2656V32.2656H24.6094V33.3594Z" fill="black"/>
<path d="M31.7188 32.2656H25.1562C24.8538 32.2656 24.6094 32.0206 24.6094 31.7188V29.5312C24.6094 29.2294 24.8538 28.9844 25.1562 28.9844H31.7188C32.0212 28.9844 32.2656 29.2294 32.2656 29.5312V31.7188C32.2656 32.0206 32.0212 32.2656 31.7188 32.2656ZM25.7031 31.1719H31.1719V30.0781H25.7031V31.1719Z" fill="black"/>
<path d="M29.5312 30.0781H27.3438C27.0413 30.0781 26.7969 29.8331 26.7969 29.5312V22.9688C26.7969 22.6669 27.0413 22.4219 27.3438 22.4219H29.5312C29.8337 22.4219 30.0781 22.6669 30.0781 22.9688V29.5312C30.0781 29.8331 29.8337 30.0781 29.5312 30.0781ZM27.8906 28.9844H28.9844V23.5156H27.8906V28.9844Z" fill="black"/>
<path d="M30.625 23.5156H26.25C25.9476 23.5156 25.7031 23.2706 25.7031 22.9688V20.7812C25.7031 20.4794 25.9476 20.2344 26.25 20.2344H30.625C30.9274 20.2344 31.1719 20.4794 31.1719 20.7812V22.9688C31.1719 23.2706 30.9274 23.5156 30.625 23.5156ZM26.7969 22.4219H30.0781V21.3281H26.7969V22.4219Z" fill="black"/>
</svg>
