<svg width="59" height="54" viewBox="0 0 59 54" fill="none" xmlns="http://www.w3.org/2000/svg">
<path d="M1 5.71743C4.96995 4.37296 8.89056 3.53043 12.9996 3.60662C19.6296 3.72762 25.0709 6.51067 29.7721 10.9564C30.5481 11.6958 30.9743 11.7362 31.8176 11.0147C36.6757 6.87816 42.2202 3.84414 47.9666 1.1552C48.0622 1.08724 48.171 1.04007 48.286 1.01675C48.401 0.99343 48.5196 0.99447 48.6342 1.01981C48.7488 1.04515 48.8567 1.09423 48.9511 1.16387C49.0455 1.2335 49.1243 1.32216 49.1822 1.42409C53.0669 6.5286 56.3999 11.9154 57.6739 18.3196C59.1692 25.8815 57.1356 32.3424 51.5732 37.7024C45.8089 43.2192 39.2641 47.7277 32.7731 52.3258C31.1044 53.5089 29.8887 52.9442 28.4891 52.0882C21.4855 47.7825 15.0297 42.6451 9.26288 36.7882C6.90879 34.4282 5.21649 31.4919 4.35539 28.2732C3.38405 24.4761 3.44756 20.4885 4.53931 16.7242C4.88024 15.4469 5.2391 14.1742 5.62488 12.9103C6.07346 11.418 5.65628 10.1766 4.68286 9.03379C3.61075 7.80136 2.24257 6.90505 1 5.71743ZM46.6208 4.26541C45.5569 4.60526 44.5408 5.07967 43.5974 5.6771C38.1247 8.63046 32.9839 12.032 28.8928 16.7959C24.4923 21.9183 22.5095 27.7085 24.1289 34.4712C25.4118 39.8491 27.7176 44.7788 30.409 49.5786C30.8935 50.448 31.1268 49.9147 31.4318 49.4755C34.4595 44.9057 36.9122 39.9807 38.7347 34.8118C41.6146 27.0049 43.5256 18.9336 45.2482 10.813C45.7012 8.6663 46.3584 6.58897 46.8339 4.32129L46.6208 4.26541ZM35.3255 47.7814C35.7304 47.5816 36.1242 47.3602 36.5053 47.1182C41.498 43.5777 46.3741 39.9028 50.7298 35.5737C54.8254 31.4999 56.5614 26.5791 55.9289 20.8382C55.256 14.8867 52.5421 9.79566 49.2002 4.97798C49.1809 4.94483 49.155 4.91596 49.1242 4.89313C49.0933 4.87029 49.0582 4.85398 49.0208 4.84518C48.9834 4.83637 48.9447 4.83526 48.9069 4.84191C48.8691 4.84856 48.833 4.86284 48.8009 4.88387C45.5263 19.5341 42.7271 34.3591 35.3255 47.7725V47.7814ZM7.76462 9.75085C7.86779 11.2835 7.94854 12.5294 7.57173 13.7529C7.19492 14.9764 6.84503 16.146 6.52653 17.3381C4.7322 24.1367 5.85814 30.272 10.8643 35.4213C15.6283 40.3196 21.0382 44.4606 26.5647 48.4537C26.6051 48.4806 26.7352 48.382 26.9011 48.3148C26.0443 46.6924 25.1876 45.1194 24.3846 43.515C21.3028 37.3797 19.1721 30.8904 17.2566 24.3249C16.2114 20.7397 15.1393 17.1947 12.699 14.2503C11.3076 12.4947 9.64134 10.9753 7.76462 9.75085ZM21.258 30.1958H21.4643C21.5182 29.2995 21.5137 28.4031 21.6258 27.5068C22.2897 22.2096 24.9049 17.8983 28.516 14.1204C29.1306 13.475 29.0902 13.1389 28.4667 12.5608C24.3622 8.73801 19.652 6.22834 13.9685 5.78018C11.56 5.62317 9.14142 5.8225 6.79119 6.37174C6.9482 6.85127 7.32052 6.90505 7.58967 7.0619C13.2822 10.4365 16.9381 15.3304 18.7011 21.6942C19.4681 24.54 20.3922 27.3545 21.258 30.2003V30.1958Z" fill="#75804F" stroke="url(#paint0_linear_2_16)" stroke-miterlimit="10"/>
<defs>
<linearGradient id="paint0_linear_2_16" x1="0.101245" y1="27.0441" x2="59.0869" y2="27.0441" gradientUnits="userSpaceOnUse">
<stop stop-color="#68A99B"/>
<stop offset="1" stop-color="#6CA9E0"/>
</linearGradient>
</defs>
</svg>
