<svg width="150" height="22" viewBox="0 0 150 22" fill="none" xmlns="http://www.w3.org/2000/svg">
<path d="M146.81 15.4954C145.016 16.7234 143.222 17.1402 141.27 16.4545C139.951 15.9931 138.846 15.0658 138.164 13.8472C137.481 12.6286 137.268 11.2028 137.565 9.83822C137.862 8.47366 138.648 7.26455 139.775 6.43856C140.901 5.61258 142.292 5.22672 143.684 5.35366C145.068 5.49758 146.354 6.13648 147.305 7.1527C148.255 8.16892 148.806 9.49402 148.856 10.8839C148.896 12.5735 148.887 14.2675 148.856 15.957C148.824 17.124 148.435 18.2531 147.739 19.1912C147.044 20.1294 146.076 20.8312 144.968 21.2015C143.86 21.5719 142.665 21.5928 141.544 21.2615C140.424 20.9303 139.432 20.2628 138.704 19.3496C138.256 18.7894 137.906 18.1709 138.565 17.6197C139.225 17.0685 139.777 17.557 140.248 18.0679C142.069 20.0666 144.881 19.9501 146.272 17.8124C146.746 17.1392 146.939 16.3083 146.81 15.4954ZM146.86 11.0766C146.834 10.1111 146.434 9.1934 145.743 8.51714C145.053 7.84087 144.127 7.45895 143.16 7.45197C142.193 7.445 141.262 7.81352 140.562 8.47975C139.862 9.14598 139.449 10.0578 139.409 11.0228C139.388 11.5221 139.468 12.0204 139.645 12.4881C139.821 12.9557 140.089 13.3832 140.434 13.745C140.779 14.1068 141.194 14.3955 141.653 14.5939C142.112 14.7924 142.606 14.8965 143.106 14.9001C143.607 14.9037 144.102 14.8068 144.564 14.615C145.026 14.4231 145.445 14.1404 145.795 13.7837C146.145 13.4269 146.42 13.0034 146.603 12.5383C146.786 12.0732 146.873 11.5761 146.86 11.0766Z" fill="url(#paint0_linear_303_17)" stroke="url(#paint1_linear_303_17)" stroke-miterlimit="10"/>
<path d="M1.24542 8.58932C1.24542 6.41576 1.24542 4.24221 1.24542 2.07313C1.24542 1.10511 1.62671 0.656959 2.62256 0.661441C6.09011 0.683849 9.55316 0.661441 13.0207 0.661441C13.9582 0.661441 14.3395 1.1096 14.3395 2.00591C14.3395 6.42474 14.3395 10.8421 14.3395 15.2579C14.3395 16.0018 14.1556 16.6024 13.2674 16.6024C12.3792 16.6024 12.1774 15.9884 12.1774 15.2579C12.1774 11.3545 12.1505 7.451 12.1774 3.54756C12.1774 2.68262 11.9486 2.41373 11.0694 2.44062C8.85786 2.49888 6.64635 2.4944 4.43484 2.44062C3.57356 2.44062 3.28647 2.66021 3.29544 3.55204C3.3403 7.3793 3.31787 11.211 3.29544 15.0383C3.36034 15.4408 3.28597 15.8534 3.0846 16.208C2.96598 16.3749 2.79744 16.5 2.60319 16.5652C2.40894 16.6305 2.19899 16.6325 2.00352 16.571C1.39794 16.4276 1.21851 15.9794 1.21851 15.4058C1.21851 13.3144 1.21851 11.2155 1.21851 9.10919C1.24093 8.95681 1.24093 8.77307 1.24542 8.58932Z" fill="url(#paint2_linear_303_17)" stroke="url(#paint3_linear_303_17)" stroke-miterlimit="10"/>
<path d="M20.2385 15.482C20.2385 17.1357 20.2385 18.6191 20.2385 20.0667C20.2385 20.7703 20.1398 21.4604 19.2247 21.4694C18.3096 21.4784 18.1974 20.7927 18.2064 20.0846C18.2557 16.9206 18.0539 13.7521 18.3051 10.5926C18.387 9.35376 18.8809 8.17777 19.7082 7.25135C20.5355 6.32492 21.649 5.70119 22.8716 5.47915C24.115 5.26015 25.3959 5.4502 26.5219 6.02075C27.6479 6.5913 28.5582 7.51153 29.1159 8.64314C29.6468 9.76637 29.7935 11.0328 29.5333 12.2475C29.2731 13.4622 28.6205 14.5577 27.6759 15.3655C26.7494 16.1968 25.5719 16.6958 24.3297 16.7834C23.0875 16.8711 21.8514 16.5425 20.8171 15.8495L20.2385 15.482ZM27.6445 11.1394C27.665 10.1567 27.2944 9.20602 26.614 8.49605C25.9336 7.78607 24.9991 7.37479 24.0155 7.35244C23.2733 7.33028 22.5413 7.52925 21.9127 7.92405C21.2841 8.31884 20.7872 8.89159 20.4855 9.56938C20.1837 10.2472 20.0906 10.9994 20.2181 11.7302C20.3456 12.461 20.6879 13.1373 21.2014 13.6732C21.7149 14.209 22.3763 14.5801 23.1016 14.7391C23.8269 14.8982 24.5831 14.838 25.274 14.5663C25.9649 14.2946 26.5593 13.8236 26.9814 13.2134C27.4036 12.6031 27.6344 11.8811 27.6445 11.1394Z" fill="url(#paint4_linear_303_17)" stroke="url(#paint5_linear_303_17)" stroke-miterlimit="10"/>
<path d="M119.635 9.43635C118.684 10.7808 117.742 12.1253 116.773 13.4698C115.876 14.7156 115.23 14.738 114.293 13.4966C113.301 12.1835 112.386 10.8077 111.22 9.46324V11.35C111.22 12.7482 111.22 14.1465 111.22 15.5402C111.22 16.1721 110.942 16.6068 110.251 16.6427C109.56 16.6785 109.129 16.3783 109.12 15.7105C109.12 12.6227 109.08 9.53047 109.12 6.44268C109.143 5.49259 110.121 5.18336 110.915 5.80182C111.538 6.29031 111.884 7.00286 112.328 7.6258C113.391 9.11368 114.423 10.6285 115.526 12.2149L119.236 6.89531C119.429 6.62193 119.604 6.34407 119.81 6.08414C119.957 5.84712 120.179 5.66591 120.441 5.56929C120.702 5.47266 120.989 5.46616 121.255 5.55084C121.887 5.74354 121.959 6.27237 121.963 6.78327C121.99 9.13608 121.963 11.4889 121.963 13.8462C121.963 14.3974 121.963 14.9487 121.941 15.4999C121.901 16.1363 121.676 16.7054 120.918 16.6786C120.16 16.6517 119.837 16.1766 119.837 15.4282C119.837 13.4518 119.837 11.4755 119.837 9.4991L119.635 9.43635Z" fill="url(#paint6_linear_303_17)" stroke="url(#paint7_linear_303_17)" stroke-miterlimit="10"/>
<path d="M59.4402 15.5492C59.4402 17.1088 59.4402 18.5608 59.4402 20.0308C59.4402 20.7254 59.4043 21.4514 58.4982 21.4828C57.5158 21.5186 57.462 20.7747 57.462 20.0263C57.462 17.0864 57.462 14.1465 57.462 11.2065C57.4398 9.85484 57.8954 8.53859 58.7487 7.48937C59.602 6.44014 60.7983 5.72514 62.1272 5.47013C63.4449 5.25767 64.7956 5.50074 65.9563 6.15915C67.1169 6.81756 68.018 7.85191 68.5105 9.09125C69.309 11.0049 68.6989 13.6983 67.1379 15.1951C66.3317 15.9845 65.3077 16.5151 64.1974 16.7188C63.0872 16.9224 61.9413 16.7898 60.9071 16.3379C60.463 16.1183 60.0234 15.8584 59.4402 15.5492ZM59.4402 11.0362C59.4265 11.5226 59.5094 12.0069 59.684 12.4611C59.8587 12.9154 60.1217 13.3305 60.4579 13.6826C60.7941 14.0347 61.1967 14.3168 61.6426 14.5126C62.0885 14.7083 62.5688 14.8139 63.0558 14.8232C64.048 14.8535 65.0116 14.4888 65.7347 13.8092C66.4577 13.1297 66.881 12.1911 66.9113 11.1998C66.9417 10.2085 66.5766 9.24582 65.8964 8.52345C65.2163 7.80107 64.2768 7.37822 63.2845 7.34791C62.7895 7.33357 62.2965 7.41819 61.8346 7.59678C61.3727 7.77538 60.9512 8.04435 60.5947 8.38792C60.2383 8.73149 59.9542 9.14274 59.759 9.59752C59.5638 10.0523 59.4615 10.5414 59.4581 11.0362H59.4402Z" fill="url(#paint8_linear_303_17)" stroke="url(#paint9_linear_303_17)" stroke-miterlimit="10"/>
<path d="M133.949 10.0548C133.68 8.10983 131.056 6.81465 129.159 7.60341C128.682 7.78811 128.249 8.06843 127.885 8.42708C127.522 8.78572 127.236 9.21507 127.045 9.68856C126.854 10.1621 126.762 10.6696 126.775 11.1799C126.788 11.6903 126.906 12.1924 127.121 12.6555C127.336 13.1185 127.644 13.5325 128.026 13.872C128.408 14.2114 128.855 14.469 129.34 14.6289C129.825 14.7888 130.338 14.8476 130.847 14.8016C131.356 14.7557 131.85 14.6059 132.299 14.3616C132.46 14.2765 132.604 14.1555 132.747 14.0569C133.299 13.7073 133.864 13.5505 134.29 14.1958C134.717 14.8412 134.376 15.2848 133.842 15.6837C132.792 16.4426 131.514 16.8212 130.22 16.757C128.926 16.6928 127.692 16.1897 126.723 15.3308C125.753 14.4718 125.106 13.3082 124.887 12.0321C124.668 10.756 124.892 9.44362 125.521 8.3115C126.088 7.28749 126.955 6.46059 128.004 5.94097C129.054 5.42135 130.238 5.23367 131.397 5.40296C132.563 5.61564 133.638 6.17047 134.487 6.99663C135.335 7.82279 135.918 8.88281 136.161 10.0414C136.453 11.5831 136.049 12.0895 134.492 12.1029C133.312 12.1029 132.133 12.1029 130.957 12.1029C130.249 12.1029 129.571 11.955 129.612 11.0408C129.612 10.2072 130.271 10.0638 130.957 10.0548C131.908 10.0414 132.9 10.0548 133.949 10.0548Z" fill="url(#paint10_linear_303_17)" stroke="url(#paint11_linear_303_17)" stroke-miterlimit="10"/>
<path d="M80.205 10.0548C79.8686 8.04255 77.3027 6.837 75.4142 7.59887C74.94 7.78895 74.5098 8.07418 74.1503 8.43691C73.7908 8.79964 73.5096 9.23216 73.3241 9.70777C73.1385 10.1834 73.0526 10.6919 73.0715 11.2021C73.0905 11.7122 73.2139 12.2129 73.4343 12.6735C73.6546 13.134 73.9672 13.5446 74.3526 13.8797C74.7381 14.2148 75.1882 14.4673 75.6752 14.6217C76.1622 14.7762 76.6757 14.8292 77.184 14.7775C77.6923 14.7258 78.1846 14.5705 78.6305 14.3212C78.7606 14.254 78.8727 14.1509 78.9938 14.0747C79.5411 13.7297 80.1018 13.5414 80.537 14.2002C80.9721 14.859 80.5908 15.3385 80.0166 15.7419C79.0349 16.4392 77.8554 16.8041 76.651 16.7832C75.4466 16.7622 74.2806 16.3564 73.3238 15.6254C72.3318 14.8728 71.6119 13.8182 71.2728 12.6208C70.9338 11.4235 70.9939 10.1484 71.4442 8.98816C71.903 7.85496 72.707 6.89465 73.7423 6.24317C74.7776 5.59169 75.9918 5.28205 77.213 5.35809C78.4654 5.49013 79.6434 6.01682 80.5764 6.86196C81.5095 7.70709 82.1492 8.82686 82.4031 10.0593C82.6991 11.583 82.273 12.1073 80.7298 12.1118C79.5187 12.1118 78.303 12.1387 77.0874 12.0894C76.4459 12.067 75.791 11.9191 75.8269 11.0452C75.8627 10.1713 76.4952 10.0772 77.1502 10.0593C78.155 10.0368 79.1464 10.0548 80.205 10.0548Z" fill="url(#paint12_linear_303_17)" stroke="url(#paint13_linear_303_17)" stroke-miterlimit="10"/>
<path d="M43.5244 11.1573C43.5073 12.2882 43.1547 13.3885 42.5112 14.3191C41.8677 15.2496 40.9623 15.9684 39.9096 16.3845C38.8569 16.8005 37.7043 16.8951 36.5977 16.6563C35.4912 16.4174 34.4805 15.8558 33.6936 15.0427C32.9068 14.2296 32.3791 13.2014 32.1776 12.0885C31.976 10.9756 32.1096 9.82788 32.5614 8.79084C33.0131 7.7538 33.7628 6.87402 34.7154 6.26294C35.668 5.65186 36.7807 5.33696 37.9126 5.35812C39.4199 5.40366 40.8499 6.03525 41.8981 7.1184C42.9462 8.20156 43.5297 9.65071 43.5244 11.1573ZM37.8139 7.33898C37.3114 7.32383 36.811 7.40989 36.3426 7.59204C35.8741 7.77418 35.4471 8.04868 35.087 8.39918C34.7269 8.74968 34.4412 9.169 34.2468 9.63216C34.0523 10.0953 33.9532 10.5928 33.9554 11.0951C33.9575 11.5973 34.0607 12.094 34.259 12.5555C34.4573 13.017 34.7466 13.4339 35.1096 13.7814C35.4726 14.1289 35.9019 14.3998 36.3719 14.578C36.8419 14.7562 37.343 14.8381 37.8453 14.8187C38.8304 14.7932 39.767 14.3863 40.4575 13.6839C41.148 12.9815 41.5383 12.0386 41.5461 11.0542C41.5367 10.0694 41.1401 9.12788 40.4418 8.43278C39.7435 7.73769 38.7996 7.34482 37.8139 7.33898Z" fill="url(#paint14_linear_303_17)" stroke="url(#paint15_linear_303_17)" stroke-miterlimit="10"/>
<path d="M50.5538 14.8815C51.5576 14.9351 52.5417 14.5885 53.2901 13.918C53.3771 13.821 53.4851 13.7452 53.606 13.6965C53.7268 13.6478 53.8573 13.6274 53.9872 13.6369C54.1172 13.6465 54.2433 13.6856 54.3557 13.7514C54.4681 13.8173 54.564 13.908 54.6359 14.0166C55.0351 14.514 54.8243 14.9487 54.3847 15.361C52.6128 16.9923 48.8088 17.2657 46.8081 15.8854C46.4284 15.6352 46.1184 15.293 45.907 14.8908C45.6955 14.4885 45.5896 14.0393 45.599 13.585C45.6084 13.1307 45.7328 12.6863 45.9608 12.2931C46.1887 11.8999 46.5126 11.5708 46.9023 11.3366C47.8257 10.7966 48.8345 10.4177 49.8854 10.2162C50.4615 10.1033 51.0249 9.93364 51.5676 9.70976C51.8356 9.61833 52.0634 9.4366 52.212 9.19572C52.3606 8.95485 52.4207 8.66983 52.382 8.38954C52.3432 8.10925 52.2081 7.85113 51.9998 7.65947C51.7915 7.4678 51.5229 7.35451 51.2401 7.33902C50.6279 7.18656 49.9899 7.16891 49.3702 7.28731C48.7506 7.40571 48.1641 7.65733 47.6514 8.0247C47.1131 8.4146 46.5345 8.79105 46.0276 8.07848C45.5207 7.36591 46.1218 6.89534 46.6242 6.54578C47.4799 5.89387 48.498 5.48864 49.568 5.37408C50.638 5.25952 51.7189 5.44001 52.6935 5.89596C53.1928 6.09707 53.6212 6.44155 53.9246 6.88586C54.228 7.33017 54.3928 7.85436 54.3981 8.39219C54.4699 9.62911 53.806 10.373 52.8101 10.9422C51.9534 11.3622 51.05 11.6796 50.1186 11.8878C50.0469 11.9102 49.9751 11.9192 49.9033 11.9371C48.3108 12.3584 47.6604 12.9096 47.7411 13.7297C47.8219 14.5499 48.7191 14.9173 50.5538 14.8815Z" fill="url(#paint16_linear_303_17)" stroke="url(#paint17_linear_303_17)" stroke-miterlimit="10"/>
<path d="M83.7892 10.9421C83.8296 8.41903 85.135 6.54575 87.4138 5.68977C88.3843 5.33083 89.4384 5.26174 90.4476 5.49092C91.4568 5.72009 92.3774 6.23763 93.0973 6.98045C93.501 7.40172 93.7567 7.80058 93.2947 8.32492C93.213 8.42258 93.1116 8.50177 92.9969 8.55722C92.8823 8.61266 92.7572 8.64308 92.6299 8.64647C92.5026 8.64986 92.376 8.62614 92.2586 8.57688C92.1412 8.52762 92.0356 8.45395 91.9489 8.36078C91.4504 7.87142 90.8314 7.52206 90.1546 7.34794C89.4172 7.16503 88.64 7.23013 87.9434 7.53314C87.2468 7.83615 86.6696 8.36016 86.3013 9.02404C85.4759 10.5971 85.7136 12.6989 86.8485 13.8552C87.4179 14.4093 88.146 14.7722 88.9316 14.8935C89.7171 15.0148 90.5209 14.8884 91.2312 14.5319C91.8816 14.2002 92.6666 13.4384 93.2139 14.4423C93.7612 15.4461 92.6891 15.8495 92.0386 16.1856C88.6204 17.902 83.6636 15.8629 83.7892 10.9421Z" fill="url(#paint18_linear_303_17)" stroke="url(#paint19_linear_303_17)" stroke-miterlimit="10"/>
<path d="M96.179 11.0721C96.2148 8.46383 97.4305 6.65327 99.6869 5.73455C100.667 5.34561 101.741 5.25554 102.772 5.47568C103.804 5.69582 104.747 6.21632 105.483 6.97147C105.895 7.38826 106.151 7.78712 105.698 8.29354C105.245 8.79996 104.715 8.70136 104.24 8.29354C103.712 7.77633 103.04 7.43234 102.311 7.30759C100.647 7.09695 99.2831 7.75575 98.6192 9.10022C97.8208 10.7091 98.1034 12.7796 99.2697 13.9134C99.851 14.4558 100.588 14.8017 101.377 14.9023C102.166 15.0028 102.967 14.8528 103.666 14.4736C103.796 14.4064 103.926 14.3302 104.052 14.2585C104.603 13.9448 105.182 13.7431 105.59 14.4109C105.998 15.0786 105.474 15.5044 104.98 15.836C103.132 17.0864 101.154 17.0864 99.2114 16.1766C98.3511 15.7844 97.6158 15.1627 97.0863 14.3799C96.5568 13.5971 96.2537 12.6836 96.2104 11.7399C96.1879 11.471 96.1834 11.229 96.179 11.0721Z" fill="url(#paint20_linear_303_17)" stroke="url(#paint21_linear_303_17)" stroke-miterlimit="10"/>
<defs>
<linearGradient id="paint0_linear_303_17" x1="15.2768" y1="95.563" x2="158.891" y2="3.11835" gradientUnits="userSpaceOnUse">
<stop stop-color="#A2D1CF"/>
<stop offset="1" stop-color="#C8C9B6"/>
</linearGradient>
<linearGradient id="paint1_linear_303_17" x1="137.255" y1="13.4264" x2="149.071" y2="13.4264" gradientUnits="userSpaceOnUse">
<stop stop-color="#68A99B"/>
<stop offset="1" stop-color="#6CA9E0"/>
</linearGradient>
<linearGradient id="paint2_linear_303_17" x1="-26.4814" y1="30.6924" x2="117.138" y2="-61.7519" gradientUnits="userSpaceOnUse">
<stop stop-color="#A2D1CF"/>
<stop offset="1" stop-color="#C8C9B6"/>
</linearGradient>
<linearGradient id="paint3_linear_303_17" x1="1.01216" y1="8.65207" x2="14.5549" y2="8.65207" gradientUnits="userSpaceOnUse">
<stop stop-color="#68A99B"/>
<stop offset="1" stop-color="#6CA9E0"/>
</linearGradient>
<linearGradient id="paint4_linear_303_17" x1="-20.4793" y1="40.0142" x2="123.14" y2="-52.4299" gradientUnits="userSpaceOnUse">
<stop stop-color="#A2D1CF"/>
<stop offset="1" stop-color="#C8C9B6"/>
</linearGradient>
<linearGradient id="paint5_linear_303_17" x1="17.9954" y1="13.4437" x2="29.8473" y2="13.4437" gradientUnits="userSpaceOnUse">
<stop stop-color="#68A99B"/>
<stop offset="1" stop-color="#6CA9E0"/>
</linearGradient>
<linearGradient id="paint6_linear_303_17" x1="6.13515" y1="81.3609" x2="149.749" y2="-11.0833" gradientUnits="userSpaceOnUse">
<stop stop-color="#A2D1CF"/>
<stop offset="1" stop-color="#C8C9B6"/>
</linearGradient>
<linearGradient id="paint7_linear_303_17" x1="108.9" y1="11.0898" x2="122.187" y2="11.0898" gradientUnits="userSpaceOnUse">
<stop stop-color="#68A99B"/>
<stop offset="1" stop-color="#6CA9E0"/>
</linearGradient>
<linearGradient id="paint8_linear_303_17" x1="-8.99984" y1="57.8462" x2="134.619" y2="-34.5977" gradientUnits="userSpaceOnUse">
<stop stop-color="#A2D1CF"/>
<stop offset="1" stop-color="#C8C9B6"/>
</linearGradient>
<linearGradient id="paint9_linear_303_17" x1="57.2819" y1="13.4533" x2="69.0483" y2="13.4533" gradientUnits="userSpaceOnUse">
<stop stop-color="#68A99B"/>
<stop offset="1" stop-color="#6CA9E0"/>
</linearGradient>
<linearGradient id="paint10_linear_303_17" x1="10.5214" y1="88.1732" x2="154.145" y2="-4.27617" gradientUnits="userSpaceOnUse">
<stop stop-color="#A2D1CF"/>
<stop offset="1" stop-color="#C8C9B6"/>
</linearGradient>
<linearGradient id="paint11_linear_303_17" x1="124.625" y1="11.0629" x2="136.437" y2="11.0629" gradientUnits="userSpaceOnUse">
<stop stop-color="#68A99B"/>
<stop offset="1" stop-color="#6CA9E0"/>
</linearGradient>
<linearGradient id="paint12_linear_303_17" x1="-5.20481" y1="63.7395" x2="138.41" y2="-28.7044" gradientUnits="userSpaceOnUse">
<stop stop-color="#A2D1CF"/>
<stop offset="1" stop-color="#C8C9B6"/>
</linearGradient>
<linearGradient id="paint13_linear_303_17" x1="70.8763" y1="11.0751" x2="82.6786" y2="11.0751" gradientUnits="userSpaceOnUse">
<stop stop-color="#68A99B"/>
<stop offset="1" stop-color="#6CA9E0"/>
</linearGradient>
<linearGradient id="paint14_linear_303_17" x1="-16.6035" y1="46.0329" x2="127.011" y2="-46.4111" gradientUnits="userSpaceOnUse">
<stop stop-color="#A2D1CF"/>
<stop offset="1" stop-color="#C8C9B6"/>
</linearGradient>
<linearGradient id="paint15_linear_303_17" x1="31.9063" y1="11.0808" x2="43.7121" y2="11.0808" gradientUnits="userSpaceOnUse">
<stop stop-color="#68A99B"/>
<stop offset="1" stop-color="#6CA9E0"/>
</linearGradient>
<linearGradient id="paint16_linear_303_17" x1="-12.9296" y1="51.7424" x2="130.689" y2="-40.7019" gradientUnits="userSpaceOnUse">
<stop stop-color="#A2D1CF"/>
<stop offset="1" stop-color="#C8C9B6"/>
</linearGradient>
<linearGradient id="paint17_linear_303_17" x1="45.4529" y1="11.0661" x2="54.9996" y2="11.0661" gradientUnits="userSpaceOnUse">
<stop stop-color="#68A99B"/>
<stop offset="1" stop-color="#6CA9E0"/>
</linearGradient>
<linearGradient id="paint18_linear_303_17" x1="-1.5042" y1="69.4937" x2="142.115" y2="-22.9507" gradientUnits="userSpaceOnUse">
<stop stop-color="#A2D1CF"/>
<stop offset="1" stop-color="#C8C9B6"/>
</linearGradient>
<linearGradient id="paint19_linear_303_17" x1="83.6335" y1="11.0813" x2="93.7018" y2="11.0813" gradientUnits="userSpaceOnUse">
<stop stop-color="#68A99B"/>
<stop offset="1" stop-color="#6CA9E0"/>
</linearGradient>
<linearGradient id="paint20_linear_303_17" x1="2.10691" y1="75.1049" x2="145.726" y2="-17.3391" gradientUnits="userSpaceOnUse">
<stop stop-color="#A2D1CF"/>
<stop offset="1" stop-color="#C8C9B6"/>
</linearGradient>
<linearGradient id="paint21_linear_303_17" x1="96.0255" y1="11.0994" x2="106.098" y2="11.0994" gradientUnits="userSpaceOnUse">
<stop stop-color="#68A99B"/>
<stop offset="1" stop-color="#6CA9E0"/>
</linearGradient>
</defs>
</svg>
