<svg width="49" height="115" viewBox="0 0 49 115" fill="none" xmlns="http://www.w3.org/2000/svg">
<path fill-rule="evenodd" clip-rule="evenodd" d="M44 65.5V24.5C44 13.7304 35.2696 5 24.5 5C13.7304 5 5 13.7304 5 24.5V65.5C5 76.2696 13.7304 85 24.5 85C35.2696 85 44 76.2696 44 65.5ZM24.5 0C10.969 0 0 10.969 0 24.5V65.5C0 79.031 10.969 90 24.5 90C38.031 90 49 79.031 49 65.5V24.5C49 10.969 38.031 0 24.5 0Z" fill="#3F3F3F" fill-opacity="0.8"/>
<path d="M17 16.5C17 12.3579 20.3579 9 24.5 9C28.6421 9 32 12.3579 32 16.5C32 20.6421 28.6421 24 24.5 24C20.3579 24 17 20.6421 17 16.5Z" fill="#3F3F3F" fill-opacity="0.8"/>
<path fill-rule="evenodd" clip-rule="evenodd" d="M48.7678 89.7678L24.5197 114.016L0.252197 90.2875L3.74779 86.7125L24.4802 106.984L45.2322 86.2322L48.7678 89.7678Z" fill="#3F3F3F" fill-opacity="0.8"/>
</svg>
